<?xml version="1.0" encoding="UTF-8"?>
<svg id="Capa_1" data-name="Capa 1" xmlns="http://www.w3.org/2000/svg" viewBox="0 0 1080 1080">
  <defs>
    <style>
      .cls-1 {
        fill: #fff;
      }

      .cls-1, .cls-2, .cls-3, .cls-4, .cls-5 {
        fill-rule: evenodd;
      }

      .cls-2 {
        stroke-width: .31px;
      }

      .cls-2, .cls-3 {
        stroke-linejoin: round;
      }

      .cls-2, .cls-3, .cls-5 {
        fill: none;
        stroke: #fff;
      }

      .cls-3 {
        stroke-width: .18px;
      }

      .cls-5 {
        stroke-miterlimit: 10;
        stroke-width: .5px;
      }
    </style>
  </defs>
  <path class="cls-5" d="M543.15,42.47c242.48,0,440.24,222.5,440.24,495.29s-197.76,495.29-440.24,495.29S102.91,810.56,102.91,537.76,300.67,42.47,543.15,42.47h0ZM543.15,111.67c-203.56,0-369.59,191.41-369.59,426.09s166.03,426.09,369.59,426.09,369.59-191.41,369.59-426.09S746.71,111.67,543.15,111.67Z"/>
  <path class="cls-2" d="M313.31,180.78c-4.91-.21-16.48,1.44-20.86,2.48-14.71,24.75-37.68,32.82-37.68,32.26,0-1.31,28-8.79,38.37-35.3.41-1.24.68-2.49.82-3.74,1.59,3.7,8.37,3.7,16.61,1.47-.37.63.14,1.1,2.17,1.26l11.71.93c8.79.7,36.23-19.24,38.51-20.99,14.85-11.38-3.38-8.3-8.75-6.41-4.82,1.7-23.98,12.34-27.98,14.57,6.96-5.54,30.39-16.3,29.94-19.45-4.84-.87-16.52-.81-21.02-.38-16.05,19.97-36.66,26.05-41.05,26.79v-.43c4.87-1.75,29.51-6.88,42.16-29.27,2.04-4.08,2.27-8.61,2.03-12.8-3.34.68-8.86-.25-13.6,1.19-1.31.4-34.34,14.17-37.04,35.4,0,0,.02,0,.02,0,4.27-23.54,35.88-34.67,36.69-35.92,3.54-5.45,6.42-10.73,8.31-14.62-2.15-2.36-11.98,4.57-21.33,7.77-27.02,12.54-21.93,19.49-25.15,43-1.04.17,8.23,2.15,7.19,2.42-.78.2-7.76-2.44-13.69-.41-.27.1.58-.41.34-.3-1.25.57-32.33,18.9-31.64,40.45.59-24.1,30.61-39.57,31.24-40.92,2.73-5.88,4.84-11.49,6.15-15.61-2.47-2.04-11.21,6.16-20.01,10.6-26.2,16.89-20.02,20.18-19.03,37.02.26,4.45.22,9.04.26,13.51,3.22-3.39,22.72-23.52,26.9-26.14.02.01-.81,1.22-1.66.84-11.34,9.44-17.83,18.15-24.93,25.11,1.28,2.62,4.44,1.57,7.84.39.59,5.71,8.18,5.1,17.3,1.23-.28.67-1.88,2.49.15,2.38,22.18-1.27,40.99-17.18,56.18-32.6,13.09-13.29-11.65-3.27-16.7-.67-4.53,2.34-22.72,17.61-26.36,20.36,6.11-6.44,28.49-22.4,27.6-25.46h0ZM292.83,167.43c30.24-20.26,42.07-26.41,6.99-3.14-.41.27-1.58.87-2.86,1.46-1.65.77-3.48,1.55-4.14,1.68,0,0,0,0,.01,0Z"/>
  <path class="cls-2" d="M457.67,108.53c-5.16-2.25-18.3-5.39-23.48-6.16-27.21,18.83-55.53,17.41-55.27,16.86.61-1.32,34.04,2.78,57.41-19.63,1.02-1.07,1.87-2.23,2.61-3.43-.02,4.38,7.24,7.2,17.09,8.38-.69.48-.36,1.17,1.74,2.17l12.1,5.8c9.08,4.36,57.52-4.65,60.78-5.46,21.17-5.3-9.61-9.46-16.24-9.78-5.95-.29-31.38,2.47-36.7,3.05,10.02-2.69,40.07-3.8,41.05-7.16-4.77-2.89-17.31-7.68-22.32-9.11-26.42,13.46-51.3,11.03-56.34,9.94.07-.14.14-.29.2-.44,6.03.26,34.77,5.33,58.68-11.98,4.08-3.26,6.42-7.73,8.1-12.05-3.89-.7-9.37-3.93-15.1-4.45-1.59-.14-43.31.02-56.04,20.29,0,0,.02,0,.02,0,15.47-21.95,54.47-20.03,55.91-20.95,6.31-4.02,11.84-8.14,15.66-11.28-1.21-3.27-14.94-.37-26.43-1.02-34.72,1.42-32.49,10.53-46.83,32.87-1.19-.26,7.81,5.58,6.58,5.42-.92-.12-7.18-5.69-14.46-6.09-.34-.02.81-.17.51-.16-1.6.06-43.36,5.61-52.59,27.61,11.79-24.04,51.09-27.15,52.39-28.25,5.65-4.79,10.5-9.57,13.81-13.18-1.7-3.08-14.85,1.55-26.33,2.37-35.86,6.13-30.77,12.02-37.51,29.39-1.78,4.59-3.95,9.2-5.98,13.72,5.02-2.07,35.22-14.26,40.9-15.17.02.02-1.43.89-2.17.16-16.51,4.8-27.48,10.88-38.31,14.94.15,3.17,4.03,3.42,8.21,3.65-2.01,5.99,2.26,9.15,13.81,9.04-.61.56.97,1.11,3.2,1.84,3.8,1.24.6,4.47,4.53,4.98,21.21,2.74,50.96-6.71,70.69-14.49,20.16-7.96-10.96-8.13-17.56-7.61-5.94.47-32.47,8.3-37.64,9.57,9.52-3.95,40.87-10.74,41.33-14.2h0ZM441.94,86.58c41.74-7.85,57.26-9.14,8.93-.26-.56.1-2.09.22-3.74.29-2.12.09-4.45.12-5.21-.03,0,0,.01,0,.02,0Z"/>
  <path class="cls-2" d="M351.65,173.21l5.06-42.51,15.67,8.42-18.14-10.01-30.14-17.14,13.41-10.15,10.92,6.41,59.63,33.66-13.46,9.49-22.94-12.66-3.19,26.2-16.82,8.28h0ZM358.87,114.13l14.77,8.34,1.97-16.21.99-22.43-16.04,6.62-1.71,23.68Z"/>
  <path class="cls-2" d="M630.3,108.61c-1.56-3.77-8.19-11.69-11.27-14.52-39.7-.08-59.46-13.71-58.7-13.96,1.81-.58,22.65,17.08,63.15,13.13,1.86-.24,3.69-.59,5.47-1.04-4.51,2.82-1.97,7.89,4.21,13.08-1,0-1.47.59-.93,2.18l3.12,9.17c2.72,8,45.79,24.19,51.14,23.78,26.22-2.02,2.5-10.41-2.13-13.6-4.16-2.86-26.04-12.51-30.63-14.51,10.27,2.77,33.92,15.55,38.11,13.82-.61-4-5.09-12.72-7.37-15.89-33.6-3.2-49.75-15.93-52.41-18.9.2-.06.4-.13.6-.19,4.24,2.88,20.59,19.05,56.26,18.63,6.4-.27,12.73-2.1,18.42-4.13-2.19-2.2-2.99-6.74-6.76-9.65-1.04-.81-32.46-19.44-62.79-12.09,0,0,0,0,.01.01,34.11-7.19,61.35,11.55,63.38,11.61,8.85.24,17.22.07,23.31-.23,2.44-2.65-10.81-6.95-18.75-12.53-30.44-16.43-40.1-10.71-68.81.15-.63-.7.13,7.1-.64,6.45-.57-.49.46-6.89-4.59-10.42-.24-.16.78.25.54.12-1.26-.68-38.25-15.86-67.73-5.83,33.49-10.2,66.13,5.45,68.23,5.32,9.14-.55,17.69-1.45,23.86-2.29,1.89-2.74-12.71-5.67-22.15-10.3-33.16-12.15-35.39-6.08-58.25,2.1-6.05,2.16-12.4,4.15-18.55,6.16,5.89.92,41.02,6.62,46.2,8.59,0,.02-1.99-.06-1.79-.87-17.29-4.32-31.75-5.33-44.03-7.58-3.14,2.11-.49,4.02,2.41,6.04-7.66,2.96-3.96,8.37,4.81,13.49-1.03.08-4.15-.31-3.22,1.16,10.09,16.04,39.13,23.09,66.12,27.65,23.27,3.93.13-10.16-5.35-12.79-4.93-2.36-32.84-9.23-38.02-10.74,11.18,1.73,41.63,11.44,45.53,9.42h0ZM641.02,87.4c39.33,13.69,52.27,19.83,6.96,3.84-.53-.19-1.79-.8-3.1-1.49-1.68-.89-3.45-1.92-3.87-2.36,0,0,0,0,0,0Z"/>
  <path class="cls-2" d="M508.7,115.17l22.84-35.05,10.61,13.51-12.16-15.87-22.15-27.83,18.69-2.55,7.16,9.89,42.95,56.72-19.56-.94-15.39-20.06-14.14,21.58-18.82.58h0ZM540.62,66.53l9.83,13.09,8.75-13.35,9.31-16.68-17.66-.55-10.24,17.49Z"/>
  <path class="cls-2" d="M774.37,187.89c4.92.05,16.38,2.29,20.7,3.55,13.35,25.47,35.86,34.71,35.89,34.16.07-1.31-27.49-10.21-36.41-37.22-.34-1.26-.54-2.52-.61-3.78-1.78,3.61-8.55,3.27-16.66.62.34.64-.2,1.09-2.24,1.15l-11.74.33c-8.82.25-42.64-24.94-44.82-26.81-14.22-12.13,11.31-4.25,16.57-2.09,4.73,1.95,23.29,13.55,27.16,15.99-6.66-5.89-29.47-17.84-28.85-20.97,4.88-.62,16.54.04,21.01.7,14.95,20.77,35.21,27.9,39.56,28.86,0-.14.01-.29.02-.43-4.77-2-29.1-8.38-40.53-31.4-4-2.76-18.52-12.97-18.05-17.14,3.3.85,25.57,4.47,30.23,6.15,1.29.46,33.53,15.91,35.08,37.26,0,0-.02,0-.02,0-2.99-23.73-33.22-37.53-34.71-37.76-23.23-3.5-20.01-21.34-21.68-25.33,2.28-2.24,25.88,15.48,35.05,19.16,26.31,13.91,20.85,20.59,22.8,44.23,1.02.22-8.33,1.72-7.31,2.05.76.24,7.89-2.04,13.69.3.27.11-.56-.44-.33-.32,1.21.64,31.27,20.54,29.42,42.02.71-24.1-28.44-41.09-28.99-42.47-2.41-6.01-4.21-11.73-5.3-15.9,2.57-1.91,10.86,6.72,19.42,11.61,25.25,18.21,18.91,21.18,17.01,37.95-.5,4.43-.71,9.02-.99,13.48-3.04-3.55-21.43-24.66-25.45-27.49-.02.01.74,1.26,1.61.93,10.82,10.01,16.83,19.04,23.55,26.35-1.41,2.55-4.52,1.34-7.85-.01-.9,5.67-8.45,4.67-17.34.34.24.68,1.75,2.59-.28,2.37-22.08-2.41-40.01-19.27-54.34-35.45-12.35-13.95,11.81-2.67,16.71.19,4.4,2.57,21.74,18.75,25.23,21.69-5.75-6.74-27.25-23.83-26.19-26.85h0ZM795.54,175.61c-29.11-21.79-40.59-28.54-6.81-3.49.4.29,1.53.95,2.78,1.61,1.6.85,3.4,1.73,4.04,1.89,0,0,0,0-.01,0Z"/>
  <path class="cls-2" d="M672.99,141.37l36.55-20.5,3.24,16.73-3.54-19.52-7.27-36.67,18.18,8.03,1.83,11.98,11.41,70.67-16.27-10.57-4.48-24.69-21.85,11.96-17.8-7.42h0ZM723.92,112.74l2.74,16.01,13.97-8.05,16.01-10.78-17.39-7.01-15.32,9.83Z"/>
  <path class="cls-2" d="M873.77,306.3c4.54,2,14.22,8.62,17.71,11.5,1.8,28.9,18.82,46.39,19.08,45.89.61-1.19-21.24-20.37-18.29-48.94.2-1.3.54-2.55,1-3.74-3.15,2.64-9.28-.36-15.7-6.04.05.73-.64.93-2.55.18l-11.01-4.36c-8.27-3.27-29.15-40.02-30.41-42.62-8.14-16.88,12.25.55,16.23,4.64,3.57,3.68,15.95,21.79,18.53,25.59-3.72-8.1-19.9-28.22-18.03-30.88,4.78,1.36,15.31,6.6,19.18,8.98,5.23,25.18,21.04,39.82,24.67,42.44.07-.13.14-.26.2-.39-3.6-3.74-23.49-19.31-24.52-45.17-2.56-4.14-11.77-19.37-9.61-23.05,2.7,2.1,21.84,14.29,25.46,17.69,1,.94,24.46,28.05,17.04,48.44,0,0-.01,0-.02-.01,7.08-23.18-15.2-47.96-16.49-48.75-20.07-12.45-9.68-27.71-9.57-32.07,3.04-1.17,17.56,24.61,24.52,31.66,18.6,23.33,10.77,27.35,2.77,50.03.86.61-8.44-1.71-7.62-1.01.61.53,8.16,1.24,12.57,5.71.2.21-.33-.63-.17-.42.86,1.07,20.45,31.44,9.81,50.61,10.66-22.05-9.3-49.36-9.24-50.86.26-6.53.97-12.54,1.69-16.84,3.18-.75,7.28,10.54,13.17,18.46,15.84,26.89,8.73,27.13,0,41.91-2.3,3.91-4.4,8.08-6.51,12.1-1.34-4.49-9.62-31.35-12.18-35.57-.03,0,.16,1.46,1.11,1.5,5.87,13.57,7.69,24.32,10.88,33.76-2.37,1.8-4.74-.56-7.27-3.13-3.19,4.9-9.76.98-16.21-6.56-.06.73.55,3.09-1.24,2.08-19.47-10.99-29.08-33.73-35.64-54.4-5.66-17.83,12.05,2.21,15.41,6.8,3.01,4.13,12.36,26,14.37,30.11-2.53-8.53-15.36-32.89-13.12-35.27h0ZM898.48,303.32c-17.93-31.73-25.77-42.55-4.86-5.94.25.43,1.03,1.48,1.91,2.59,1.13,1.43,2.43,2.95,2.96,3.35,0,0,0,0,0,0Z"/>
  <path class="cls-2" d="M926.71,461.63c3.85,3.09,11.42,11.96,14.01,15.64-6.01,28.35,5.74,49.59,6.12,49.17.91-.99-15.04-25.1-4.54-51.91.54-1.2,1.21-2.32,1.97-3.36-3.75,1.74-8.86-2.73-13.53-9.85-.15.72-.86.74-2.51-.48l-9.46-7.02c-7.11-5.28-17.41-46.1-17.92-48.92-3.33-18.38,11.67,3.67,14.41,8.64,2.46,4.47,9.56,25.12,11.03,29.44-1.42-8.77-11.65-32.33-9.13-34.41,4.24,2.53,13.01,10.29,16.1,13.58-1.7,25.63,9.63,43.82,12.44,47.27.1-.11.2-.22.3-.33-2.47-4.53-17.49-24.65-11.56-49.87-1.36-4.65-6.17-21.71-3.09-24.7,2.05,2.72,17.25,19.38,19.83,23.59.71,1.16,16.09,33.33,3.47,51.11,0,0,0-.01-.01-.02,13.04-20.56-1.82-50.17-2.85-51.28-16.03-17.16-1.92-29.22-.65-33.4,3.25-.36,10.35,28.25,15.19,36.83,11.7,27.28,3.07,29.15-10.73,48.99.66.81-7.68-3.81-7.09-2.92.45.66,7.54,3.28,10.6,8.73.14.25-.16-.69-.05-.45.54,1.25,11.32,35.58-4.09,51.35,16.2-18.55,4.25-50.02,4.71-51.45,2-6.23,4.3-11.85,6.15-15.82,3.27.09,4.2,12.04,7.76,21.19,8.08,30.01,1.15,28.42-11.22,40.45-3.27,3.18-6.41,6.67-9.53,10.01-.09-4.68-.88-32.72-2.22-37.45-.03,0-.24,1.45.67,1.73,2.03,14.6.91,25.44,1.45,35.37-2.77,1.13-4.43-1.75-6.17-4.88-4.39,3.91-9.69-1.56-13.89-10.49-.25.69-.3,3.12-1.75,1.69-15.84-15.59-19.02-39.99-19.82-61.63-.68-18.65,11.04,5.22,13.05,10.51,1.8,4.75,4.96,28.26,5.8,32.74-.16-8.88-6-35.68-3.22-37.4h0ZM951.35,465.08c-8.8-35.22-13.47-47.66-3.1-6.97.12.47.59,1.7,1.14,2.99.71,1.67,1.56,3.47,1.96,4,0,0,0,0,0-.01Z"/>
  <path class="cls-2" d="M926.18,622.26c2.43,4.16,6.2,14.94,7.26,19.21-15.74,24.02-12.59,47.61-12.09,47.36,1.19-.59-4.79-28.27,14.53-49.33.93-.92,1.95-1.72,3.02-2.41-4.08.31-7.17-5.56-8.9-13.72-.4.61-1.06.38-2.14-1.31l-6.18-9.72c-4.64-7.3.59-48.41,1.13-51.19,3.56-18.06,9.42,7.39,10.15,12.91.66,4.96-.26,26.41-.46,30.89,1.85-8.56.93-33.76,4-34.81,3,3.79,8.27,13.95,9.92,18.04-10.8,23.01-6.92,43.64-5.59,47.79.13-.07.26-.13.39-.2-.64-5.02-7.22-28.71,7.33-49.88.42-4.75,2.14-22.1,6.05-23.8.91,3.2,8.89,23.77,9.74,28.54.24,1.32,2.8,36.21-15.23,48.23,0,0,0-.01,0-.02,19.41-14.43,16.4-46.8,15.86-48.16-8.57-21.31,8.77-27.55,11.44-30.96,3.12.79-.65,29.56.7,39.12.94,29.13-7.68,27.89-27.53,41.39.32.97-5.7-6.15-5.47-5.13.17.76,5.76,5.61,6.61,11.68.04.28.11-.69.11-.43.05,1.34-2.4,36.64-22.27,45.85,21.59-11.49,21.94-44.57,22.88-45.72,4.09-5.05,8.22-9.43,11.35-12.44,2.97,1.21-.47,12.52-.49,22.17-3.38,30.4-9.18,26.55-24.9,33.36-4.16,1.8-8.3,3.93-12.37,5.93,1.6-4.34,10.98-30.42,11.45-35.22-.02-.02-.74,1.25,0,1.83-3.39,14.13-8.33,23.72-11.41,33.04-2.96.09-3.44-3.14-3.93-6.62-5.44,2.09-8.35-4.77-9-14.43-.48.55-1.4,2.77-2.22.95-8.96-19.8-3.1-43.36,3.97-63.54,6.09-17.4,8.28,8.61,8.22,14.16-.05,5-5.61,27.71-6.45,32.12,3.05-8.23,7.33-34.9,10.51-35.52h0ZM947.62,633.93c4.59-35.44,4.78-48.5-.34-7.49-.06.48-.07,1.77-.02,3.15.05,1.78.18,3.72.36,4.35,0,0,0,0,0-.01Z"/>
  <path class="cls-2" d="M156.68,627.98c-2.28,4.14-5.69,14.83-6.61,19.08,16.46,23.7,14.07,47.08,13.57,46.84-1.21-.58,3.86-28.04-16.06-48.78-.96-.91-2-1.69-3.08-2.37,4.07.28,6.96-5.55,8.42-13.65.42.6,1.07.37,2.09-1.31l5.84-9.67c4.39-7.26-2.14-47.95-2.78-50.7-4.12-17.86-9.14,7.38-9.7,12.85-.5,4.91,1.11,26.15,1.45,30.59-2.12-8.47-2.02-33.43-5.11-34.46-2.86,3.77-7.78,13.87-9.3,17.93,11.5,22.72,8.3,43.19,7.11,47.3-.13-.06-.27-.13-.4-.19.47-4.98,6.26-28.48-8.91-49.36-.58-4.71-2.85-21.88-6.8-23.53-.8,3.18-8.09,23.6-8.78,28.33-.19,1.3-1.62,35.89,16.72,47.68,0,0,0-.01,0-.02-19.79-14.17-17.85-46.26-17.34-47.61,7.85-21.16-9.62-27.24-12.39-30.6-3.08.8,1.6,29.28.56,38.76,0,28.86,8.55,27.57,28.76,40.83-.29.97,5.48-6.13,5.28-5.11-.14.75-5.55,5.6-6.2,11.61-.03.28-.13-.68-.13-.43,0,1.33,3.58,36.27,23.66,45.28-21.88-11.25-23.28-44.01-24.26-45.15-4.23-4.97-8.49-9.29-11.71-12.25-2.92,1.22.87,12.4,1.2,21.96,4.34,30.09,10,26.24,25.88,32.89,4.2,1.76,8.4,3.84,12.52,5.79-1.74-4.29-11.92-30.06-12.54-34.82.02-.01.78,1.24.07,1.81,3.83,13.97,9.06,23.44,12.43,32.66,2.95.07,3.33-3.13,3.7-6.58,5.49,2.03,8.17-4.77,8.5-14.35.5.54,1.49,2.73,2.24.93,8.28-19.68,1.69-42.97-6-62.92-6.63-17.2-7.96,8.58-7.73,14.08.22,4.95,6.48,27.41,7.46,31.78-3.31-8.13-8.42-34.52-11.62-35.12h0ZM135.71,639.67c-5.72-35.07-6.33-48.01.09-7.42.07.47.12,1.75.13,3.12,0,1.76-.06,3.69-.22,4.31,0,0,0,0,0-.01Z"/>
  <path class="cls-2" d="M157.04,459.72c-3.69,2.97-10.93,11.56-13.4,15.13,6.05,27.84-5.12,48.48-5.49,48.07-.89-.98,14.31-24.38,3.94-50.77-.54-1.19-1.19-2.29-1.93-3.31,3.64,1.75,8.54-2.56,12.99-9.47.15.7.84.73,2.42-.44l9.08-6.76c6.83-5.07,16.43-44.91,16.9-47.67,3.06-17.95-11.25,3.44-13.86,8.27-2.34,4.34-9.02,24.47-10.41,28.69,1.3-8.57,10.98-31.51,8.53-33.58-4.08,2.42-12.48,9.91-15.44,13.09,1.86,25.13-8.94,42.78-11.62,46.13-.09-.11-.19-.22-.29-.32,2.35-4.41,16.69-23.91,10.75-48.69,1.27-4.54,5.78-21.18,2.78-24.15-1.95,2.63-16.5,18.76-18.96,22.84-.68,1.13-15.26,32.43-2.91,50.01,0,0,0-.01.01-.01-12.78-20.3,1.33-49.11,2.32-50.17,15.34-16.59,1.6-28.59.34-32.7-3.14-.39-9.76,27.53-14.36,35.87-11.07,26.56-2.72,28.51,10.79,48.12-.63.79,7.39-3.63,6.83-2.77-.42.64-7.26,3.12-10.17,8.41-.13.25.14-.68.05-.44-.52,1.22-10.63,34.69,4.39,50.34-15.81-18.38-4.54-49.04-4.99-50.44-1.99-6.13-4.25-11.66-6.08-15.57-3.15.05-3.95,11.73-7.32,20.65-7.55,29.28-.87,27.81,11.19,39.75,3.19,3.16,6.25,6.61,9.29,9.92.05-4.58.57-32.03,1.83-36.64.03,0,.24,1.43-.63,1.69-1.84,14.27-.66,24.9-1.1,34.61,2.69,1.15,4.27-1.66,5.93-4.7,4.27,3.88,9.35-1.4,13.33-10.09.25.68.32,3.06,1.71,1.68,15.17-15.06,18.04-38.92,18.63-60.09.5-18.25-10.62,4.97-12.52,10.12-1.7,4.63-4.55,27.6-5.33,31.98.08-8.69,5.5-34.86,2.79-36.58h0ZM133.25,462.78c8.2-34.37,12.61-46.5,2.94-6.79-.11.46-.56,1.65-1.08,2.91-.67,1.62-1.47,3.38-1.86,3.89,0,0,0,0,0-.01Z"/>
  <path class="cls-2" d="M204.02,307.9c-4.56,1.4-14.57,6.72-18.23,9.12-5.07,28.03-23.33,43.08-23.52,42.56-.45-1.23,22.62-17.36,23.12-45.63-.04-1.3-.22-2.56-.52-3.78,2.7,2.96,8.89.76,15.67-4.02-.13.71.5.99,2.41.48l11.01-2.94c8.27-2.2,32.45-35.62,33.95-38,9.72-15.52-11.75-.93-16.01,2.59-3.84,3.17-17.75,19.38-20.65,22.78,4.49-7.47,22.26-25.19,20.78-28.01-4.71.75-15.37,4.61-19.33,6.48-7.91,23.98-24.68,36.39-28.45,38.51-.05-.14-.09-.27-.14-.41,3.86-3.23,24.64-16.06,28.63-41.2,2.92-3.74,13.48-17.52,11.84-21.37-2.82,1.72-22.49,11.34-26.33,14.24-1.06.8-26.58,24.47-21.87,45.3,0,0,.01,0,.02,0-4.06-23.5,20.06-45.04,21.38-45.67,20.58-9.76,12.44-25.92,12.85-30.19-2.76-1.51-19.6,21.95-27.06,28-20.45,20.57-13.45,25.44-8.44,48.56-.89.5,8.24-.66,7.39-.07-.64.44-7.92.23-12.65,4.07-.22.18.39-.57.21-.39-.95.94-23.16,28.27-15.23,48.28-7.62-22.83,14.59-47.12,14.71-48.59.51-6.41.53-12.37.34-16.66-2.94-1.11-8.16,9.43-14.7,16.46-18.23,24.38-11.47,25.47-4.87,40.95,1.75,4.1,3.26,8.42,4.81,12.6,1.8-4.23,12.81-29.49,15.74-33.3.03,0-.32,1.41-1.23,1.33-7.17,12.55-10.15,22.84-14.29,31.69,2.05,2.05,4.59.03,7.29-2.18,2.47,5.17,9.2,2.13,16.22-4.47-.03.72-.88,2.95.94,2.18,19.84-8.41,31.65-29.47,40.3-48.89,7.46-16.74-11.75.72-15.48,4.8-3.35,3.67-14.8,23.92-17.2,27.7,3.4-8.03,18.46-30.3,16.61-32.89h0ZM180.8,302.02c20.78-28.86,29.51-38.49,5.32-5.22-.29.39-1.15,1.33-2.12,2.31-1.25,1.26-2.66,2.59-3.22,2.92,0,0,0,0,.01,0Z"/>
  <path class="cls-2" d="M188.65,411.72l-28.72-31.93,17.27-5.71-20.18,6.43-34.95,10.92,2.64-17,12.45-3.62,73.09-23.49-8.31,18.86-25.53,8.14,17.65,19.74-5.41,17.65h0ZM148.87,367.21l16.58-5.12-10.92-12.21-14.16-13.75-5.44,15.13,13.94,15.94Z"/>
  <path class="cls-2" d="M797.11,226.86l42.01-5.39-3.76,16.57,4.61-19.24,8.28-33.72,13.23,11.68-3.14,11.68-16.22,69.12-12.39-15.93,5.82-24.34-25.92,3.26-12.51-13.68h0ZM855.56,219.54l-3.93,15.72,16.03-2.02,18.99-3.73-12.18-12.43-18.92,2.45Z"/>
  <path class="cls-2" d="M881.05,352.32l40.56,12.63-10.73,13.43,12.67-15.49,20.8-25.44,8.47,14.46-8,9.26-42.39,51.16-7.07-14.96,16.02-19.6-25-7.86-5.34-17.6h0ZM937.41,370.06l-10.5,12.59,15.46,4.86,18.91,4.54-5.55-16.9-18.32-5.09Z"/>
  <path class="cls-2" d="M917.08,506.92l34.97,23.73-14.29,9.75,16.77-11.16,27.54-18.33,3.74,16.25-10.43,6.55-60.14,38.85,1.98-18.47,21.21-14.12-21.53-14.69.18-18.35h0ZM965.6,540.08l-13.82,9.01,13.32,9.09,16.7,9.78-2.29-18.38-13.91-9.5Z"/>
  <path class="cls-2" d="M899.59,665.6l23.59,34.64-16.96,3.93,19.79-4.35,32.5-7.15-2.63,16.46-12.17,2.34-65.57,13.76,3.82-15.72,25.04-5.51-14.49-21.41,7.08-17h0ZM932.24,713.88l-16.24,3.41,8.97,13.24,11.85,16.87,7.68-16.85-12.26-16.67Z"/>
  <path class="cls-2" d="M208.26,731.62l-41.36-9.86,9.75-14.12-11.55,16.31-18.95,26.79-9.47-13.85,7.33-9.77,43.4-59.92,4.82,19.4-16.05,21.69,25.49,6.15,6.57,17.19h0ZM150.79,717.73l9.59-13.27-15.77-3.8-19.91-3.61,4.19,15.64,21.9,5.04Z"/>
  <path class="cls-2" d="M169.23,573.5l-35.36-23.18,14.13-9.97-16.59,11.43-27.23,18.77-4.01-16.19,10.33-6.71,60.62-41.49-1.72,20.2-22.06,14.46,21.77,14.35.12,18.35h0ZM120.17,541.12l13.67-9.23-13.47-8.88-18.67-12.7.06,17.63,18.41,13.18Z"/>
  <path class="cls-2" d="M539.82,19.85c257.11,0,466.81,233.82,466.81,520.51s-209.7,520.52-466.81,520.52S73.01,827.05,73.01,540.36,282.71,19.85,539.82,19.85h0ZM542.74,45.48c-243.45,0-442.01,221.91-442.01,493.99s198.56,493.99,442.01,493.99,442.01-221.91,442.01-493.99S786.19,45.48,542.74,45.48Z"/>
  <path class="cls-2" d="M546.72,108.85c203.17,0,368.87,192.89,368.87,429.38s-165.7,429.38-368.87,429.38-368.87-192.88-368.87-429.38S343.56,108.85,546.72,108.85h0ZM546.72,135.58c-190.52,0-345.91,180.88-345.91,402.65s155.39,402.65,345.91,402.65,345.91-180.88,345.91-402.65-155.39-402.65-345.91-402.65Z"/>
  <path class="cls-2" d="M248.92,275.42l-13.22-40.8,17.82,1.4-20.74-1.86-35.87-3.4,9.16-14.78,12.65,1.47,71.41,7.5-11.2,13.34-26.23-2.35,8.08,25.18-11.87,14.29h0ZM230.72,218.64l16.97,1.68-5-15.58-7.31-18.26-10.97,10.2,6.31,21.95Z"/>
  <g>
    <path class="cls-2" d="M495.76,244.08c-1.85-.96-4.42-1.42-6.75-.16-.64.35-2.93,4.55-4.37,5.39-1.44.84-6.61,3.04-7.48,4.55-4.16,7.28-2.79,20.54,2.81,23.12,1.93.89,10.07,11.3,10.07,13.91s-.36,1.31-4.03-2.69c-2.61-2.84-6.87-1.61-8.67.64-2.05,2.55-.95,7.06.36,9.96,1.69,3.75,8.42,6.2,14.73,4.83,4.37-.95,11.13-1.45,11.13-9.27,0-.85-.23-4.58.82-4.5,6.69.51,10.34-2.88,5.04-13.09-.99-1.9.26-2.98,1.81-4.1.19.23-4.2-.67-3.95-.41.66.67,2.81,6.63,4.28,9.34,1.04,1.92,7.08,1.5,8.99,2.12,1.15.37,2.3-.58,2.49-.48,2.06.96,8.71-1.5,11.75-.67-3.59,0-2.86,4.27.63,4.66,3.19.35-2.11,12.73-.78,17.34.44,1.54,5.17-.21,7.24-.45,2.45-.29,9.07-.19,13.43-.09.97.36,2.3.31,3.97.1.04,0,.07,0,.09,0,.8,0,1.47-.11,2.04-.29,6.23-.91,15.89,4.35,29.09,7.82,8.07,2.12,22.5,21.08,24.17,27.48,2.78,10.71,18.67,17.62,27.74,6.51,8.57-10.51,1.16-22.56-10.17-15.04,4.35,5.72,5.4,9.53.3,9.69-9.11.28-4-17.39-2.69-18.49,8.89-7.5-8.85-18.15,5.54-16.51,12.55,1.43,9.29-30.77-4.92-21.27-.88.9,5.57,10.24-.49,9.37-5.48-.79.19-7.28,3.16-18.36.52-1.95-.74-4.02-.18-6.15,1.21-4.62-3.62-11.13-3.99-17.64-.37-6.42-3.01-12.33-5.4-16.58-9.65-17.15-23.58-9.98-40.19,4.06,1.4-4.57,4.69-4.92,8.37-7.02,9.37-5.37-7.56-21.36-19.37-21.48-4.13-.04-17.57,2.38-17.57,7.41,0,1.75,2.14,3.6.81,1.26-9.27-16.36-23.15-13.17-29.93-5.33-3.55,4.11-4.17,10.45-2.6,13.17,1.16,2-2.05-3.13-5.2-3.59-9.98-1.44-15.65,12.35-15.65,18.42,0,.85-5.98-2.99-6.47,2.51h0ZM573.45,257.01c.11-.68.16-1.4.16-2.16,0-1.07,3.64-1.74,6.94-2.35-2.19,1.61-4.68,3.09-7.1,4.51Z"/>
    <path class="cls-2" d="M620.75,255.22c1.17,4.67.93,7.42-1.32,12.84-1.73,4.18,7.99-5.97,2.98-11.49l-1.66-1.35Z"/>
    <path class="cls-2" d="M586.38,245.48c1.25-3.07,4.2-4.13,5.97-6.63,1.06-1.5.82-3.6,2-4.68,9.5-8.65,21.47-6.62,27.34.4,4.34,5.18,11.85,28.34,8.54,40.59-1.46,5.39-5.28,9.95-5.28,13.66,0,3.71,3.81,6.18,6.5,6.65,9.19,1.59,1.14-9.21,2.01-10.09,7.12-8.92,15.48,22.01-.82,18.38-13.87-3.09,4.96,9.64-3.84,16.94-1.29,1.08-6.35,18.28,2.66,18.01,5.04-.15,4-3.86-.3-9.43,11.21-7.33,18.53,4.41,10.06,14.64-8.97,10.82-24.67,4.09-27.43-6.33-.97-3.68-9.51-5.4-9.27-9.14.31-4.83-4.48-4.56-6.9-6.5-4.04-3.24-7.24-7.18-11.43-11.11-3.81-3.57-10.31-3.33-13.79-4.46-12.45-4.04-19.15,1.34-19.15-6.71,0-5.59,5.19-31.4,11.91-36.98,3.1-2.58,10.55-4.18,14.3-7.05,3.75-2.88,3.81-7.04,6.92-10.14Z"/>
    <path class="cls-2" d="M580.5,289.13c8.54,8.32,7.83,12.3,29.51,15.1.51.07-20.23-2.63-27.4-18.68-12.01-15.85-25.26-1.95-26.62,4.48-.75,3.54,2.3,5.78,2.02-.69-.18-4.28,12.67-14.97,22.49-.23Z"/>
    <path class="cls-2" d="M587.71,251.44l.3-.03c5.77-7.02,21.96-14.68,34.61-6.1,6.58,4.46,9.71,23.45,8.13,18.58-8.46-26.08-30.51-22.13-43.04-12.45Z"/>
    <path class="cls-2" d="M612.32,248.51c2.29,4.66,2.71,7.41,1.77,12.83-.72,4.18,6.55-5.96.22-11.48l-1.99-1.35Z"/>
    <path class="cls-4" d="M625.97,260.55c1.17,3.58.92,5.69-1.32,9.85-1.73,3.2,7.99-4.57,2.98-8.81l-1.66-1.03Z"/>
    <path class="cls-2" d="M622.86,320.64c0,.68-1.87,20.44,10.36,17.34"/>
    <path class="cls-2" d="M574.58,291.87c-7.65.43-10.62,8.51-1.77,13.02,3.46,1.76,10.1,5.4,13.04,5.4"/>
    <path class="cls-2" d="M578.72,293.98c-5.88.33-4.96,5.94,1.83,7.49,2.94.67,10.41-.41,10.36,4.29"/>
    <path class="cls-2" d="M615.8,321.03c.23.68,4.97,20.44,16.15,17.34"/>
    <path class="cls-2" d="M609.33,324.1c.23.68-.57,9.71,4.39,11.6"/>
    <path class="cls-2" d="M639.68,303.55c.12,0-8.45,2.09-14.64,2.74-6.19.65-18.34-6.93-25.43-22.99-4.69-10.62-11.69-14.49-21.21-17.07-6.39-1.74-13.41,4.91-16.73,10.6-4.68,8.03-3.49,17.93-7.52,26.47-1.11,2.36.39-65.3,40.6-37.01,8.09,5.7,9.39,27.97,24.37,35.77,4.77,2.48,12.15,2.21,20.56,1.49Z"/>
    <path class="cls-2" d="M618.32,252.73c2.29,4.66,2.71,7.41,1.77,12.83-.72,4.18,6.56-5.96.22-11.48l-1.99-1.35Z"/>
    <path class="cls-2" d="M494.16,242.31c-1.56-1.9-3.43-5.81-7.35-3.72-.73.39-3.32,5.07-4.95,6.01-1.63.94-7.49,3.39-8.47,5.07-4.71,8.12-3.17,22.9,3.19,25.78,2.19.99,11.26,12.61,11.4,15.51.23,4.8-2.48,3.39-6.39-1.72-2.45-3.21-6.19-1.32-7.53,1.01-1.5,2.6-1.21,6.68-.07,9.54,1.69,4.26,7.18,6.28,14.33,4.75,4.95-1.06,12.87-.98,12.87-9.7,0-.94-1.49-7.1,1.72-6.09,3.69,1.17,11.72-2.36,5.7-13.75-1.62-3.06,4.81-3.76,4.73-6.34-.03-.97-1.49-1.87-2.64-3.18-1.93-2.18-3.99-4.72-4.14-4.86-1.91-1.76-5.53-8.87-6.45-13.94-.35-1.94-4.48-5.68-5.96-4.38Z"/>
    <path class="cls-2" d="M498.19,245.01c-22.09-1.88-16,18.05-15.22,15.83.03-.09.11-.06.19,0,.26.74.54,1.04.68.65.09-.27.57.5.5-.07-1.5-12.16,4.93-16.6,13.85-13.48,2.43.85,1.9-2.38.01-2.93h0ZM486.83,248.23c.59-.48,1.24-.87,1.95-1.17-.73.35-1.37.74-1.95,1.17Z"/>
    <path class="cls-2" d="M497.39,282.54c.95,1.26,5.15,2.78,3.83,10.32-.08.43,4.86-7.78-3.83-10.32Z"/>
    <path class="cls-2" d="M502.94,265.41c1.14,1.18,5.58,2.6,5.41,9.65,0,.4,3.67-7.27-5.41-9.65Z"/>
    <path class="cls-2" d="M535.82,282.5c-6.18-1.62-8.75-1.51-13.28.08-2.9,1.02-6.77-3.65-7.09-7.76-.15-1.87,2.07-2.51.85-3.85-2.57-2.81-2.68.27-4.05-1.76-.61-.91-1.91-5.27-4.34-8.21-1.93-2.33-5.22-4.69-5.91-7.41-.5-1.93-4.47-5.3-4.9-7.22-.56-2.47,3.27-3.7,3.27-6.21,0-1.48,7.77.05,7.13-2.14-2.99-10.13,8.45-18.66,14.77-13.82,4.27,3.27,3.4,4.23,2.4.16-4.34-17.53,25.24-23.15,29.06-5.16.1.46.63,2.02,1.15,1.44,16.62-18.8,38.24-1.64,38.48,8.59.18,7.72,3.91,14.83-5.82,22.69-1.46,1.18-12.24,1.82-12.24,3.59,0,7.09-5.11,10.04-9.5,13.58-1.46,1.18-4.38,7.68-4.38,10.63,0,8.27,9.65,23.78-.58,23.78-.65,0-14.03-.43-17.79-.02-8.44.94.14-16.44-4.22-16.44-.73,0-6.65-4.53-2.99-4.53Z"/>
    <path class="cls-2" d="M547.94,282.68c.22,6.89-.11,8.75.72,19.68-2.22-1.35-4.03-10.83-2.64-17.11l1.92-2.57Z"/>
    <path class="cls-2" d="M570.8,222.81c14.91,3.27,18.21,10.32,17.22,16.59-1.27,8.05-9.66,14.8-9.66,10.54,0-.5-.3,0-.3-1,0-.5,16.6-14.68-6.35-22.48-.73-.25-4.87-3.64-.91-3.64Z"/>
    <path class="cls-2" d="M569.22,232.4c15.08,9.55-3.49,27.92-1.7,21.81.12-.4-.19,0,.05-.8.12-.4,8.97-7.16,1.35-18.08-.25-.36-2.17-2.93.3-2.93Z"/>
    <path class="cls-2" d="M533.01,252c9.41-25.18,25.24.96,19.93-.54-.35-.1-.03.24-.74.04-.35-.1-8.25-15.9-16.53.51-.26.52-3.15,3.09-2.66-.01Z"/>
    <path class="cls-2" d="M518.44,246.81c11.13-36.67,48.05-13.03,42.92-13.29-.62-.03.71,1.16-.45.69-24.59-9.83-35.02-4.63-37.15,12.73-.24,1.99-5.35,3.72-5.33-.14Z"/>
    <path class="cls-2" d="M523.89,262.15c20.71,23.67,43.14-2.88,39.17-1.29-.16.07-.2-.04-.21-.18.78-1.04.91-1.63.21-1.35-.48.19.11-1.09-.62-.42-15.7,14.34-29.37,12.21-34.38.16-.66-1.58-5.46-1.45-4.26,1.36-.26.41-.29.98.09,1.72h0ZM541.05,270.4c-1.31-.07-2.55-.3-3.72-.67,1.26.35,2.5.57,3.72.67Z"/>
    <path class="cls-2" d="M552.1,214.46c6.41,3.06-.07,10.1.35,7.87.03-.15-.07,0-.02-.29.03-.15,3.21-2.79-.31-6.52-.12-.12-1-1-.02-1.06Z"/>
    <path class="cls-2" d="M519.66,222.87c5.73.14,6.02,6.2,4.94,4.68-.07-.1-.04.03-.19-.17-.07-.09.06-2.49-3.58-3.6-.24-.07-.5-.14-.78-.2-.15-.03-.97-.31-.39-.71Z"/>
    <path class="cls-2" d="M503.15,257.31c-4.06-5.9-1.91-12.29-.23-15.21,5.99-10.45,25.46-8.88,23.72-8.43-.28.07.51,1.39-.16,1.25-7.81-1.66-18.19,3.83-21.61,10.02-2.83,5.13.34,10.37,2.64,15.66.6,1.39-.38,2.49-4.35-3.29Z"/>
    <path class="cls-2" d="M521.39,267.18c-.2,4.08.1,5.18-.64,11.64,1.97-.8,4.72-6.21,3.5-9.93l-2.86-1.71Z"/>
    <path class="cls-2" d="M516.38,260.09c-3.91,3.31-4.27,4.6-.6,11.64-4.26-.22-5.34-9.28-3.83-13l4.43,1.36Z"/>
    <path class="cls-2" d="M591.24,409.9c0-.7,1.56-6.32,0-6.32-3.12,0-10.13,0-10.13-2.81,0-.98-.38-5.04-.61-7.4,14.98-9.13,24.76-23.98,24.76-40.68,0-27.64-26.77-50.19-59.59-50.19s-59.6,22.55-59.6,50.19c0,21.68,16.47,40.22,39.41,47.22-.3.82-.45,2-.45,3.68,0,2.11.78,12.63-1.56,12.63-3.9,0-9.35-.7-9.35,2.81,0,1.4-2.34,9.12.78,9.12,1.7,0,3.43.13,5.19.36-5.21.87-14.66,3.49-20.49,9.14-5.48,5.31-7.39,13.47-10.61,20.41-3.17,10.86-17.56,25.57-24.71,26.6,14.8,3.51,55.3,1.06,67.76-10.17,2.33-2.1,20.25-12.29,21.03-12.29,19.08,11.21,35.43,2.81,44.41-.35,1.07,2.39,35.76,2.06,37.51-.57,7.68-6.25,7.57-21.52,2.62-26.11-19.89-3.44-38.84-22.28-47.68-20.15.95-.94,1.56-5.34,1.31-5.12Z"/>
    <path class="cls-2" d="M589.7,408.02c0-.7,1.53-6.26,0-6.26-3.05,0-9.91,0-9.91-2.78,0-.97-.37-5-.6-7.34,14.67-9.05,24.24-23.77,24.24-40.34,0-27.41-26.21-49.77-58.35-49.77s-58.35,22.36-58.35,49.77c0,21.5,16.12,39.88,38.58,46.82-.3.81-.44,1.98-.44,3.65,0,2.09.76,12.53-1.52,12.53-3.81,0-9.15-.7-9.15,2.79,0,1.39-2.29,9.05.76,9.05,1.66,0,3.36.13,5.08.35-5.1.86-14.35,3.46-20.06,9.06-5.36,5.27-7.24,13.35-10.39,20.23-3.11,10.77-17.19,25.35-24.19,26.37,14.49,3.48,54.14,1.05,66.34-10.08,1.36-1.24,8.09-5.3,13.49-8.39,3.7-2.12,6.79-3.79,7.1-3.79,18.68,11.12,34.69,2.78,43.48-.34,3.24-3.95,4.33-7.14,8.97-10.64,27.43-20.67,37.1-2.23,18.14,11.32,4.67,0,6.8.86,12.66-.7,5.86-1.56,12.19-22.56-1.07-26.28-13.27-3.71-37.42-22.25-46.08-20.14.93-.94,1.52-5.3,1.28-5.08Z"/>
    <path class="cls-2" d="M545.67,301.09c32.4,0,58.82,22.86,58.82,50.89s-26.42,50.89-58.82,50.89-58.82-22.86-58.82-50.89,26.42-50.89,58.82-50.89Z"/>
    <path class="cls-2" d="M531.4,375.12c1.1,6.8,6.67,16.58,12.92,17.87,5.1,1.06,8.34-.05,13.23,2.1l-.37,17.81c-.04,1.94.72,8.2-2.76,8.1l-36.98-1.06c-.73-.02.16-2.67,3.36-2.84,1.78-.09,3.92.19,5.23.08.44-.04.62.1.89-.09.62-2.73.77-10.06.77-15.18-1.29.85-24.94-10.72-25.33-17.46,16.62.3,25.53-11.4,29.03-9.34Z"/>
    <g>
      <path class="cls-2" d="M496.23,343.56v.22-.22h0ZM496.62,343.9v18.57-18.57h0ZM489.33,342.85v19.97-19.97h0ZM538.41,350.91v9.81-9.81h0ZM531.9,349.86v11.21-11.21h0ZM525.38,348.81v13.32-13.32h0ZM519.24,347.41v15.07-15.07h0ZM513.49,347.06v15.42-15.42h0ZM507.74,345.31v17.52-17.52h0ZM502.37,344.61v17.52-17.52h0ZM483.58,341.79l12.66,1.98,1.26.2,46.68,7.29v9.12l-59.06,3.15-1.53-21.73Z"/>
      <path class="cls-2" d="M496.23,343.56v.22M496.62,343.9v18.57M489.33,342.85v19.97M538.41,350.91v9.81M531.9,349.86v11.21M525.38,348.81v13.32M519.24,347.41v15.07M513.49,347.06v15.42M507.74,345.31v17.52M502.37,344.61v17.52M483.58,341.79l12.66,1.98,1.26.2,46.68,7.29v9.12l-59.06,3.15-1.53-21.73Z"/>
    </g>
    <path class="cls-2" d="M497.28,342.8v.18M497.66,343.09v15.16M490.41,342.23v16.31M539.29,348.81v8.01M532.8,347.95v9.15M526.3,347.1v10.87M520.19,345.95v12.3M514.47,345.66v12.59M508.74,344.23v14.31M503.39,343.66v14.3M488.41,341.84l8.88,1.14,1.25.16,46.49,5.95v7.44l-56.61,2.48v-17.17Z"/>
    <g>
      <path class="cls-2" d="M544.66,348.04c-4.68-1.39-59.26-17.51-59.88-17.12-5.08,3.16-.42,12.05-.36,12.06l60.66,8.56-.42-3.5h0ZM553.57,339.31c-1.13.28-4.04,1.02-6.75,4.28-2.49,2.92-42.44-27.41-47.97-28.72-.61-.14,1.59-8.57,3.53-8.99,1.94-.42,9.21-.42,13.08,1l38.11,32.42h0ZM550.22,360.96c-14.16,10.37-27.94,18.88-45.24,24.78-2.87,1.48-7.92-.07-10.26-1.33-5.89-3.18-8.65-12.88-12-23-.58-1.77,44.67-4.01,61.85-5.77l3.63-.36-1.17.12c-.93-1.14-1.61-2.45-1.96-3.86-.17-.7-.26-1.43-.26-2.17,0-3.74,2.27-7.03,5.68-8.87,1.83-.98,3.98-1.55,6.28-1.55,6.59,0,11.96,4.68,11.96,10.42s-5.37,10.42-11.96,10.42c-1.43,0-2.81-.22-4.09-.63l1.72-1.26-4.18,3.07Z"/>
      <path class="cls-2" d="M544.66,348.04c-4.68-1.39-59.26-17.51-59.88-17.12-5.08,3.16-.42,12.05-.36,12.06l60.66,8.56M553.57,339.31l-38.11-32.42c-3.87-1.42-11.14-1.42-13.08-1-1.94.42-4.14,8.84-3.53,8.99,5.53,1.31,45.48,31.63,47.97,28.72,2.71-3.26,5.63-4,6.75-4.28h0ZM550.22,360.96c-14.16,10.37-27.94,18.88-45.24,24.78-2.87,1.48-7.92-.07-10.26-1.33-5.89-3.18-8.65-12.88-12-23-.58-1.77,44.67-4.01,61.85-5.77l3.63-.36-1.17.12c-.93-1.14-1.61-2.45-1.96-3.86-.17-.7-.26-1.43-.26-2.17,0-3.74,2.27-7.03,5.68-8.87,1.83-.98,3.98-1.55,6.28-1.55,6.59,0,11.96,4.68,11.96,10.42s-5.37,10.42-11.96,10.42c-1.43,0-2.81-.22-4.09-.63l1.72-1.26-4.18,3.07Z"/>
    </g>
    <g>
      <path class="cls-2" d="M544.82,349.08c-4.58-1.33-58.32-16.74-58.92-16.37-4.96,3.02-.42,10.83-.36,10.84l59.99,8.19-.71-2.66h0ZM553.63,340.22c-1.1.27-3.75.81-6.4,3.92-2.44,2.79-41.48-27.48-46.89-28.73-.6-.14.85-6.91,2.75-7.31,1.9-.4,9-.4,12.79.96l37.75,31.17h0ZM549.86,360.75c-13.84,9.91-27.11,18.4-44.02,24.03-2.81,1.42-7.95-.41-10.23-1.61-5.76-3.04-7.96-10.44-11.23-20.11-.57-1.69,43.37-4.33,60.16-6.02l4.04-1.72-1.14.11c-.91-1.09-1.58-2.34-1.91-3.69-.17-.67-.26-1.36-.26-2.08,0-3.57,2.23-6.72,5.56-8.48,1.78-.94,1.1-1.23,5.44-1.23s11.69,4.22,11.69,9.71-5.25,9.96-11.69,9.96c-1.4,0-2.75-.21-3.99-.6l1.68-1.2-4.09,2.93Z"/>
      <path class="cls-2" d="M544.82,349.08c-4.58-1.33-58.32-16.74-58.92-16.37-4.96,3.02-.42,10.83-.36,10.84l59.99,8.19M553.63,340.22l-37.75-31.17c-3.79-1.36-10.89-1.36-12.79-.96-1.9.4-3.35,7.18-2.75,7.31,5.4,1.25,44.45,31.52,46.89,28.73,2.65-3.11,5.3-3.65,6.4-3.92h0ZM549.86,360.75c-13.84,9.91-27.11,18.4-44.02,24.03-2.81,1.42-7.95-.41-10.23-1.61-5.76-3.04-7.96-10.44-11.23-20.11-.57-1.69,43.37-4.33,60.16-6.02l4.04-1.72-1.14.11c-.91-1.09-1.58-2.34-1.91-3.69-.17-.67-.26-1.36-.26-2.08,0-3.57,2.23-6.72,5.56-8.48,1.78-.94,1.1-1.23,5.44-1.23s11.69,4.22,11.69,9.71-5.25,9.96-11.69,9.96c-1.4,0-2.75-.21-3.99-.6l1.68-1.2-4.09,2.93Z"/>
    </g>
    <path class="cls-2" d="M517.94,417.71l-2.31,1.39c-.36,2.03-2.48,6.41.87,8.45,5.81.5,5.81-.6,9.95-.5,22.73.52,52.11-2.87,66.08-12.4,1.33-.91,1.83-3.08,1.83-7.45,0-1.9-.1-1.61-1.43-2.2-7.18-3.18-8.03,12.69-74.98,12.72Z"/>
    <path class="cls-2" d="M526.48,381.36c.68,0,1.24.58,1.24,1.28s-.56,1.28-1.24,1.28-1.24-.57-1.24-1.28.56-1.28,1.24-1.28Z"/>
    <path class="cls-2" d="M530.16,385.72c.68,0,1.24.58,1.24,1.28s-.56,1.28-1.24,1.28-1.24-.57-1.24-1.28.56-1.28,1.24-1.28Z"/>
    <path class="cls-2" d="M534.43,389.56c.68,0,1.24.58,1.24,1.28s-.56,1.28-1.24,1.28-1.24-.58-1.24-1.28.56-1.28,1.24-1.28Z"/>
    <path class="cls-2" d="M539.85,392.71c.68,0,1.24.58,1.24,1.28s-.56,1.28-1.24,1.28-1.24-.57-1.24-1.28.56-1.28,1.24-1.28Z"/>
    <path class="cls-2" d="M545.67,394.28c.68,0,1.24.58,1.24,1.28s-.56,1.28-1.24,1.28-1.24-.58-1.24-1.28.56-1.28,1.24-1.28Z"/>
    <path class="cls-2" d="M551.87,394.8c.68,0,1.24.58,1.24,1.28s-.56,1.28-1.24,1.28-1.24-.58-1.24-1.28.56-1.28,1.24-1.28Z"/>
    <path class="cls-2" d="M552.26,400.04c.68,0,1.24.58,1.24,1.28s-.56,1.28-1.24,1.28-1.24-.58-1.24-1.28.56-1.28,1.24-1.28Z"/>
    <path class="cls-2" d="M552.45,405.45c.68,0,1.24.58,1.24,1.28s-.56,1.28-1.24,1.28-1.24-.58-1.24-1.28.56-1.28,1.24-1.28Z"/>
    <path class="cls-2" d="M552.26,410.52c.68,0,1.24.58,1.24,1.28s-.56,1.28-1.24,1.28-1.24-.57-1.24-1.28.56-1.28,1.24-1.28Z"/>
    <path class="cls-2" d="M586.87,365.67c-5.43,13.79-22.9,15.25-22.9,16.15"/>
    <path class="cls-2" d="M589.98,371.29c-5.42,13.79-22.89,15.25-22.89,16.15"/>
    <path class="cls-2" d="M517.19,415.6l-2.33,1.39c-.36,2.03-2.51,6.41.87,8.44,5.86.51,5.86-.6,10.05-.5,22.96.53,52.62-2.86,66.73-12.4,1.34-.91,1.84-3.08,1.84-7.45,0-1.9-.1-1.61-1.45-2.2-7.25-3.18-8.11,12.69-75.72,12.72Z"/>
    <path class="cls-2" d="M637.79,436.88c-15.16-11.14-34.25-1.15-40.36,5.83-2.97,3.39-9.71,19.92-30.95,14.6"/>
    <path class="cls-2" d="M556.3,344.65c3.21,0,5.83,2.36,5.83,5.26s-2.62,5.25-5.83,5.25-5.83-2.36-5.83-5.25,2.62-5.26,5.83-5.26Z"/>
    <path class="cls-2" d="M556.34,348.12c1.28,0,2.33.94,2.33,2.1s-1.05,2.1-2.33,2.1-2.33-.94-2.33-2.1,1.05-2.1,2.33-2.1Z"/>
  </g>
  <path class="cls-2" d="M869.82,780.37c.92,4.71.91,16.1.49,20.48-22.86,17.74-27.7,41.05-27.14,40.97,1.33-.19,4.84-28.27,30.11-42.07,1.19-.58,2.41-1.01,3.65-1.33-3.96-1-4.94-7.53-3.87-15.8-.58.45-1.13.02-1.59-1.91l-2.62-11.15c-1.97-8.38,16.61-45.61,18.04-48.07,9.35-15.96,6.46,9.98,5.32,15.43-1.02,4.9-9,24.9-10.68,29.08,4.59-7.51,12.08-31.64,15.33-31.66,1.58,4.54,3.19,15.81,3.4,20.21-17.84,18.34-21.02,39.09-21.13,43.44.14-.02.29-.04.44-.06,1.06-4.95,2.7-29.44,23.48-44.86,1.98-4.36,9.35-20.23,13.62-20.6-.21,3.32.52,25.31-.24,30.08-.21,1.32-9.36,35.15-30.4,40.8v-.02c23.14-7.5,31.04-39.07,30.97-40.54-1.04-22.88,17.43-23.29,21.09-25.66,2.69,1.74-10.42,27.76-12.31,37.23-8.77,27.85-16.51,23.94-39.77,30.43-.02,1.02-3.35-7.62-3.47-6.59-.09.77,3.58,7.14,2.38,13.14-.06.28.33-.62.25-.37-.4,1.28-14.42,33.89-36.27,36.32,24.24-4.03,35.53-35.2,36.8-36,5.54-3.48,10.9-6.31,14.87-8.17,2.41,2.09-4.6,11.69-7.82,20.82-13.27,27.69-17.49,22.21-34.62,23.66-4.53.39-9.16,1.09-13.67,1.69,2.95-3.6,20.47-25.29,22.51-29.7-.02-.02-1.12.95-.61,1.73-7.89,12.29-15.75,19.8-21.75,27.65-2.83-.85-2.22-4.06-1.52-7.5-5.84.25-6.32-7.15-3.73-16.5-.64.37-2.24,2.17-2.42.2-1.91-21.57,11.45-42,24.82-58.85,11.53-14.53,4.97,10.77,3.08,16-1.71,4.71-14.5,24.43-16.76,28.34,5.62-6.81,18.51-30.69,21.73-30.27h0ZM886.23,798.19c16.1-32.07,20.6-44.36,2.16-7.19-.22.44-.65,1.65-1.07,2.97-.54,1.7-1.06,3.58-1.1,4.23,0,0,0,0,0-.01Z"/>
  <path class="cls-2" d="M763.11,899.76c-.89,4.71-5.12,15.32-7.13,19.26-27.89,8.44-41.03,28.45-40.48,28.58,1.3.3,14.99-24.63,43.65-28.55,1.32-.11,2.62-.09,3.9.06-3.32-2.33-1.81-8.77,2.25-16.1-.71.21-1.06-.38-.77-2.34l1.69-11.32c1.27-8.5,32.38-36.63,34.63-38.41,14.63-11.56,2.32,11.59-.76,16.27-2.77,4.2-17.61,20.02-20.73,23.32,7.06-5.38,22.98-25.22,26.02-24.09-.21,4.79-2.89,15.87-4.31,20.04-23.43,10.78-34.08,28.99-35.79,33,.14.03.29.07.43.1,2.83-4.24,13.43-26.49,38.51-33.5,3.46-3.36,16.22-15.54,20.33-14.37-1.42,3.02-8.89,23.77-11.38,27.95-.68,1.15-21.75,29.44-43.45,27.26,0,0,0-.01,0-.02,24.35,1.21,43.41-25.43,43.89-26.82,7.5-21.69,24.87-15.53,29.17-16.45,1.86,2.57-20,22.18-25.27,30.34-18.5,22.86-24.26,16.47-48.34,14.28-.4.94-.3-8.29-.8-7.37-.37.69.7,7.92-2.65,13.09-.16.24.54-.46.37-.26-.85,1.06-26.01,26.48-47.27,21.01,24.08,4.83,46.16-20.23,47.64-20.52,6.45-1.28,12.5-2.02,16.88-2.35,1.48,2.8-8.62,9.27-15,16.64-22.63,21.1-24.53,14.5-41.04,9.79-4.36-1.24-8.94-2.23-13.37-3.27,4.09-2.31,28.45-16.33,31.99-19.7,0-.02-1.39.49-1.21,1.39-11.91,8.66-22.02,12.88-30.52,18.07-2.32-1.8-.57-4.57,1.36-7.53-5.54-1.84-3.24-8.91,2.64-16.7-.73.12-2.9,1.23-2.33-.67,6.22-20.78,26.23-35.09,44.95-46.06,16.13-9.46.65,11.8-3.06,16-3.34,3.79-22.57,17.64-26.12,20.48,7.76-4.36,28.62-22.05,31.47-20.52h0ZM771.8,922.19c26.89-24.19,35.65-34.06,4.68-5.93-.36.33-1.21,1.31-2.1,2.39-1.13,1.39-2.32,2.96-2.59,3.56,0,0,0,0,0-.01Z"/>
  <path class="cls-2" d="M620.85,970.41c-2.75,3.96-10.99,12.02-14.45,14.83-29-3.23-49.27,9.92-48.81,10.25,1.07.78,23.85-16.66,51.71-8.98,1.26.41,2.44.95,3.54,1.58-2.08-3.44,1.95-8.74,8.68-13.86-.73-.08-.82-.76.26-2.45l6.21-9.7c4.66-7.29,44.72-20.81,47.51-21.56,18.15-4.83-2.64,11.52-7.38,14.6-4.26,2.76-24.36,11.41-28.57,13.2,8.68-2.14,31.41-14.05,33.73-11.82-2.17,4.3-9.17,13.4-12.2,16.65-25.88.66-43.13,13.15-46.34,16.15.12.08.24.17.35.26,4.33-2.77,23.19-18.98,49.04-15.54,4.55-1.72,21.24-7.86,24.52-5.17-2.54,2.21-17.92,18.27-21.91,21.12-1.11.79-32.03,18.41-51,7.88,0,0,.01,0,.02-.02,21.8,10.68,50.2-6.22,51.22-7.3,15.79-16.91,29.16-4.44,33.47-3.6.64,3.08-27.44,12.45-35.62,17.85-26.34,13.65-28.99,5.54-50.14-5.93-.75.71,3.14-7.71,2.3-7.06-.63.49-2.62,7.53-7.82,10.95-.24.16.68-.21.45-.09-1.21.63-34.7,14.03-51.91.66,20.07,13.89,50.59-.38,52.06-.07,6.43,1.36,12.28,3.06,16.42,4.49.2,3.14-11.71,5.1-20.58,9.34-29.4,10.43-28.42,3.64-41.6-7.16-3.48-2.86-7.27-5.55-10.9-8.25,4.69-.5,32.77-3.76,37.39-5.47,0-.02-1.48-.09-1.68.8-14.47,3.25-25.45,3.14-35.37,4.55-1.38-2.56,1.36-4.41,4.35-6.36-4.32-3.86.7-9.43,9.29-14.26-.71-.18-3.16-.01-1.85-1.53,14.24-16.59,38.45-21.82,60.1-24.51,18.66-2.32-4.26,11.06-9.39,13.45-4.61,2.15-27.92,7.28-32.34,8.49,8.9-.94,35.28-8.94,37.25-6.42h0ZM619.58,994.37c34.57-11.58,46.64-17.17,6.73-3.6-.47.16-1.65.72-2.9,1.36-1.61.83-3.34,1.8-3.83,2.24,0,0,0,0,.01,0Z"/>
  <path class="cls-2" d="M457.58,970.36c-4.38,2.35-15.71,5.99-20.21,7.01-25.15-15.51-49.92-12.53-49.66-12.04.62,1.17,29.71-4.55,51.73,14.44.96.92,1.79,1.91,2.52,2.96-.31-3.99,5.88-6.98,14.45-8.64-.63-.39-.39-1.04,1.38-2.08l10.24-5.99c7.69-4.5,50.82.8,53.74,1.35,18.94,3.56-7.81,9.17-13.6,9.86-5.21.62-27.72-.37-32.43-.59,8.98,1.85,35.44,1.07,36.53,4.07-4,2.91-14.69,8.01-18.99,9.61-24.1-10.67-45.79-6.98-50.14-5.69.07.13.14.26.21.38,5.27-.6,30.18-6.92,52.33,7.4,4.99.44,23.19,2.2,24.95,6.03-3.37.87-25,8.58-30.01,9.39-1.38.23-38.03,2.56-50.56-15.11,0,0,.01,0,.02,0,15.05,19.04,49.05,16.26,50.49,15.72,22.41-8.28,28.88,8.7,32.45,11.33-.85,3.04-31.03-.78-41.08.5-30.59.78-29.24-7.64-43.32-27.11-1.03.31,6.48-5.54,5.41-5.32-.8.16-5.92,5.6-12.3,6.4-.3.04.73.11.45.12-1.41.04-38.45-2.52-48.03-21.98,11.96,21.16,46.68,21.65,47.89,22.58,5.28,4.02,9.86,8.08,13.01,11.16-1.28,2.9-13.15-.52-23.28-.59-31.9-3.44-27.83-9.1-34.9-24.5-1.87-4.07-4.09-8.13-6.16-12.12,4.55,1.59,31.88,10.88,36.93,11.36.01-.02-1.32-.73-1.92-.02-14.82-3.38-24.86-8.26-34.64-11.31-.08-2.89,3.31-3.35,6.96-3.81-2.16-5.33,5.04-8.14,15.2-8.73-.57-.47-2.9-1.38-.99-2.18,20.84-8.66,45.53-2.82,66.69,4.18,18.24,6.04-9.08,8.05-14.91,7.97-5.25-.07-29.07-5.62-33.7-6.46,8.62,3.02,36.6,7.33,37.24,10.45h0ZM445.23,991.26c37.18,4.66,50.89,4.9,7.86-.3-.5-.06-1.85-.07-3.3-.04-1.87.04-3.91.16-4.57.34,0,0,0,0,.01,0Z"/>
  <path class="cls-2" d="M314.04,898.28c.85,4.71,5.04,15.34,7.04,19.29,28.42,8.75,41.62,28.86,41.05,28.98-1.34.28-15.02-24.74-44.3-28.99-1.35-.13-2.68-.12-3.99.01,3.43-2.29,1.96-8.72-2.09-16.08.72.22,1.09-.36.82-2.33l-1.58-11.31c-1.19-8.5-32.66-36.92-34.94-38.72-14.82-11.7-2.53,11.53.56,16.23,2.78,4.22,17.77,20.17,20.91,23.5-7.16-5.44-23.19-25.42-26.31-24.33.16,4.78,2.75,15.86,4.16,20.04,23.84,11.03,34.5,29.32,36.2,33.34-.15.03-.3.06-.44.09-2.84-4.26-13.4-26.58-38.97-33.86-3.5-3.4-16.39-15.69-20.61-14.58,1.41,3.03,8.79,23.81,11.28,28.01.69,1.16,21.88,29.62,44.11,27.71,0,0,0-.01,0-.02-24.93.91-44.09-25.88-44.57-27.27-7.4-21.72-25.26-15.79-29.64-16.75-1.93,2.54,20.18,22.36,25.47,30.56,18.63,23.01,24.62,16.71,49.29,14.82.4.95.41-8.26.91-7.34.37.69-.81,7.89,2.55,13.09.16.24-.55-.47-.38-.26.85,1.06,26.27,26.72,48.09,21.51-24.71,4.53-46.98-20.73-48.49-21.04-6.59-1.36-12.77-2.17-17.25-2.54-1.55,2.77,8.7,9.35,15.14,16.77,22.88,21.32,24.91,14.76,41.86,10.26,4.48-1.19,9.17-2.12,13.72-3.1-4.15-2.35-28.91-16.62-32.48-20.03,0-.02,1.42.51,1.22,1.4,12.08,8.78,22.36,13.11,30.99,18.38,2.4-1.77.64-4.55-1.3-7.53,5.69-1.77,3.43-8.84-2.49-16.69.74.12,2.95,1.26,2.39-.64-6.09-20.8-26.39-35.3-45.4-46.47-16.38-9.63-.81,11.76,2.93,16,3.37,3.81,22.87,17.86,26.47,20.74-7.88-4.44-29.01-22.33-31.94-20.84h0ZM304.86,920.54c-27.2-24.44-36.04-34.38-4.71-5.97.37.33,1.22,1.32,2.11,2.41,1.14,1.4,2.34,2.98,2.61,3.58,0,0,0,0,0-.01Z"/>
  <path class="cls-2" d="M210.21,777.96c-.77,4.61-.42,15.74.12,20.01,23.32,17.04,28.85,39.76,28.29,39.69-1.33-.17-5.68-27.56-31.27-40.72-1.2-.55-2.44-.96-3.68-1.25,3.92-1.03,4.69-7.42,3.38-15.49.59.43,1.13,0,1.52-1.89l2.28-10.93c1.71-8.21-17.93-44.36-19.44-46.74-9.8-15.47-6.14,9.84-4.84,15.15,1.16,4.77,9.72,24.21,11.52,28.28-4.8-7.28-12.99-30.76-16.23-30.75-1.43,4.45-2.71,15.5-2.78,19.79,18.34,17.69,22.13,37.93,22.37,42.17-.15-.02-.29-.04-.44-.05-1.21-4.83-3.57-28.74-24.75-43.54-2.1-4.24-9.93-19.65-14.19-19.95.31,3.24.24,24.74,1.15,29.4.25,1.29,10.39,34.22,31.53,39.48,0,0,0-.01,0-.02-23.3-7.03-32.12-37.79-32.09-39.22.35-22.36-18.07-22.53-21.79-24.81-2.63,1.73,11.22,26.99,13.39,36.23,9.58,27.11,17.18,23.19,40.56,29.23.05,1,3.11-7.49,3.26-6.48.12.75-3.36,7.02-1.97,12.87.07.27-.35-.6-.26-.36.44,1.25,15.4,32.94,37.25,35.03-24.28-3.63-36.47-33.95-37.77-34.71-5.63-3.33-11.06-6.03-15.07-7.79-2.34,2.07,4.94,11.37,8.42,20.24,14.06,26.88,18.1,21.48,35.22,22.68,4.53.32,9.16.94,13.68,1.47-3.05-3.48-21.17-24.45-23.34-28.73.02-.02,1.14.92.66,1.68,8.24,11.91,16.29,19.15,22.51,26.74,2.79-.87,2.09-3.99,1.29-7.35,5.83.17,6.08-7.07,3.22-16.18.64.35,2.3,2.1,2.42.16,1.25-21.11-12.67-40.89-26.52-57.19-11.93-14.05-4.63,10.58-2.58,15.68,1.84,4.58,15.19,23.69,17.55,27.48-5.8-6.59-19.37-29.76-22.57-29.3h0ZM194.39,795.59c-17.01-31.13-21.87-43.09-2.37-7,.23.42.69,1.6,1.15,2.89.59,1.65,1.17,3.49,1.22,4.12,0,0,0,0,0-.01Z"/>
  <path class="cls-2" d="M830.1,808.76l11.08,40.18-17.36-1.55,20.18,2.03,33.14,3.34-7.86,14.79-12.3-1.57-70.62-8.07,12.72-13,25.53,2.57-6.77-24.8,12.25-13.91h0ZM845.33,864.68l-16.51-1.82,4.19,15.34,6.32,18,12.54-11.6-6.54-19.92Z"/>
  <path class="cls-2" d="M720.25,911.54l-4.52,41.38-15.61-7.58,18.07,9.03,29.67,14.82-12.79,11.01-10.88-5.81-65.57-33.94,19.37-6.16,22.85,11.41,2.86-25.51,16.56-8.65h0ZM713.78,969.07l-14.72-7.53-1.77,15.78-.76,19.02,16.12-6.89,1.13-20.38Z"/>
  <path class="cls-2" d="M579.19,959.97l-28.79,37.2-9.45-14.32,10.8,16.79,17.75,27.56-16.75,3.07-6.31-10.43-36.97-59.01,18.24,1.45,13.67,21.23,15.8-21.21,22.01-2.34h0ZM540.28,1010.06l-8.71-13.83-9.77,12.68-12.41,18.44,18.14,1.26,12.75-18.55Z"/>
  <path class="cls-2" d="M427.39,940.61l-44.63,20.29-1.53-16.97,1.54,19.78,2.54,32.47-16.28-4.93-.6-12.11-4.45-70.72,15.36,10.56,1.96,25.72,26.29-12.34,19.8,8.24h0ZM367.65,967.68l-1.1-16.21-14.7,6.76-20.62,9.99,15.27,9.7,21.15-10.24Z"/>
  <path class="cls-2" d="M292.28,852.26l-42.36,4.12,4.41-16.48-5.35,19.13-9.87,33.89-12.55-12.47,3.6-11.6,21.22-72.27,10.96,17.75-8.21,26.32,26.13-2.47,12.04,14.08h0ZM233.35,857.8l4.54-15.62-16.17,1.53-21.37,2.44,10.32,13.6,22.68-1.94Z"/>
  <path class="cls-3" d="M335.95,669.43c.09,4.4-.38,8.05,4.96,7.81,11.13-2.87,5.33,19.18-.71,15.97l-1.5,2.79c-.88,2.9-1.04,12.15.05,19.42l1.38,2.91c6.42-.12,7.56,11.34,8.02,11.57.25,5.28-.77,10.58-.26,14.63.33,2.57,2.83-1.87,2.82,2.51.37,1.81-.76,4.28-.22,6.04l3.17,1.52c.98,1.03,8.39.35,9.87.35,0,1.86-.53,3.13,0,4.89l.05,4.41c4.79,1.34,9.65.62,15.24.32,2.07-.11,1.72-2.45,2.49-2.3,3.26.65,6.73.23,8.1-.88.45-1.86.21-4.31-.4-7.81-2.95-3.07-3.09-.56-7.19-2.08.27-2.01-.73-2.89.67-2.37,5.02,1.08,2.65-5.8,2.23-6.83-5.84.69-18.81,2.33-19.06-1.9l-5.05-3.94c-1.68-11.29-3.32-25.55.67-36.73-.48-3.84,1.76-4.43,2.67-6.61,16.82-21.24,7.98-61.48-14.07-63.35"/>
  <path class="cls-3" d="M759.08,666.75c-.09,4.4-.24,8.6-5.59,8.36-11.13-2.87-5.33,19.18.71,15.97l1.5,2.79c.88,2.9,1.04,12.15-.05,19.42l-1.39,2.91c-6.42-.12-7.56,11.34-8.02,11.57-.25,5.28.77,10.58.25,14.63-.33,2.57-2.83-1.87-2.82,2.51-.37,1.81.76,4.28.22,6.04l-3.17,1.52c-.98,1.03-8.39.35-9.87.35,0,1.86.53,3.13,0,4.89l-.05,4.41c-4.79,1.34-9.65.62-15.24.31-2.07-.11-1.72-2.45-2.49-2.3-3.26.65-6.74.23-8.1-.88-.45-1.86-.21-4.31.39-7.81,2.95-3.07,3.09-.56,7.2-2.08-.27-2.01.73-2.88-.67-2.37-5.02,1.08-2.65-5.8-2.23-6.83,5.84.69,18.81,2.33,19.06-1.9l5.05-3.94c1.68-11.29,3.32-25.55-.68-36.73.48-3.84-1.76-4.43-2.67-6.61-16.82-21.24-9.39-59.88,12.66-61.76"/>
  <path class="cls-2" d="M638.33,499.69v221.4c-3.79,14.42-17.21,25.16-33.07,25.16h-43.91l-13.88,8.56-1.24-.81v-254.31h92.09Z"/>
  <path class="cls-2" d="M545.17,499.69v253.61l-10.83-7.05h-51.41c-18.77,0-34.14-15.05-34.14-33.45,0-71.05.75-142.15.75-213.11h95.62Z"/>
  <path class="cls-2" d="M537.06,465.34h142.09v274.75h0c0,23.72-21.74,43.12-48.32,43.12h-62.15l-19.65,11.03-18.59-11.03h-72.77c-26.58,0-48.32-19.4-48.32-43.12,0-91.59,1.06-183.27,1.06-274.75h68.09M638.8,713.85v-209.41h-188.32c0,69.73-.74,139.59-.74,209.41,0,18.08,15.24,32.86,33.86,32.86h51l13.03,8.41,13.77-8.41h43.55c18.62,0,33.86-14.79,33.86-32.86Z"/>
  <path class="cls-1" d="M424.92,741.61l-.74-4.81,15.02-2.8c.62-.11,1.05-.29,1.28-.51.25-.25.34-.58.27-.99-.13-.82-.76-1.12-1.92-.9l-15.02,2.8-.74-4.8,15.02-2.8c1.74-.32,3.17-.07,4.29.76,1.1.81,1.8,2.26,2.12,4.34.27,1.76.12,3.2-.45,4.32-.68,1.34-2.05,2.21-4.12,2.59l-15.02,2.8h0ZM420.39,710.66l20.48.16-.03,5.14-11.38,2.46c.77-.04,1.65-.1,2.66-.18.86-.08,1.69-.12,2.48-.11l6.23.05-.03,4.85-20.48-.16.03-5.16,10.13-2.52c-.76.05-1.55.11-2.36.18-1.26.11-2.16.16-2.69.16l-5.07-.04.03-4.82h0ZM440.89,708.1l-20.48-.16.03-4.86,20.48.16-.03,4.86h0ZM420.53,689.57l20.47,3.2-.04,6.24-20.51,2.82.03-4.69,5.43-.67c.67-.08,2.62-.26,5.85-.55l1.5-.13-1.53-.15c-2.97-.28-4.92-.47-5.85-.58l-5.38-.72.03-4.78h0ZM441.02,688.49l-20.48-.16.06-9.96,3.99.03-.03,5.08,3.18.03.03-4.89,3.92.03-.03,4.88,5.39.04.03-5.28,4.01.03-.07,10.16h0ZM441.09,676.37l-20.48-.16.04-6.95c.01-1.95.49-3.34,1.44-4.18.79-.69,2.06-1.02,3.82-1.01,1.98.01,3.27.35,3.88,1.01.31.32.52.76.65,1.33.12-.59.36-1.03.72-1.32.29-.22.63-.37,1.01-.46.32-.07.84-.11,1.56-.1l7.43.06-.03,4.83-7.34-.06c-.81,0-1.35.1-1.62.3-.33.27-.5.71-.5,1.3,0,.11,0,.27.01.46l9.44.07-.03,4.86h0ZM428.01,671.41v-.97c.01-1.13-.55-1.69-1.68-1.7-.45,0-.85.07-1.2.21-.47.2-.71.67-.72,1.4v1.04s3.6.03,3.6.03h0ZM433.89,662.25l.03-4.73h1.41c.95.02,1.59-.08,1.9-.27.34-.22.52-.54.52-.97,0-.91-.61-1.38-1.83-1.39-.61,0-1.12.11-1.55.32-.34.16-.62.37-.87.62-.21.22-.74.87-1.58,1.96-1.24,1.6-2.19,2.66-2.86,3.19-1.11.88-2.32,1.31-3.63,1.3-2.1-.02-3.54-.87-4.35-2.56-.45-.92-.66-2.08-.65-3.47.01-1.56.29-2.89.85-3.96.67-1.29,1.84-1.95,3.51-1.99,1.12-.02,1.76-.04,1.91-.05l-.03,4.75c-.24-.01-.48-.02-.71-.02-1.14,0-1.71.41-1.72,1.25,0,.37.13.67.4.89.22.18.46.27.72.27.4,0,.8-.16,1.2-.5.29-.24,1.02-1.1,2.18-2.6l.51-.66c1.05-1.37,1.92-2.27,2.62-2.73.9-.61,2.16-.91,3.79-.9,3.95.03,5.9,2.13,5.88,6.31-.01,2.14-.53,3.75-1.55,4.8-.61.62-1.41,1-2.39,1.12-.31.04-1.06.06-2.24.05h-1.46ZM441.28,647.91l-20.48-.16.03-4.86,20.48.16-.03,4.86h0ZM441.33,640.33l-20.48-.16.04-5.68c.02-1.89.19-3.17.52-3.84.46-1.09,1.22-1.83,2.27-2.21.84-.3,2.42-.45,4.74-.44l5.54.04c2.56.03,4.15.22,4.77.57.92.44,1.59,1.11,2.02,2.04.43.92.64,2.15.63,3.67l-.04,6.01h0ZM437.44,635.48v-1.01c0-.43-.08-.77-.26-1.02-.15-.22-.33-.36-.57-.42-.32-.09-.77-.14-1.37-.14l-8.28-.07c-.91,0-1.51.1-1.79.29-.36.23-.54.67-.55,1.32v.96s12.81.1,12.81.1h0ZM441.46,618.81l-2.91.24-.02,2.62,2.9.47-.03,4.7-20.46-3.34.04-6.5,20.51-3.02-.03,4.83h0ZM434.66,621.27v-1.82s-2.04.18-2.04.18c-4.82.37-7.65.57-8.5.63,2.56.21,5.38.48,8.44.8l2.1.21h0ZM441.5,612.62l-20.48-.16.04-5.68c.02-1.89.19-3.17.52-3.84.46-1.09,1.22-1.83,2.26-2.21.84-.31,2.42-.45,4.74-.45l5.54.04c2.56.03,4.15.22,4.77.57.92.43,1.59,1.11,2.02,2.04.43.92.64,2.15.63,3.67l-.04,6.01h0ZM437.61,607.77v-1.01c.01-.43-.08-.77-.26-1.02-.15-.22-.34-.37-.57-.42-.32-.09-.77-.14-1.37-.14l-8.28-.06c-.91,0-1.51.1-1.79.29-.36.23-.54.67-.55,1.32v.96s12.81.1,12.81.1h0ZM421.32,565.24l20.48.16-.03,5.13-11.38,2.46c.77-.04,1.65-.1,2.66-.18.86-.08,1.69-.12,2.48-.11l6.23.05-.03,4.84-20.48-.16.03-5.16,10.13-2.51c-.76.04-1.55.11-2.36.18-1.26.11-2.16.16-2.69.16l-5.07-.04.03-4.82h0ZM441.86,555.6l-2.91.24-.02,2.62,2.91.47-.03,4.7-20.47-3.34.04-6.5,20.51-3.02-.03,4.83h0ZM435.06,558.06v-1.82s-2.04.18-2.04.18c-4.82.36-7.65.57-8.5.63,2.57.21,5.38.48,8.44.79l2.1.21h0ZM433.01,541.96l.03-4.9,3.71.03c1.95.01,3.39.64,4.33,1.87.8,1.08,1.2,2.52,1.19,4.32-.01,2.46-.72,4.18-2.1,5.18-.74.52-1.56.82-2.47.89-.54.04-1.2.06-2,.05l-8.56-.07c-1.75-.01-3-.27-3.74-.77-1.52-1.03-2.27-2.92-2.25-5.66.03-3.95,1.86-5.91,5.5-5.88l2.63.02-.03,4.9h-2.07c-.81-.02-1.36.04-1.64.15-.39.18-.59.53-.6,1.06,0,.58.22.96.67,1.17.25.11.77.17,1.55.18l8.56.07c1.02,0,1.68-.07,1.98-.22.4-.19.6-.54.61-1.04,0-.54-.21-.91-.65-1.12-.28-.12-.92-.19-1.92-.2l-2.73-.02h0ZM441.99,535.1l-20.48-.16.03-4.86,20.48.16-.03,4.86h0ZM437.18,527.71l-10.25-.08c-2.28-.02-3.86-.8-4.76-2.35-.59-1.02-.89-2.3-.88-3.85.03-4.11,1.93-6.14,5.72-6.11l10.52.08c1.58.01,2.8.62,3.67,1.84.8,1.14,1.2,2.6,1.19,4.4-.01,2.13-.61,3.74-1.79,4.85-.87.83-2.01,1.23-3.41,1.22h0ZM435.74,520.25l-8.45-.07c-.98,0-1.62.09-1.91.29-.28.2-.42.51-.43.96,0,.4.11.71.35.94.31.27.96.4,1.96.41l8.53.07c.88,0,1.47-.05,1.77-.17.52-.2.79-.6.79-1.17,0-.5-.21-.84-.64-1.03-.29-.13-.95-.2-1.98-.21h0ZM421.72,500.6l20.49.16-.03,5.13-11.38,2.46c.77-.04,1.65-.1,2.66-.18.86-.08,1.69-.12,2.48-.11l6.23.05-.03,4.85-20.48-.16.03-5.16,10.13-2.51c-.76.04-1.55.11-2.36.18-1.26.11-2.16.16-2.69.16l-5.07-.04.03-4.82h0ZM442.27,490.96l-2.91.24-.02,2.62,2.91.47-.03,4.7-20.47-3.34.04-6.5,20.5-3.02-.03,4.83h0ZM435.48,493.42v-1.82s-2.04.18-2.04.18c-4.82.36-7.65.57-8.5.63,2.56.21,5.38.48,8.44.79l2.1.21h0ZM442.31,484.78l-20.49-.16.03-4.84,16.45.12.03-4.97,4.04.03-.06,9.82Z"/>
  <path class="cls-1" d="M449.84,495.59v-21.54h6.38c2.12.01,3.56.18,4.31.52,1.22.48,2.06,1.27,2.51,2.36.35.88.53,2.54.54,4.98v5.83c-.01,2.69-.21,4.36-.6,5.02-.48.97-1.24,1.68-2.27,2.14-1.04.46-2.41.69-4.12.69h-6.75ZM455.25,491.47h1.14c.48,0,.86-.1,1.15-.28.25-.16.41-.35.47-.6.09-.34.15-.82.15-1.44v-8.71c-.01-.96-.13-1.58-.34-1.88-.26-.38-.76-.56-1.48-.56h-1.08v13.47Z"/>
  <path class="cls-1" d="M518.58,495.1v-21.54h5.87v7.29h3.07v-7.29h5.83v21.54h-5.83v-10.13h-3.07v10.13h-5.87ZM536.47,473.56h5.83v16.02c0,.66.11,1.13.32,1.41.24.3.61.44,1.11.44.99,0,1.49-.61,1.49-1.85v-16.02h5.82v16.02c0,1.86-.62,3.3-1.84,4.32-1.2,1.01-3.06,1.51-5.58,1.51-2.14,0-3.8-.38-4.99-1.15-1.44-.91-2.15-2.48-2.15-4.68v-16.02h0ZM562.25,495.1l-.32-3.06h-3.13l-.53,3.06h-5.62l3.8-21.54h7.77l3.8,21.54h-5.77ZM559.24,487.97h2.17l-.23-2.16c-.48-5.06-.76-8.04-.83-8.93-.23,2.7-.52,5.66-.87,8.88l-.23,2.21h0ZM584.22,473.56v21.54h-6.14l-3.04-11.95c.05.81.13,1.74.24,2.79.1.9.15,1.77.15,2.6v6.55h-5.79v-21.54h6.17l3.1,10.64c-.06-.8-.14-1.63-.24-2.48-.14-1.33-.22-2.27-.22-2.83v-5.33h5.76ZM587.33,473.56h5.83v16.02c0,.66.11,1.13.32,1.41.24.3.61.44,1.11.44.99,0,1.49-.61,1.49-1.85v-16.02h5.82v16.02c0,1.86-.62,3.3-1.84,4.32-1.2,1.01-3.06,1.51-5.58,1.51-2.14,0-3.8-.38-4.99-1.15-1.44-.91-2.15-2.48-2.15-4.68v-16.02h0ZM613.58,485.7h5.85v3.9c0,2.05-.73,3.57-2.19,4.56-1.28.85-3,1.28-5.14,1.28-2.95,0-5.01-.73-6.21-2.18-.63-.77-1-1.63-1.09-2.59-.06-.57-.08-1.27-.08-2.1v-9.01c0-1.84.3-3.16.89-3.93,1.22-1.6,3.46-2.4,6.75-2.4,4.72,0,7.08,1.92,7.08,5.75v2.76h-5.85v-2.18c0-.86-.07-1.43-.22-1.72-.22-.41-.64-.62-1.27-.62-.69,0-1.15.24-1.39.71-.13.26-.19.81-.19,1.63v9.01c0,1.07.09,1.77.28,2.08.24.42.65.63,1.25.63.65,0,1.09-.23,1.33-.7.14-.3.22-.97.22-2.02v-2.87h0ZM621.81,489.99v-10.78c0-2.39.92-4.06,2.77-5.02,1.21-.63,2.75-.95,4.59-.95,4.91,0,7.36,1.99,7.36,5.97v11.06c0,1.66-.72,2.95-2.17,3.87-1.35.85-3.09,1.27-5.25,1.27-2.55,0-4.48-.61-5.82-1.85-.99-.91-1.48-2.1-1.48-3.58h0ZM630.72,488.43v-8.88c0-1.03-.12-1.7-.36-2.01-.23-.3-.62-.44-1.15-.44-.48,0-.84.12-1.11.38-.32.33-.47,1.02-.47,2.07v8.96c0,.93.07,1.55.22,1.86.25.55.72.82,1.41.82.59,0,1-.23,1.23-.68.16-.31.24-1,.24-2.09Z"/>
  <path class="cls-1" d="M648.4,484.76l21.25-.04v5s-7.18.01-7.18.01v2.62s7.19-.01,7.19-.01v4.97s-21.24.04-21.24.04v-4.97s9.98-.02,9.98-.02v-2.62s-10,.02-10,.02v-5h0ZM648.43,501.93l21.25-.04.02,10.14h-4.14s-.01-5.17-.01-5.17h-3.3s.01,4.98.01,4.98h-4.07s-.01-4.96-.01-4.96h-5.59s.01,5.38.01,5.38h-4.16s-.02-10.33-.02-10.33h0ZM648.45,516.09l21.25-.04v7.08c.02,1.98-.47,3.4-1.44,4.26-.81.71-2.13,1.06-3.95,1.06-2.06,0-3.4-.33-4.04-.99-.32-.32-.55-.77-.69-1.34-.12.6-.37,1.05-.74,1.35-.3.23-.65.38-1.04.47-.33.08-.87.12-1.62.12h-7.7s0-4.9,0-4.9h7.61c.84-.02,1.4-.13,1.68-.34.35-.28.52-.72.51-1.33,0-.11,0-.27-.02-.47l-9.79.02v-4.95h0ZM662.07,521.02v.99c0,1.14.59,1.72,1.76,1.71.47,0,.88-.08,1.24-.22.49-.21.73-.69.73-1.43v-1.06s-3.74,0-3.74,0h0ZM669.77,552.04l-21.25.04v-4.93s9.5-.01,9.5-.01c1.37.04,3.62.15,6.76.33l-16.28-2.96v-4.44s16.19-2.94,16.19-2.94c-1.23.06-2.27.11-3.15.16-1.82.1-3.02.15-3.63.15l-9.43.02v-4.91s21.24-.04,21.24-.04v7.81s-6.4,1.18-6.4,1.18c-1.58.27-3.53.54-5.86.78,2.56.27,4.52.53,5.89.78l6.32,1.14.08,7.84h0ZM648.52,556.67l21.25-.04v4.95s-21.24.04-21.24.04v-4.95h-.01ZM648.54,566.21l21.25-.04v4.93s-17.05.03-17.05.03v5.06s-4.18,0-4.18,0l-.02-9.99h0ZM648.57,579.87l21.25-.04v4.95s-21.24.04-21.24.04v-4.95h-.01ZM653.63,589.17l10.63-.02c2.36,0,4.01.78,4.96,2.35.62,1.03.94,2.34.94,3.91,0,4.18-1.95,6.27-5.87,6.28l-10.92.02c-1.64,0-2.91-.61-3.82-1.85-.84-1.15-1.26-2.63-1.27-4.46,0-2.17.6-3.82,1.81-4.95.89-.85,2.07-1.27,3.53-1.27h0ZM655.18,596.75h8.77c1.02-.02,1.67-.12,1.98-.32.29-.2.43-.53.43-.98,0-.41-.13-.72-.37-.95-.33-.27-1-.4-2.04-.4l-8.84.02c-.91,0-1.53.07-1.84.19-.54.22-.81.62-.81,1.2,0,.51.22.85.67,1.04.3.13.99.2,2.06.2h0ZM669.92,637.69l-21.25-3.06v-6.35s21.23-3.07,21.23-3.07v4.77s-5.61.74-5.61.74c-.69.09-2.71.29-6.07.61l-1.56.15,1.59.14c3.08.25,5.11.43,6.07.53l5.59.68v4.86h0ZM648.69,647.42l3.02-.28v-2.66s-3.02-.45-3.02-.45v-4.78s21.25,3.2,21.25,3.2v6.62s-21.23,3.27-21.23,3.27v-4.91h0ZM655.72,644.85v1.85s2.13-.2,2.13-.2c4.99-.42,7.93-.66,8.81-.72-2.66-.19-5.59-.43-8.76-.73l-2.18-.2h0ZM648.7,655.55l21.25-.04v4.93s-17.05.03-17.05.03v5.06s-4.18,0-4.18,0l-.02-9.99h0ZM648.73,669.2l21.25-.04v5.78c0,1.92-.16,3.23-.5,3.91-.47,1.11-1.25,1.87-2.33,2.27-.87.32-2.51.48-4.91.5h-5.75c-2.66,0-4.31-.17-4.95-.52-.96-.43-1.66-1.12-2.11-2.05-.45-.94-.68-2.18-.69-3.73v-6.12h-.01ZM652.8,674.1v1.03c0,.44.1.78.29,1.04.15.22.35.37.59.42.33.09.8.13,1.42.13l8.59-.02c.95-.01,1.56-.12,1.86-.31.37-.24.56-.69.55-1.35v-.98s-13.29.02-13.29.02h0ZM648.76,686l21.25-.04v4.95s-21.24.04-21.24.04v-4.95h-.01ZM648.79,705.8l-.02-10.93h4.05s13.09,5.98,13.09,5.98v-5.89s4.11,0,4.11,0l.02,11.4h-3.89s-13.21-6.08-13.21-6.08v5.52s-4.15,0-4.15,0h0ZM648.81,716.76l3.02-.28v-2.66s-3.02-.45-3.02-.45v-4.78s21.24,3.2,21.24,3.2v6.62s-21.23,3.27-21.23,3.27v-4.91h-.01ZM655.84,714.19v1.85s2.13-.2,2.13-.2c4.99-.42,7.93-.66,8.81-.72-2.66-.19-5.59-.43-8.76-.73l-2.18-.2h0ZM670.1,737.26l-21.25.04v-5.23s11.77-2.61,11.77-2.61c-.8.05-1.72.12-2.76.21-.89.09-1.75.13-2.56.13h-6.46s0-4.92,0-4.92l21.25-.04v5.25s-10.48,2.66-10.48,2.66c.79-.06,1.6-.12,2.44-.21,1.31-.12,2.24-.19,2.79-.19h5.26s.01,4.89.01,4.89Z"/>
  <path class="cls-2" d="M482.41,631.12c7.85-11.45,16.77-23.59,20.65-33.28,4.4-10.98,30.12,1.82,20.63,12.33-9.44,10.45-16.77,15.32-23.28,34.64-.04.13-.6,8.78-1.96,11.21-2.9,5.18-5.61,11.19-10.52,13.54-1.8.87-2.05,2.23-3.84.49-2.42-2.36-1.98,2.13-8.26,3.26-2.44.44-2.54-3.04-3.2-3.27-2.63-.94-4.3,6.99-7.57.14-.41-.85-.22-2.96-.2-.43.01,2.1-7.08-1.11-6.08-3.59,2.98-7.45,1.78-5.4,1.37-6.25-1.3-2.73-1.25-2.21-1.06-4.29.31-3.49,3.34-9.45,5.27-12.9,3.35-6.21,19.65-12.8,18.04-11.6Z"/>
  <path class="cls-2" d="M460.92,660.35c2.67-3.55,6.27-8.95,9.4-11.68"/>
  <path class="cls-2" d="M464.92,667.61c.34-3.02,5.55-8.49,9.59-14.7"/>
  <path class="cls-2" d="M471.84,670.1c3.01-3.53,5.46-6.12,7.9-11.62"/>
  <path class="cls-2" d="M483.45,670.37c-1.42-3.88,3.79-6.13,3.47-10.95"/>
  <path class="cls-2" d="M496.83,640.81c-4.39-8.98-15.38-24.25-23.14-31.58-8.79-8.3,14.15-25.17,20.39-12.68,6.21,12.42,7.9,20.73,23.87,34.28.11.09,8.25,4.11,10.02,6.3,2.82,3.49,9.85,10.4,8.99,15.04-.35,1.88,1.07,2.26-1.35,3.08-3.27,1.11,1.24,2.59-.25,8.45-.58,2.28-3.98.94-4.48,1.41-1.99,1.88,5.22,5.41-2.98,6.69-.98.15-2.94-1.14-.5-.12,2.03.85-5.85,4.59-7.08,3.29-5.72-4.82-3.86-3.17-4.86-3.17-3.17,0-5.29.59-6.43-1.19-1.85-2.91-4.97-7.93-7.5-11.01-.74-3.28-5.21-20.66-4.71-18.78Z"/>
  <path class="cls-2" d="M516.21,671.21c-.86-3.66-5.35-8.22-6.66-11.95"/>
  <path class="cls-2" d="M526.02,671.32c-1.97-2.18-8.71-9.88-9.79-14.06"/>
  <path class="cls-2" d="M530.61,665.35c-2.99-3.34-5.65-7.57-9.68-11.01"/>
  <path class="cls-2" d="M535.57,655.74c-3.33-.35-6.02-6.21-8.96-7.08"/>
  <path class="cls-2" d="M485.19,612.4c0,15.75,20.6,19.47,20.6,35.14,0,1.41.25.47-.75-.23"/>
  <path class="cls-2" d="M567.8,610.47c-.15-1.19-.3-2.35-.44-3.49-.85-6.98-1.27-13.19,2.51-19.92.23-.4-1,8.3,2.75,8.38-2.35-6.45,2.03-17,12.04-21.29,5.21-2.87.09-17.61.12-16.55.05,2.48,8.95,7.08,7.68,14.03-.35,1.92,3.02-5,3.33-4.64,1.99,3.03-1.34,11.94-.69,11.91,4.1-.19,7.54,5.39,8.72,7.77,5.27,10.68-2.16-16.41,1.84-6.66,1.69,4.14,3.56,8.42,4.3,12.89.82,4.91.85,10.06-.35,15.25l-.75,3.24-16.87-1.18-24.19.28h0ZM574.86,609.38c-.03.09.69.56,1.99.57l24.01.29.64-1.12c.86-3.69,1.07-7.3.48-10.75-.48-2.79-1.68-5.48-2.77-8.06-2.57-6.1,2.21,10.85-1.18,4.17-.75-1.49-2.97-4.98-5.61-4.86-.42.02,1.73-5.55.44-7.45-.19-.23-2.36,4.11-2.14,2.9.82-4.34-3.08-6.87-2.99-8.37.04-.69,1.95,8.28-2.03,9.95-6.44,2.69-9.26,9.29-7.75,13.32-2.41-.05-1.62-5.49-1.76-5.24-2.87,4.91-2.24,9.36-1.33,14.65Z"/>
  <path class="cls-2" d="M574.46,609.06c-.96-5.57-1.64-10.26,1.42-15.42.15-.26-.69,5.47,1.88,5.52-1.6-4.25,1.39-11.2,8.25-14.03,4.24-1.75,2.2-11.2,2.16-10.47-.1,1.58,4.05,4.24,3.18,8.82-.23,1.27,2.08-3.29,2.28-3.05,1.37,2-.91,7.86-.47,7.84,2.81-.13,5.17,3.55,5.97,5.11,3.61,7.04-1.47-10.8,1.26-4.38,1.16,2.72,2.44,5.54,2.94,8.49.64,3.63.41,7.43-.5,11.32l-.68,1.18-25.56-.31c-1.39-.01-2.14-.51-2.12-.6h0ZM580.69,608.5c-.01.05.41.33,1.19.34l14.34.18.38-.66c.51-2.18.64-4.31.29-6.35-.29-1.65-1-3.23-1.65-4.76-1.54-3.6,1.32,6.4-.71,2.46-.45-.88-1.77-2.94-3.35-2.87-.25.01,1.03-3.28.27-4.4-.11-.13-1.41,2.43-1.28,1.72.49-2.56-1.84-4.06-1.78-4.94.03-.41,1.17,4.89-1.21,5.87-3.85,1.58-5.52,5.49-4.63,7.87-1.44-.03-.97-3.24-1.05-3.09-1.71,2.89-1.33,5.53-.8,8.65Z"/>
  <path class="cls-2" d="M579.72,610.45c-.59-3.34-1-6.15.87-9.24.1-.16-.42,3.28,1.16,3.31-.99-2.55.85-6.71,5.06-8.41,2.6-1.05,1.35-6.71,1.32-6.28-.06.95,2.49,2.54,1.96,5.28-.15.76,1.27-1.97,1.4-1.83.84,1.2-.56,4.71-.29,4.7,1.72-.08,3.17,2.13,3.66,3.07,2.22,4.22-.91-6.48.77-2.63.71,1.63,1.5,3.32,1.81,5.09.39,2.18.25,4.46-.32,6.78l-.42.71-15.7-.19c-.85-.01-1.32-.31-1.3-.36Z"/>
  <path class="cls-2" d="M575.74,627.28l.02.43,23.44-.04.18-.16-23.64.23c3.22,18.36,6.44,36.72,9.65,55.07.31,2.57,4.88,5.26,5.7-.15l7.84-52.04.15-.99.25-1.64.09-.57c2.2-.83,3.84-2.95,4.08-5.49h-31.51c.23,2.4,1.71,4.43,3.73,5.34h0ZM607.98,611.85c.72,1.29,1.06,3.04.45,4.45h-.22c-.42,2.93-3.8,5.24-7.88,5.24h-24.8c-4.08,0-7.46-2.3-7.88-5.24h-.05c-.02-.06-.04-.12-.06-.18h0s40.21-.1,40.21-.1l-40.21.1c-.52-1.68-.33-3.01.59-4.26,2.04-2.78,39.49-1.86,39.84,0Z"/>
  <path class="cls-2" d="M303.57,575.7c-.71,5.76-1.07,12.55-8.51,17.56-5.68,3.82-9.14,6.27-14.19,13.69-4.34,6.67-5.58,14.77-7.08,23.31-13.97-1.68-1.77-35.89-11.94-67.33-1.45-4.5-3.87-9.85-4.42-10.43-7.15-7.4-13.1-42.62.81-42.62,1.62,0,7.95-.52,7.78,12.03.24,8.08-4.4,5.05-4.31,14.77,3.32,6.54,0,10.24,1.14,9.84,5.68,2.58,6.48-13.24,6.62-12.52.55,2.98.6,9.09-3.68,14.34-.71,3.69-.64,6.32,1.83,8.7,3.95,4.02,2.95,8.99,1.88,12.7,6.06.14,12.83-14.65,7.27-18.29-2.44-2.69-3.14-5.24-2.73-4.58,3.91,6.16,10.54,2.3,8.72,1.44-3.85-1.82-6.3-4.15-5.06-11.18-5.15-41.08-18.18-35.18-24.92-34.01-8.41,2.07-12.61,16.81-9.92,34,3.54,22.63,17.51,22.32,14.94,66.05-.71,12.09-4.44,28.41,6.02,37.72,2.31,2.05,5.99.24,9.42,3.35,1.73,1.56.21,4.86,2.1,9.84,2.46,6.5,14.68,14.92,15.12,22.26,1.07,17.89-6.01,6.98-14.29,12.4-.61,4.7-.18,5.31-.22,8.09,4.37,2.66-.43,12.19.13,14.51,5.12,22.72-8.43,20.4-5.07,35.83-2.57.54-2.18,4.85-1.06,7.74,2.44,3.29,9.79-4.37,6.68,4.62-.13,1.96-.36,5.04,1.11,6.78,1.97,2.33,20.54.01,23.16-2.18.55-.46,1.13-.99,1.5-1.8-.21-1.64.7-3.48-.83-7.36-2.17-1.04-7.94-.04-8.83-.87-.53-.89,6.6.29,8.79-.97.73-.41.51-4.36.49-5.2-.01-.68-4.08-1.75-9.89-1.29-1.44.12-1.26-1.37-1.82-3.04-.38-1.14-1.39-2.24-2.32-3.45-1.99-2.58-.2-7.73,2.02-13.88,8.04-22.26,24.49-10.39,32.28-35.46,2.29-.49,4.98-5.53,8.61-10.08,9.99-12.53-1-27.3,7.87-36.49,4.78-4.95,14.47-18.69,22.12-31.6"/>
  <path class="cls-2" d="M280.62,643.52c-1.7-.8-2.3-.48-2.01.15.08,8.12,4.05,12.3,10.17,17.3,1.27,1.04-.58,3.09,4.56,10.29,5.31,1.68,7.15.8,6.65-2.17-3.66-1.81-6.66-4.77-7.69-8.52-2.26-8.19-9.47-10.14-11.68-17.06Z"/>
  <path class="cls-2" d="M296.66,686.18c.23-1.68-.18-2.12-.63-1.71-5.99,2.7-4.88,7.91-14.62,8.72-1.25.1,2.71,2.78-1.85,9.05-.04,5.03,1.14,6.42,3.42,5.25.56-3.64-1.59-9.9,2.86-10.42,5.18-.6,5.76-7.23,10.83-10.88Z"/>
  <path class="cls-2" d="M335.18,618.16c.69,2.91,1.12,4.72,1.72,7.27.35,1.47,1.41,1.8,2.46,4.73.79-.3,1.55-.54,2.27-.75l-.64-2.71c-2.96-1.84-3.46-7.31-5.81-8.54Z"/>
  <path class="cls-2" d="M340.52,615.85c.69,2.91,1.12,4.72,1.72,7.27.35,1.46,1.41,1.8,2.46,4.73.79-.3,1.55-.54,2.27-.75l-.64-2.71c-2.96-1.84-3.46-7.31-5.81-8.54Z"/>
  <path class="cls-2" d="M293.39,535.81c2.27.18,3.61-1.44,5.25-2.43-.13,3.1-.89,12.69-2.28,13.45-1.44.78,2.46.51,6.5-2.37,1.66-1.19-1.86,4-2.89,9.52-1.1,5.87,2.08,15.14-2.07,21.68-4.39,6.92,11.88.62,16.09-17.72,2.87,10.23-1.92,12.32-6.89,20.04,5.75-.83,8.84-5.61,9.97-7.94,1.09-2.25,2.13,9.66-3.51,14.5-1.01.46,6.43,1.41,8.68-3.64,4.28-9.59,1.93-11.4,1.01-23.46.39-1.98,6.66,16.87,1.86,27.01,1.3,3.37,6.06-1.13,8.64-16.28.18-1.06,8.31,7.27,4.12,10.95-11.15,9.79-5.95,21.4-4.32,19.96.18-7.56,7.19-13.47,9.27-11.4-.48.83-4.09,6.28-4.09,12.23,0,6.27,2.08,10.02,3.2,9.74-.39-1.86,1.17-8.9,6.13-10.9,1.25-6.79,2.54-17.4,2.36-14.5-.9,15.23,2.63,23.71,4.05,23.58-.7-8.97,3.62-20.66,3.62-15.44,0,6.27,3.26,17.33-.96,21.93-.77.84,9.85-1.33,10.74-19.42,3.14,5.38-3.64,17.13,2.88,21.72,0,0,1.89-12.78,4.22-15.25.46-.49-.2,11.78,5.66,10.82-.54-4.21.68-14.21,1.47-14.66,2.28-1.29,6.89,12.95,7.25,7.6l.58-8.56c.39-5.85,3.55,3.13,3.17,8.55.02-.19,2.21-17.12,11.03-19.84,3.91-1.21,5.06-5.2,5.8-10.31.44-3.07-.42-7.66-.42-11.42,0-6.58-5.82-6.2-9.9-4.82-1.08,1.19-1.61,4.29-1.61,6.27,0,1.57-2.63,7.9-3.15,13.32-.32,3.32-4.04,5.23-4.9,5.7-3.63,1.98-6.43-.27-8.51-4.51-2.24-2.01-3.1-4.68-2.55-8.01-1.44-.51-3.13-5.41-3.13-6.7,0-8.36-1.15-2.09,3.45-2.09,1.53,0-5.05-13.91-2.3-13.37,2.9.57,6.18-.53,7.55,6.1.83-2.3,2.62-3.56,2.49-6.9l4.54,5.39c1.51-1.26-3.64-23.18,1.34-15.66,2.43,5.29,1.32,9.04,2.75,8.53"/>
  <path class="cls-2" d="M292.43,438.27c-.21,1.81,3.45,5.63,9.63,4.08,4.55-1.15,7.47.74,4.47.31-11.2-1.64-10.38,6.76-23.39,1.89-1.64,10.15,19.58,10.06,9.88,10.06-2.37,0-7.6,7.13-7.53,11.57.09,5.85-7.6,12.01,1.71,5.03,5.28-3.96,4.88-2.71,2.13,1.89-.66,1.11-2.02,8.52-3.74,13.34-2.02,5.66-11.1,1.86-7.13,6.84,2.98,3.73,7.48-2.38,8.43-.55,3.37,6.46-9.37,17.78-4.16,17.78,2.33,0,7.57-4.2,7.57-7.14,0,0-.98,8.27-2.47,12.02-.82,2.07,2.37-.31,5.16-2.82-.58,1.4.6-1.69-2.9,10.07,12.12-8.85-3.29,3.61-1.65,8.88.27.85,3.54-4.38,6.96-1.36.15,1.78-2.63,5.66-3.06,6.4,1.84.15,4.2-.73,5.62-1.37,1.05,9.54-3.3,12.74-2.16,13.33,11.04-2.13,6.12-13.19,10.77-13.19,2.65,9.04-1.61,18.11-.4,16.94,1.26-1.22,6.92-8.01,6.55-16.48,5.93-3.16,3.42,14.92,4.59,11.67,5.11-2.25,5.57-6.02,6.99-12.37,2.66,1.13,7.22,6.54,1.83,19.62,6.83-1.85,5.2-19.04,13.3-19.04-.37,5.82-7.13,7.25-1.91,7.77,4.67.46,3.49-8.93,8.32-8.93-.41,3.19-1.21,10.26-1.31,14.09-.29,11.89,7.59,12.32,13.98,20.99.86,10.68,2.93,3.04,4.28-6.57,0-12.77-13.88-8.79-12.71-25.97.6,0-2.06,2.9,6.04,11.67,8.11,8.77,10.54,2.02,14.07,13.05,1.1-4.68,3.26-12.15-1.88-15.98-4.91-1.59-12.77-10.36-6.77-7.6,6.91,3.17,9.22,2.17,10.46,6.55,2.92,7.06-.75,18.53,7.94,19-.21-1.42-2.47-6.9-2.94-9.91-.18-1.14-1.39-4.14.18-3.38,1.18.57,3.84.17,5.44,1.69,2.06,1.95,2.94,5.8,2.61,5.4-.67-.83.08-1.76.86-3.21.79-1.45.99-3.35,1.34-4.51,4.28,3.87,4.02,6.22,4.79,5.06.34-.5.37-4.56-.35-8.02-.88-4.24-.83-8.74-1.04-8.74-.49,0,3.34-.89,4.83,10.03,1.75,0,3.13-3.59,3.89-10.97,0-.28.01-.55.01-.82,0-2.76.56-5.81,2.73-6.1,2.79-.36,3.87,7.77,5.43,4.83,1.35-2.56,1.3-16.9-.58-17.86-4.48-2.3-6.33-8.81-4.81-13.7.87-2.82,6.01.25,7.27-2.33,1.82-3.71-.24-9.44-.93-13.62-1.75-2.92-5.41-1.46-10.65-1.46-2.79,0-3.25,1.85-4.31,4.57-.88,2.24.58,8.23-.12,11.11-.58,2.4-2.87.7-4.14,2.06-1.27,1.36-1.53,5.8-2.7,7.06-1.31,1.42-.51,5.87-1.19,7.02-2.86,4.86-3.91,8.18-6.22,4.8-1.05-1.53-2.37-5.61-5.39-8.89-.85-.92-1.97-.9-4.76-2.26-2.02-.99-3.29.43-5.9-.7-1.46-.63-2.36-.3-3.44-.23-.79-.24-1.59-.39-2.39-.44-.02-.01-.05-.02-.07-.03-1.42-.65-1.12-4.4-2.34-6.28"/>
  <path class="cls-2" d="M360.83,468.55c3.86-.23,11.85-5.3,13.49-2.32,3.06,5.57,10.08,5.21,10.08,6.2,0,.04-6.9,1.14-2.15,5.21.35.3-.91.74-1.59.74-2.28,0-7.11-7.1-10.31-6.83-1.89.16-6.69,1.4-7.01,3.71-.29,2.09-1.58,4.15-2.85,2.75-1.13-1.24.34-8.22.34-9.46Z"/>
  <path class="cls-2" d="M302.57,449.36c-2.29,1.45,5.89,1.37,8.33,1.37.92,0,1.71.03,2.4.07,1.17.99,2.2,2.07,3.14,3.21-1.19,2.82-2.18,4.14-7.65,6.97,4.26,4.17,8.97-1.06,10.69-2.56.14.23.28.47.41.7-1.44,3.01-9.97,7.69-9.54,17.04.67-5.19,5.12-7.03,6.67-8.64,3.56-4.6-6.93,10.49-4.12,10.83,1.02-1.67,2.31.13,4.08-2.92,2.93-5.05,4.6-7.83,5.27-3.3-1.37.62-.84,2.63-2.11,5.71-.76,1.85-2.42,3.7-4.26,6.13-.73.96.89,1.41,3.44-1.39,1.53-1.68,3-4.9,5.37-8.86,0,0,1.34-.78,1.49.62.13,1.23-.5,3.93-1.16,5.48-1.38,3.2-.12,5.6-.33,6.47-1.11,3.45-2,3.11-3.56,4.72,0,0,3.78.46,5.11-.92,1.89-1.96,2.27-3.39,2.3-3.25,1.46,5.28-3.28,10.33-3.2,10.39,4.65,3.21,7-5.87,7.45-6.8,0-.23,1.22.43.11,10.71-2.89,6.34,4.23,1.96,3.45-3.12,3.78-12.2,4.56-.8,3.22,8.87,0,3.68,4.56-6.23,5.12-12.21,0-.74,2.34,4.68.67,15.9,4.34.59,4.78-17.4,4.78-13.03,0,2.3,2.22,7.46,1.33,14.77,3.79-2.52,1.23-11.4,4.34-8.18,2,2.07,4.45,6.22,1.56,0-.99-2.12-.82-3.71-.29-5.2.13.12.27.24.4.36.03-.12.05-.26.05-.44,0-.02-.03-.07-.08-.12.18-.16.34-.4.48-.72.44-1.03,5.41,6.08,5.63,5.45.38-1.06.39-10.27,1.61-7.55.19.42,4.63,6.71,4.63,2.94,0-.42,1.61-3.99,1.61-4.61,0-1.05,2.61-4.83,2.61-1.89,0,.63,0,1.47.61,1.47,1.9,0,4.81-11.96-1.41-11.96-2.01,0-2.82.21-2.82,2.52,0,1.68-1.61,2.52-2.62,2.73-4.01,1.26-6.22-3.12-6.24-7.09.22-.79.5-1.59.2-2.56-.97-3.16-1.49-6.32-.81-8.6.33-1.12-.63-3.67,1.3-2.66,2.82-3.64,8.02-1.53,11.58-1.53s6.9.32,7.6-1.42c1.16-2.91-.46-7.47-.15-11.38,8.11.66,6-2.51,5.63-3.78-2.1-7.33-3-4.76-5.61-4.57-3.81.28-8.68,2.2-12.39.23-2.08-1.11-.85-4.75-3.32-8.87-.85-2.41-4.81,1.15-8.28-1.11-.44-9.76-4.57-5.6-5.4-6.02-5.65-2.9-17,6.92-21.02-1.68-1.85-1.16-1.83-8.42-1.03-6.53-3.03,3.46-4.65,8.11-6.25,9.47-4.09,3.48-4.74-1.72-3.92-8.43-4.97,3.19-10.61,9.09-4.93,13.24,4.85,3.54-11.84,4.63-22.19,2.34-1.7-.38,1.4,9.4,10.21,7.13,9.87-2.54,6.68,1.65,3.11,3.28-1.36.87-1.97,1.96-3.31,2.81Z"/>
  <path class="cls-2" d="M336.13,446.37v-4.6c0-.93-1.21-1.29-1.64-3.2-8.3.44-13.56-.75-13.7-.5-.23.4,2.89,4.77,1,11.18-.49,1.67.14,4.56,1.94,5.17.73.25-.19,1.68.5,1.95.65.26,7.36,0,7.78-1.16.33-.9-.4-2.73-2-1.83-1.55.88-4.76.59-5.56-1.02-1.23-2.47,1.11-6.16-.21-11.82-.19-.82,6.45-.4,7.78-.05,2.52.67,1.84,4.9,4.11,5.87Z"/>
  <path class="cls-2" d="M333.81,454.43c-.5-2.18-.81-3.53-1.25-5.44-.25-1.1-1.17-1.52-1.98-3.78-.7.07-1.37.11-2.02.12l.47,2.03c.17.04.3.08.41.12,1.89.79,2.58,5.79,4.38,6.95Z"/>
  <path class="cls-2" d="M341.86,445.23c-.38-1.64-.61-2.66-.94-4.09-.19-.83-.88-1.15-1.49-2.84-.53.05-1.03.08-1.52.09l.35,1.53c.12.03.23.06.3.09,1.42.59,1.94,4.36,3.3,5.22Z"/>
  <path class="cls-2" d="M346.03,442.93c-.68-1.64-1.1-2.66-1.69-4.09-.34-.82-1.09-1.15-2.01-2.84-.52.05-1.02.08-1.5.09l.63,1.53c.13.03.24.06.32.1,1.53.59,2.74,4.35,4.25,5.22Z"/>
  <path class="cls-2" d="M349.17,440.4c-.63-1.64-1.02-2.66-1.58-4.09-.32-.83-1.06-1.15-1.93-2.84-.52.05-1.02.08-1.51.09l.59,1.53c.13.03.24.06.32.09,1.51.59,2.62,4.36,4.11,5.22Z"/>
  <path class="cls-2" d="M358.63,464.29c-2.01,2.16-3.26,3.5-5.02,5.38-1.01,1.09-.72,2.19-2.56,4.67.66.53,1.27,1.07,1.82,1.59l1.88-2.01c-.07-3.58,4.13-6.93,3.88-9.64Z"/>
  <path class="cls-2" d="M357.94,470.82c-.27,2-.44,3.24-.67,4.99-.13,1.01.56,1.52.54,3.63.66.05,1.28.11,1.87.2l.25-1.86c-.14-.06-.25-.12-.33-.17-1.45-.97-.41-5.49-1.66-6.78Z"/>
  <path class="cls-2" d="M363.1,445.17c-2.64-.35-6.17-1.27-8.4-1.27-3.58,0-3.17,11.11-1.06,11.11.3,0,.62-3.99,1.56-3.74,5.55,1.44,4.73-5.12,4.95-5.12.45,0,1.15-.19,1.56,0,1.55.72,1.66-.57,1.39-.98Z"/>
  <path class="cls-2" d="M356.17,446.57c.61,0,1.11.32,1.11.71s-.5.71-1.11.71-1.11-.32-1.11-.71.5-.71,1.11-.71Z"/>
  <path class="cls-2" d="M342.92,707.61c-.74.58-1.11.48-1.07.14-.88-3.89,2.1-4.72-1.09-10.07-.41-.68,2.37.67,3.79-3.44,2.47-1.39,3.58-1.15,3.84.37-1.59,1.28-5.47,1.86-4.09,4.34,1.61,2.89-1.45,5-1.38,8.66Z"/>
  <path class="cls-2" d="M780.7,560.14c1.49,2.1,2.31,7.01,7.2,11.19,7.72,6,1.52,13.12,11.45,19.8,5.68,3.82,9.14,6.27,14.19,13.69,4.34,6.67,5.58,14.77,7.08,23.3,13.97-1.68,1.77-35.89,11.93-67.33,1.46-4.5,3.87-9.85,4.42-10.42,7.15-7.4,13.11-42.62-.81-42.62-1.62,0-7.95-.51-7.78,12.04-.24,8.08,4.4,5.05,4.31,14.77-3.32,6.54,0,10.23-1.14,9.84-5.68,2.58-6.48-13.24-6.62-12.52-.55,2.99-.6,9.09,3.68,14.34.71,3.69.64,6.32-1.83,8.7-3.95,4.02-2.95,8.99-1.88,12.7-6.06.15-12.82-14.65-7.27-18.29,2.44-2.69,3.15-5.24,2.73-4.58-3.91,6.15-10.54,2.29-8.72,1.43,3.85-1.82,6.3-4.15,5.06-11.18,5.15-41.09,18.18-35.18,24.92-34.01,8.42,2.07,12.61,16.81,9.92,34-3.54,22.64-17.51,22.33-14.95,66.05.71,12.09,4.45,28.41-6.02,37.72-2.3,2.05-5.99.24-9.42,3.35-1.73,1.56-.22,4.86-2.1,9.83-2.46,6.5-14.68,14.92-15.11,22.26-1.07,17.9,6.01,6.98,14.29,12.4.62,4.69.18,5.31.22,8.09-4.37,2.66.43,12.19-.13,14.51-5.13,22.72,8.43,20.4,5.07,35.83,2.57.54,2.18,4.85,1.06,7.74-2.44,3.29-9.79-4.37-6.68,4.62.13,1.96.36,5.04-1.12,6.78-1.97,2.33-20.54.02-23.16-2.18-.55-.46-1.13-.99-1.5-1.8.21-1.64-.7-3.48.83-7.36,2.17-1.04,7.94-.04,8.83-.87.53-.89-6.6.3-8.78-.97-.74-.41-.51-4.35-.5-5.19.01-.68,4.08-1.76,9.89-1.29,1.44.12,1.26-1.37,1.82-3.04.38-1.14,1.39-2.24,2.32-3.45,1.99-2.58.2-7.72-2.02-13.87-8.04-22.26-24.49-10.39-32.28-35.46-2.29-.49-4.99-5.53-8.61-10.07-9.98-12.53,1-27.3-7.87-36.49-6.44-6.67-27.78-26.27-32.18-43.03"/>
  <path class="cls-2" d="M813.78,641.39c1.7-.8,2.3-.49,2.01.15-.07,8.12-4.04,12.29-10.17,17.3-1.27,1.04.58,3.09-4.56,10.29-5.31,1.68-7.15.8-6.65-2.16,3.66-1.81,6.65-4.77,7.69-8.52,2.26-8.19,9.47-10.13,11.68-17.06Z"/>
  <path class="cls-2" d="M797.75,684.05c-.23-1.68.18-2.12.63-1.71,5.99,2.7,4.88,7.91,14.62,8.72,1.25.1-2.71,2.79,1.85,9.05.04,5.03-1.14,6.42-3.42,5.25-.56-3.64,1.59-9.9-2.86-10.42-5.18-.6-5.76-7.23-10.83-10.88Z"/>
  <path class="cls-2" d="M759.23,616.03c-.69,2.91-1.12,4.72-1.72,7.27-.35,1.46-1.41,1.8-2.46,4.73-.79-.3-1.55-.54-2.28-.75l.64-2.71c2.96-1.84,3.47-7.31,5.81-8.54Z"/>
  <path class="cls-2" d="M753.88,613.72c-.69,2.91-1.12,4.72-1.72,7.27-.35,1.46-1.41,1.8-2.46,4.73-.79-.3-1.55-.54-2.28-.74l.64-2.72c2.96-1.84,3.46-7.31,5.81-8.54Z"/>
  <path class="cls-2" d="M797.88,544.7c1.51.78-2.59.51-6.84-2.38-1.75-1.19,1.95,4,3.05,9.52,1.16,5.87-2.19,15.14,2.17,21.68,4.62,6.92-12.5.62-16.93-17.72-3.02,10.23,2.02,12.32,7.25,20.04-6.05-.84-9.3-5.61-10.5-7.94-1.15-2.25-2.24,9.66,3.69,14.5,1.06.46-6.77,1.41-9.14-3.64-4.5-9.6-2.03-11.4-1.07-23.46-.41-1.98-7.01,16.87-1.96,27-1.36,3.37-6.38-1.12-9.09-16.28-.19-1.06-8.75,7.27-4.34,10.95,11.73,9.79,6.26,21.4,4.54,19.96-.19-7.56-7.57-13.47-9.75-11.4.5.83,4.3,6.28,4.3,12.23,0,6.27-2.18,10.02-3.37,9.74.41-1.86-1.23-8.9-6.45-10.9-1.31-6.79-2.67-17.39-2.49-14.5.95,15.23-2.77,23.71-4.26,23.58.74-8.97-3.81-20.66-3.81-15.44,0,6.27-3.43,17.33,1.01,21.93.81.84-10.37-1.33-11.3-19.42-3.31,5.38,3.83,17.13-3.03,21.72,0,0-1.99-12.78-4.44-15.25-.48-.49.21,11.78-5.96,10.82.57-4.21-.71-14.21-1.54-14.66-2.4-1.29-7.25,12.95-7.63,7.6l-.61-8.57c-.41-5.85-3.74,3.14-3.33,8.56-.02-.19-2.33-17.12-11.6-19.84-4.12-1.21-5.32-5.2-6.1-10.31-.47-3.07.45-7.66.45-11.42,0-6.58,6.13-6.2,10.42-4.81,1.14,1.19,1.69,4.28,1.69,6.27,0,1.57,2.77,7.9,3.32,13.31.34,3.32,4.25,5.23,5.16,5.7,3.82,1.98,6.76-.27,8.96-4.51,2.36-2.01,3.27-4.68,2.68-8.01,1.52-.51,3.3-5.41,3.3-6.7,0-8.36,1.21-2.09-3.63-2.09-1.61,0,5.32-13.91,2.42-13.37-3.05.57-6.5-.52-7.94,6.1-.87-2.3-2.75-3.56-2.62-6.9l-4.78,5.4c-1.59-1.26,3.83-23.18-1.42-15.66-2.56,5.29-1.39,9.04-2.9,8.53"/>
  <path class="cls-2" d="M790.11,437.09c3.83,0,7.89.17,11.29-.95.21,1.8-3.58,5.63-9.99,4.07-4.73-1.15-7.76.75-4.65.31,11.63-1.64,10.78,6.76,24.29,1.89,1.7,10.15-20.33,10.06-10.26,10.06,2.47,0,7.89,7.13,7.82,11.57-.09,5.85,7.89,12.01-1.78,5.03-5.48-3.96-5.07-2.71-2.22,1.89.69,1.11,2.09,8.52,3.88,13.34,2.1,5.66,11.52,1.86,7.4,6.83-3.09,3.73-7.76-2.38-8.75-.55-3.49,6.47,9.74,17.78,4.32,17.78-2.42,0-7.86-4.2-7.86-7.14,0,0,1.02,8.28,2.57,12.02.85,2.07-2.47-.32-5.36-2.82.6,1.4-.62-1.69,3.01,10.07-12.58-8.85,3.42,3.61,1.71,8.88-.27.85-3.67-4.38-7.22-1.36-.15,1.78,2.73,5.66,3.17,6.4-1.91.15-4.36-.73-5.83-1.37-1.09,9.54,3.43,12.74,2.24,13.33-11.46-2.13-6.35-13.19-11.18-13.19-2.75,9.05,1.67,18.12.41,16.94-1.31-1.22-7.18-8.01-6.8-16.48-6.16-3.16-3.55,14.92-4.77,11.67-5.31-2.24-5.79-6.02-7.26-12.37-2.76,1.13-7.49,6.54-1.9,19.62-7.09-1.85-5.4-19.04-13.81-19.04.38,5.82,7.41,7.25,1.98,7.77-4.84.47-3.62-8.92-8.64-8.92.42,3.19,1.26,10.26,1.35,14.09.3,11.89-7.88,12.32-14.51,20.99-.89,10.68-3.04,3.04-4.44-6.57,0-12.77,14.41-8.79,13.19-25.97-.62,0,2.14,2.9-6.28,11.68-8.41,8.77-10.94,2.02-14.6,13.05-1.14-4.68-3.38-12.14,1.95-15.98,5.1-1.59,13.25-10.36,7.03-7.6-7.17,3.17-9.58,2.17-10.86,6.55-3.03,7.07.77,18.53-8.24,19,.22-1.42,2.56-6.9,3.05-9.91.19-1.14,1.44-4.14-.19-3.38-1.22.57-3.99.17-5.65,1.69-2.14,1.96-3.06,5.8-2.71,5.4.7-.83-.08-1.76-.9-3.21-.82-1.45-1.03-3.35-1.39-4.51-4.44,3.88-4.17,6.22-4.98,5.06-.35-.5-.39-4.56.36-8.02.91-4.24.86-8.74,1.08-8.74.52,0-3.46-.89-5.01,10.02-1.82,0-3.25-3.59-4.04-10.97-.01-.28-.01-.55-.01-.82,0-2.76-.58-5.81-2.83-6.1-2.9-.36-4.02,7.77-5.63,4.83-1.4-2.55-1.36-16.89.61-17.86,4.65-2.3,6.57-8.81,4.99-13.7-.91-2.81-6.24.25-7.55-2.33-1.89-3.71.24-9.44.97-13.62,1.82-2.92,5.61-1.46,11.06-1.46,2.9,0,3.37,1.85,4.48,4.57.91,2.24-.6,8.23.12,11.11.6,2.4,2.97.69,4.3,2.06,1.32,1.36,1.59,5.8,2.8,7.06,1.36,1.42.53,5.87,1.23,7.02,2.97,4.86,4.07,8.18,6.46,4.8,1.09-1.53,2.46-5.61,5.6-8.88.88-.92,2.05-.9,4.94-2.26,2.1-.99,3.42.43,6.13-.7,1.52-.63,2.45-.31,3.57-.23.81-.24,1.65-.39,2.48-.44.02-.01.05-.02.07-.03,1.47-.65,1.91-6.11,3.18-7.99"/>
  <path class="cls-2" d="M733.57,466.42c-3.86-.23-11.85-5.3-13.49-2.32-3.06,5.57-10.08,5.21-10.08,6.2,0,.04,6.9,1.14,2.15,5.21-.36.31.91.74,1.59.74,2.28,0,7.11-7.1,10.32-6.84,1.88.16,6.69,1.41,7.01,3.71.29,2.09,1.57,4.15,2.85,2.75,1.13-1.24-.34-8.22-.34-9.46Z"/>
  <path class="cls-2" d="M791.83,447.23c2.29,1.45-5.89,1.37-8.33,1.37-.92,0-1.71.02-2.4.07-1.17.99-2.2,2.07-3.14,3.21,1.19,2.82,2.18,4.14,7.65,6.97-4.26,4.17-8.97-1.06-10.69-2.56-.14.23-.27.47-.41.7,1.44,3,9.97,7.69,9.54,17.04-.67-5.19-5.12-7.03-6.67-8.64-3.56-4.6,6.93,10.49,4.12,10.83-1.02-1.67-2.31.13-4.08-2.92-2.93-5.05-4.6-7.83-5.26-3.3,1.37.62.84,2.63,2.11,5.71.76,1.85,2.42,3.7,4.26,6.13.73.96-.89,1.41-3.45-1.39-1.53-1.68-3-4.9-5.37-8.85,0,0-1.34-.78-1.49.62-.13,1.23.5,3.93,1.16,5.48,1.38,3.2.12,5.6.33,6.47,1.11,3.45,2,3.11,3.56,4.72,0,0-3.78.46-5.11-.92-1.89-1.96-2.27-3.39-2.31-3.25-1.45,5.28,3.28,10.33,3.2,10.39-4.65,3.21-7-5.87-7.45-6.79,0-.23-1.22.43-.11,10.71,2.89,6.34-4.23,1.96-3.45-3.12-3.78-12.2-4.56-.8-3.23,8.87,0,3.68-4.56-6.23-5.11-12.21,0-.74-2.34,4.68-.67,15.9-4.34.59-4.78-17.4-4.78-13.03,0,2.3-2.22,7.46-1.33,14.77-3.79-2.52-1.23-11.41-4.34-8.18-2,2.07-4.45,6.21-1.56,0,.99-2.12.81-3.71.29-5.2-.13.12-.27.24-.4.36-.03-.12-.05-.26-.05-.43,0-.02.03-.07.08-.12-.18-.16-.34-.4-.48-.72-.44-1.03-5.41,6.08-5.63,5.46-.38-1.06-.39-10.28-1.61-7.55-.19.42-4.63,6.71-4.63,2.94,0-.42-1.61-3.99-1.61-4.62,0-1.05-2.62-4.83-2.62-1.89,0,.63,0,1.47-.6,1.47-1.9,0-4.81-11.96,1.41-11.96,2.01,0,2.82.21,2.82,2.52,0,1.68,1.61,2.52,2.62,2.73,4.01,1.25,6.22-3.12,6.24-7.09-.22-.8-.5-1.59-.2-2.56.96-3.16,1.49-6.32.8-8.6-.33-1.12.64-3.67-1.29-2.67-2.82-3.64-8.02-1.53-11.58-1.53s-6.9.32-7.6-1.42c-1.15-2.9.46-7.47.15-11.38-8.11.66-6-2.51-5.63-3.78,2.1-7.33,3-4.76,5.61-4.57,3.81.27,8.69,2.2,12.4.22,2.08-1.11.85-4.75,3.32-8.87.85-2.41,4.81,1.15,8.28-1.11.44-9.76,4.57-5.6,5.4-6.03,5.65-2.9,17,6.92,21.02-1.68,1.85-1.16,1.83-8.42,1.03-6.53,3.03,3.46,4.65,8.11,6.25,9.47,4.09,3.48,4.74-1.72,3.92-8.43,4.97,3.2,10.61,9.09,4.93,13.24-4.85,3.54,11.84,4.63,22.19,2.34,1.7-.38-1.4,9.4-10.21,7.13-9.87-2.54-6.68,1.64-3.11,3.28,1.36.87,1.97,1.96,3.31,2.81Z"/>
  <path class="cls-2" d="M758.28,444.24v-4.6c0-.93,1.21-1.29,1.64-3.2,8.3.45,13.56-.75,13.7-.5.23.4-2.89,4.77-1.01,11.18.49,1.66-.14,4.56-1.94,5.17-.73.25.19,1.68-.5,1.95-.65.25-7.36,0-7.78-1.16-.33-.9.4-2.73,2-1.82,1.55.88,4.76.59,5.56-1.02,1.22-2.47-1.11-6.16.21-11.82.19-.82-6.45-.4-7.78-.05-2.52.67-1.84,4.9-4.11,5.87Z"/>
  <path class="cls-2" d="M760.59,452.3c.5-2.18.81-3.53,1.25-5.44.25-1.1,1.17-1.52,1.98-3.78.7.07,1.37.1,2.02.12l-.47,2.03c-.17.04-.3.08-.4.13-1.89.78-2.58,5.79-4.38,6.94Z"/>
  <path class="cls-2" d="M752.54,443.1c.38-1.64.61-2.66.94-4.09.19-.82.88-1.15,1.49-2.84.53.05,1.03.08,1.52.09l-.35,1.53c-.13.03-.23.06-.3.09-1.42.59-1.94,4.35-3.29,5.22Z"/>
  <path class="cls-2" d="M748.38,440.8c.68-1.64,1.1-2.66,1.69-4.09.34-.83,1.09-1.15,2.01-2.84.52.05,1.02.08,1.5.09l-.63,1.53c-.13.03-.24.06-.32.09-1.53.59-2.74,4.36-4.25,5.22Z"/>
  <path class="cls-2" d="M745.24,438.27c.63-1.64,1.02-2.66,1.57-4.09.32-.82,1.06-1.15,1.93-2.84.52.05,1.02.08,1.51.09l-.59,1.53c-.13.03-.24.06-.32.09-1.51.59-2.62,4.35-4.11,5.22Z"/>
  <path class="cls-2" d="M735.77,462.16c2.01,2.16,3.26,3.5,5.02,5.38,1.01,1.09.72,2.2,2.56,4.67-.66.53-1.27,1.07-1.82,1.6l-1.87-2.01c.07-3.58-4.13-6.93-3.88-9.64Z"/>
  <path class="cls-2" d="M736.46,468.7c.27,2,.44,3.24.68,4.99.13,1-.56,1.52-.54,3.63-.66.04-1.28.11-1.87.2l-.25-1.86c.14-.06.25-.12.33-.17,1.45-.97.42-5.49,1.66-6.78Z"/>
  <path class="cls-2" d="M731.31,443.04c2.63-.35,6.17-1.27,8.4-1.27,3.58,0,3.17,11.11,1.06,11.11-.3,0-.62-3.99-1.56-3.75-5.55,1.45-4.73-5.12-4.95-5.12-.45,0-1.15-.19-1.56,0-1.55.72-1.66-.57-1.39-.98Z"/>
  <path class="cls-2" d="M738.23,444.44c-.61,0-1.11.32-1.11.71s.5.71,1.11.71,1.11-.32,1.11-.71-.5-.71-1.11-.71Z"/>
  <path class="cls-2" d="M751.48,705.48c.74.58,1.11.48,1.08.13.87-3.89-2.1-4.72,1.09-10.07.41-.69-2.37.67-3.78-3.44-2.47-1.39-3.59-1.15-3.85.37,1.59,1.28,5.47,1.86,4.09,4.34-1.61,2.89,1.45,5,1.38,8.66Z"/>
  <path class="cls-1" d="M635.91,760.56v-5.38c0-1.2.39-2.03,1.17-2.51.51-.32,1.16-.48,1.94-.48,2.07,0,3.1,1,3.1,2.98v5.53c0,.83-.31,1.47-.92,1.93-.57.43-1.31.64-2.21.64-1.07,0-1.9-.31-2.46-.92-.42-.45-.63-1.05-.63-1.79h0ZM639.67,759.78v-4.44c0-.52-.05-.85-.15-1-.1-.14-.26-.22-.49-.22-.2,0-.35.06-.46.19-.13.17-.2.51-.2,1.03v4.49c0,.46.03.77.09.93.1.28.3.41.59.41.25,0,.42-.11.52-.34.06-.15.1-.5.1-1.04Z"/>
  <path class="cls-1" d="M458.94,757.71v15.06h3.5v3.77h-9.26v-18.82h5.77ZM463.83,757.71h9.61v3.77h-3.84v3.57h3.6v3.58h-3.6v4.14h4.23v3.77h-9.99v-18.82h0ZM487.74,757.71l-4.2,12.01v6.81h-5.34v-6.81l-4.05-12.01h5.29c.83,3.67,1.29,6.13,1.39,7.41.33-2.01.85-4.48,1.6-7.41h5.29ZM502.03,757.71v18.82h-5.53v-10.09c0-1.46-.04-2.33-.12-2.63-.08-.29-.31-.51-.68-.67-.37-.15-1.19-.23-2.47-.23h-.55v-2.2c2.67-.49,4.7-1.49,6.09-3.01h3.26ZM515.45,757.71v12.3h1.57v3.21h-1.57v3.31h-5.53v-3.31h-6.57v-3.21l4.78-12.3h7.32ZM509.92,770.01v-8.01l-2.43,8.01h2.43ZM518.17,771.53h5.53c0,.88,0,1.43.04,1.66.03.23.14.42.34.57.2.16.46.23.8.23.29,0,.52-.07.7-.22.18-.15.28-.34.31-.57.02-.23.03-.7.03-1.4v-3c-.27.5-.68.88-1.24,1.13-.55.25-1.22.38-2.04.38-1.01,0-1.9-.23-2.68-.7-.77-.46-1.27-1.02-1.48-1.67-.21-.65-.32-1.53-.32-2.64v-1.5c0-1.32.06-2.3.18-2.94.12-.64.44-1.24.95-1.79.51-.55,1.22-.97,2.12-1.27.91-.3,1.95-.45,3.15-.45,1.48,0,2.69.18,3.63.52.95.35,1.69.85,2.21,1.51.52.65.82,1.34.9,2.06.08.72.12,2.12.12,4.19v2.61c0,2.24-.04,3.74-.11,4.49-.07.76-.39,1.47-.95,2.15-.56.67-1.32,1.18-2.28,1.52-.96.34-2.06.51-3.32.51-1.56,0-2.84-.22-3.83-.64-.99-.43-1.7-1.03-2.13-1.8-.43-.78-.65-1.75-.65-2.93h0ZM523.7,765.67c0,.79.12,1.27.36,1.46.24.19.49.28.75.28.38,0,.66-.12.84-.35.17-.24.27-.7.27-1.39v-3.41c0-.83-.09-1.37-.25-1.63-.17-.26-.45-.38-.84-.38-.24,0-.49.1-.74.3-.26.2-.38.73-.38,1.6v3.53h0ZM541.87,757.71v18.82h-5.52v-10.09c0-1.46-.04-2.33-.13-2.63-.08-.29-.31-.51-.68-.67-.37-.15-1.19-.23-2.47-.23h-.55v-2.2c2.67-.49,4.7-1.49,6.09-3.01h3.26ZM556.08,757.71v3.01h-6.85v3.2c.86-.86,1.96-1.29,3.31-1.29,1.52,0,2.68.36,3.46,1.09.78.72,1.17,2.12,1.17,4.18v2.69c0,1.33-.07,2.32-.22,2.94-.15.62-.47,1.2-.97,1.73-.49.53-1.18.94-2.06,1.22-.88.28-1.96.42-3.22.42-1.42,0-2.68-.21-3.77-.63-1.08-.42-1.85-1.05-2.31-1.89-.46-.84-.68-2.13-.68-3.88v-1.02h5.53v1.17c0,1.21.05,2.08.15,2.59.1.51.45.77,1.04.77.27,0,.49-.07.66-.22.17-.15.26-.3.27-.48.01-.17.03-.91.05-2.22v-3.73c0-.71-.09-1.19-.26-1.45-.17-.25-.46-.38-.86-.38-.26,0-.47.06-.64.19-.17.14-.29.27-.34.42-.05.15-.07.5-.07,1.05h-5.47l.23-9.48h11.86ZM559.22,757.71h4.31c2.78,0,4.66.11,5.64.32.98.22,1.73.57,2.24,1.07.51.49.83,1.05.96,1.66.13.61.19,1.8.19,3.59v6.59c0,1.69-.1,2.82-.29,3.39-.19.57-.51,1.02-.98,1.34-.47.32-1.04.54-1.72.68-.69.12-1.71.19-3.09.19h-7.27v-18.82h0ZM564.98,760.93v12.38c.83,0,1.34-.14,1.53-.42.19-.29.29-1.06.29-2.31v-7.31c0-.85-.03-1.4-.09-1.64-.07-.24-.21-.42-.44-.53-.23-.11-.66-.17-1.28-.17h0ZM583.06,757.71v18.82h-5.52v-10.09c0-1.46-.04-2.33-.12-2.63-.08-.29-.31-.51-.68-.67-.37-.15-1.19-.23-2.47-.23h-.55v-2.2c2.67-.49,4.7-1.49,6.09-3.01h3.26ZM585.21,771.53h5.53c0,.88,0,1.43.04,1.66.03.23.14.42.34.57.2.16.46.23.8.23.29,0,.52-.07.7-.22.19-.15.28-.34.31-.57.02-.23.03-.7.03-1.4v-3c-.27.5-.68.88-1.23,1.13-.55.25-1.22.38-2.04.38-1.01,0-1.9-.23-2.68-.7-.77-.46-1.27-1.02-1.48-1.67-.21-.65-.32-1.53-.32-2.64v-1.5c0-1.32.06-2.3.18-2.94.13-.64.44-1.24.95-1.79.51-.55,1.22-.97,2.12-1.27.91-.3,1.95-.45,3.15-.45,1.48,0,2.69.18,3.64.52.95.35,1.69.85,2.21,1.51.52.65.82,1.34.9,2.06.08.72.13,2.12.13,4.19v2.61c0,2.24-.04,3.74-.11,4.49-.07.76-.39,1.47-.95,2.15-.56.67-1.32,1.18-2.28,1.52-.96.34-2.06.51-3.33.51-1.56,0-2.84-.22-3.83-.64-.99-.43-1.7-1.03-2.13-1.8-.43-.78-.65-1.75-.65-2.93h0ZM590.74,765.67c0,.79.12,1.27.36,1.46.24.19.49.28.75.28.39,0,.66-.12.84-.35.18-.24.27-.7.27-1.39v-3.41c0-.83-.08-1.37-.25-1.63-.17-.26-.45-.38-.84-.38-.24,0-.49.1-.74.3-.26.2-.38.73-.38,1.6v3.53h0ZM613.65,762.72h-5.53c0-.88-.01-1.43-.03-1.66-.03-.23-.13-.42-.33-.57-.2-.16-.47-.23-.8-.23-.28,0-.51.07-.7.22-.18.15-.29.34-.32.57-.03.23-.03.7-.03,1.4v3c.28-.5.69-.88,1.24-1.14.55-.25,1.22-.38,2.03-.38,1.01,0,1.9.23,2.68.7s1.26,1.02,1.48,1.67c.21.65.32,1.53.32,2.64v1.5c0,1.32-.06,2.3-.18,2.94-.12.64-.44,1.24-.95,1.78-.51.54-1.22.97-2.12,1.27-.9.3-1.95.45-3.14.45-1.49,0-2.71-.18-3.66-.52-.95-.35-1.68-.85-2.2-1.51-.51-.66-.81-1.34-.9-2.06-.09-.72-.13-2.12-.13-4.2v-2.6c0-2.24.04-3.74.12-4.5.08-.75.39-1.47.95-2.14.56-.68,1.32-1.18,2.28-1.52.97-.34,2.08-.51,3.34-.51,1.55,0,2.82.22,3.82.64,1,.43,1.7,1.03,2.13,1.8.43.78.65,1.75.65,2.93h0ZM608.13,768.58c0-.66-.09-1.12-.26-1.37-.17-.25-.45-.37-.84-.37s-.67.12-.84.35c-.18.24-.26.7-.26,1.39v3.41c0,.83.08,1.37.25,1.63.17.25.45.38.84.38.24,0,.48-.1.74-.29.26-.2.38-.73.38-1.6v-3.52h0ZM626.83,757.71v12.3h1.58v3.21h-1.58v3.31h-5.53v-3.31h-6.57v-3.21l4.78-12.3h7.32ZM621.3,770.01v-8.01l-2.43,8.01h2.43Z"/>
  <path class="cls-1" d="M433.77,760.56v-5.38c0-1.2.39-2.03,1.17-2.51.51-.32,1.16-.48,1.94-.48,2.07,0,3.1,1,3.1,2.98v5.53c0,.83-.31,1.47-.92,1.93-.57.43-1.31.64-2.21.64-1.07,0-1.9-.31-2.45-.92-.42-.45-.63-1.05-.63-1.79h0ZM437.52,759.78v-4.44c0-.52-.05-.85-.15-1-.1-.14-.26-.22-.49-.22-.2,0-.36.06-.46.19-.13.17-.2.51-.2,1.03v4.49c0,.46.03.77.09.93.1.28.3.41.59.41.25,0,.42-.11.52-.34.06-.15.1-.5.1-1.04Z"/>
</svg>