<?xml version="1.0" encoding="UTF-8"?>
<svg id="Capa_2" data-name="Capa 2" xmlns="http://www.w3.org/2000/svg" viewBox="0 0 117.3 130.71">
  <defs>
    <style>
      .cls-1, .cls-2, .cls-3, .cls-4, .cls-5, .cls-6, .cls-7, .cls-8, .cls-9, .cls-10, .cls-11, .cls-12, .cls-13, .cls-14, .cls-15, .cls-16, .cls-17, .cls-18, .cls-19, .cls-20, .cls-21, .cls-22, .cls-23, .cls-24, .cls-25, .cls-26, .cls-27, .cls-28, .cls-29, .cls-30, .cls-31, .cls-32, .cls-33, .cls-34, .cls-35, .cls-36, .cls-37, .cls-38, .cls-39, .cls-40, .cls-41, .cls-42, .cls-43, .cls-44, .cls-45, .cls-46, .cls-47, .cls-48, .cls-49, .cls-50, .cls-51, .cls-52, .cls-53, .cls-54, .cls-55, .cls-56, .cls-57, .cls-58, .cls-59, .cls-60, .cls-61, .cls-62, .cls-63, .cls-64, .cls-65, .cls-66, .cls-67, .cls-68, .cls-69, .cls-70, .cls-71, .cls-72, .cls-73, .cls-74, .cls-75, .cls-76, .cls-77, .cls-78, .cls-79, .cls-80, .cls-81, .cls-82, .cls-83, .cls-84, .cls-85, .cls-86, .cls-87, .cls-88 {
        fill-rule: evenodd;
      }

      .cls-1, .cls-2, .cls-3, .cls-4, .cls-5, .cls-6, .cls-7, .cls-9, .cls-10, .cls-11, .cls-12, .cls-13, .cls-14, .cls-15, .cls-16, .cls-17, .cls-18, .cls-19, .cls-21, .cls-22, .cls-23, .cls-24, .cls-25, .cls-26, .cls-28, .cls-29, .cls-30, .cls-31, .cls-32, .cls-33, .cls-34, .cls-35, .cls-36, .cls-37, .cls-38, .cls-39, .cls-40, .cls-41, .cls-42, .cls-43, .cls-44, .cls-45, .cls-46, .cls-48, .cls-49, .cls-50, .cls-51, .cls-52, .cls-53, .cls-54, .cls-55, .cls-56, .cls-57, .cls-58, .cls-60, .cls-61, .cls-62, .cls-63, .cls-65, .cls-66, .cls-67, .cls-68, .cls-69, .cls-70, .cls-71, .cls-73, .cls-74, .cls-75, .cls-76, .cls-77, .cls-78, .cls-79, .cls-80, .cls-81, .cls-82, .cls-83, .cls-84, .cls-85, .cls-86, .cls-87, .cls-88 {
        stroke-linejoin: round;
      }

      .cls-1, .cls-2, .cls-3, .cls-4, .cls-5, .cls-6, .cls-7, .cls-10, .cls-11, .cls-12, .cls-13, .cls-14, .cls-15, .cls-16, .cls-17, .cls-18, .cls-19, .cls-21, .cls-22, .cls-23, .cls-24, .cls-25, .cls-26, .cls-28, .cls-29, .cls-30, .cls-31, .cls-32, .cls-33, .cls-34, .cls-35, .cls-36, .cls-37, .cls-38, .cls-39, .cls-40, .cls-41, .cls-42, .cls-43, .cls-44, .cls-45, .cls-48, .cls-49, .cls-50, .cls-51, .cls-52, .cls-53, .cls-54, .cls-55, .cls-56, .cls-57, .cls-58, .cls-60, .cls-61, .cls-62, .cls-63, .cls-65, .cls-66, .cls-67, .cls-68, .cls-69, .cls-70, .cls-71, .cls-73, .cls-74, .cls-75, .cls-76, .cls-77, .cls-78, .cls-79, .cls-80, .cls-81, .cls-82, .cls-83, .cls-84, .cls-85, .cls-86, .cls-87, .cls-88 {
        stroke: #231f20;
      }

      .cls-1, .cls-3, .cls-5, .cls-9, .cls-11, .cls-17, .cls-24, .cls-29, .cls-40, .cls-43, .cls-46, .cls-54, .cls-62, .cls-66, .cls-71, .cls-73, .cls-87 {
        fill: none;
      }

      .cls-1, .cls-19, .cls-57 {
        stroke-width: .02px;
      }

      .cls-2 {
        stroke-width: .02px;
      }

      .cls-2, .cls-6, .cls-12, .cls-13, .cls-18, .cls-31, .cls-32, .cls-33, .cls-39, .cls-42, .cls-44, .cls-55, .cls-57, .cls-63, .cls-64, .cls-67, .cls-68, .cls-75 {
        fill: #231f20;
      }

      .cls-3, .cls-38 {
        stroke-width: .27px;
      }

      .cls-4 {
        stroke-width: .31px;
      }

      .cls-4, .cls-14, .cls-21, .cls-26, .cls-37, .cls-41, .cls-48, .cls-50, .cls-53, .cls-56, .cls-65, .cls-69, .cls-70, .cls-74, .cls-81, .cls-82, .cls-83, .cls-84, .cls-85, .cls-88 {
        fill: #03b255;
      }

      .cls-5 {
        stroke-width: .28px;
      }

      .cls-6, .cls-79 {
        stroke-width: .02px;
      }

      .cls-7 {
        stroke-width: .18px;
      }

      .cls-7, .cls-16, .cls-78 {
        fill: #ffcd03;
      }

      .cls-8 {
        fill: #e2bb42;
      }

      .cls-9 {
        stroke: #414042;
      }

      .cls-9, .cls-30, .cls-33 {
        stroke-width: .02px;
      }

      .cls-10 {
        stroke-width: .06px;
      }

      .cls-10, .cls-25, .cls-35, .cls-49, .cls-58, .cls-60, .cls-61, .cls-77, .cls-86 {
        fill: #414042;
      }

      .cls-11 {
        stroke-width: .22px;
      }

      .cls-12, .cls-23, .cls-34 {
        stroke-width: .02px;
      }

      .cls-13, .cls-87 {
        stroke-width: .02px;
      }

      .cls-14 {
        stroke-width: .31px;
      }

      .cls-15 {
        fill: #278d43;
      }

      .cls-15, .cls-63 {
        stroke-width: .02px;
      }

      .cls-16 {
        stroke-width: .18px;
      }

      .cls-17 {
        stroke-width: .29px;
      }

      .cls-18 {
        stroke-width: .03px;
      }

      .cls-19 {
        fill: #fff20f;
      }

      .cls-20 {
        fill: #44b2e5;
      }

      .cls-21 {
        stroke-width: .31px;
      }

      .cls-22 {
        stroke-width: .73px;
      }

      .cls-22, .cls-51 {
        fill: #d3e8bf;
      }

      .cls-23, .cls-59 {
        fill: #ed1c24;
      }

      .cls-24 {
        stroke-width: .32px;
      }

      .cls-25 {
        stroke-width: .09px;
      }

      .cls-26 {
        stroke-width: .3px;
      }

      .cls-27, .cls-45, .cls-52 {
        fill: #fff;
      }

      .cls-28 {
        fill: #d7eaf4;
        stroke-width: .35px;
      }

      .cls-29 {
        stroke-width: .22px;
      }

      .cls-30 {
        fill: #e6f3fa;
      }

      .cls-31 {
        stroke-width: .02px;
      }

      .cls-32 {
        stroke-width: .02px;
      }

      .cls-34 {
        fill: #ed1b30;
      }

      .cls-35 {
        stroke-width: .11px;
      }

      .cls-36 {
        fill: #b0aec7;
        stroke-width: .28px;
      }

      .cls-37 {
        stroke-width: .3px;
      }

      .cls-38, .cls-80 {
        fill: #edb91d;
      }

      .cls-39 {
        stroke-width: .02px;
      }

      .cls-40 {
        stroke-width: .26px;
      }

      .cls-41 {
        stroke-width: .3px;
      }

      .cls-42 {
        stroke-width: .02px;
      }

      .cls-43 {
        stroke-width: .29px;
      }

      .cls-89 {
        fill: #fff3c8;
      }

      .cls-44 {
        stroke-width: .02px;
      }

      .cls-45 {
        stroke-width: 0px;
      }

      .cls-46 {
        stroke: #fff;
        stroke-width: .35px;
      }

      .cls-47 {
        fill: #bdcfd9;
      }

      .cls-48 {
        stroke-width: .31px;
      }

      .cls-49 {
        stroke-width: .06px;
      }

      .cls-50 {
        stroke-width: .3px;
      }

      .cls-51 {
        stroke-width: .72px;
      }

      .cls-52, .cls-76 {
        stroke-width: .02px;
      }

      .cls-53 {
        stroke-width: .3px;
      }

      .cls-54 {
        stroke-width: .19px;
      }

      .cls-55 {
        stroke-width: .01px;
      }

      .cls-56 {
        stroke-width: .3px;
      }

      .cls-58 {
        stroke-width: .16px;
      }

      .cls-60 {
        stroke-width: .32px;
      }

      .cls-61 {
        stroke-width: .1px;
      }

      .cls-62 {
        stroke-width: .19px;
      }

      .cls-65 {
        stroke-width: .3px;
      }

      .cls-66 {
        stroke-width: .14px;
      }

      .cls-67 {
        stroke-width: .02px;
      }

      .cls-68 {
        stroke-width: .02px;
      }

      .cls-69 {
        stroke-width: .31px;
      }

      .cls-70 {
        stroke-width: .3px;
      }

      .cls-71, .cls-80 {
        stroke-width: .26px;
      }

      .cls-72 {
        fill: #58595b;
      }

      .cls-73 {
        stroke-width: .26px;
      }

      .cls-74 {
        stroke-width: .3px;
      }

      .cls-75 {
        stroke-width: .02px;
      }

      .cls-76 {
        fill: #2a84c6;
      }

      .cls-77 {
        stroke-width: .06px;
      }

      .cls-78 {
        stroke-width: .19px;
      }

      .cls-79 {
        fill: #b6ceda;
      }

      .cls-81 {
        stroke-width: .31px;
      }

      .cls-82 {
        stroke-width: .3px;
      }

      .cls-83 {
        stroke-width: .32px;
      }

      .cls-84 {
        stroke-width: .31px;
      }

      .cls-85 {
        stroke-width: .31px;
      }

      .cls-86 {
        stroke-width: .25px;
      }

      .cls-88 {
        stroke-width: .3px;
      }
    </style>
  </defs>
  <g id="Capa_1-2" data-name="Capa 1">
    <g>
      <ellipse class="cls-89" cx="59.29" cy="63.48" rx="47.36" ry="53.82"/>
      <path class="cls-16" d="M30.65,77.14c.08,2.12.48,2.56,1.05,2.96.01.59-.23.94.48.91,1.49-.38.72,2.58-.1,2.14l-.2.37c-.12.39-.14,1.63,0,2.61l.19.39c.86-.02,1.02,1.52,1.08,1.55.03.71-.1,1.42-.03,1.97.04.35.38-.25.38.34.05.24-.1.58-.03.81l.43.2c.13.14,1.13.05,1.32.05,0,.25-.07.42,0,.66v.59c.65.18,1.3.08,2.05.04.28-.02.23-.33.33-.31.44.09.9.03,1.09-.12.06-.25.03-.58-.05-1.05-.4-.41-.41-.08-.97-.28.04-.27-.1-.39.09-.32.67.14.36-.78.3-.92-.78.09-2.53.31-2.56-.26l-.68-.53c-.23-1.52-.45-3.43.09-4.93-.06-.52.24-.6.36-.89,2.26-2.85,1.56-8.04-1.4-8.29-1.64-.14-2.83.5-3.22,2.29Z"/>
      <path class="cls-7" d="M89.11,76.86c-.08,2.12-.48,2.56-1.05,2.96-.01.59.23.94-.48.91-1.49-.38-.72,2.58.09,2.14l.2.38c.12.39.14,1.63,0,2.61l-.19.39c-.86-.02-1.02,1.52-1.08,1.55-.03.71.1,1.42.03,1.97-.04.35-.38-.25-.38.34-.05.24.1.57.03.81l-.43.2c-.13.14-1.13.05-1.33.05,0,.25.07.42,0,.66v.59c-.65.18-1.3.08-2.05.04-.28-.02-.23-.33-.33-.31-.44.09-.9.03-1.09-.12-.06-.25-.03-.58.05-1.05.4-.41.41-.07.97-.28-.04-.27.1-.39-.09-.32-.67.14-.36-.78-.3-.92.78.09,2.53.31,2.56-.26l.68-.53c.23-1.52.45-3.43-.09-4.93.06-.52-.24-.6-.36-.89-2.26-2.85-1.56-8.04,1.4-8.29,1.64-.14,2.83.5,3.22,2.29Z"/>
      <path class="cls-27" d="M43.03,64.28h.1s.01.08.03.11.04.06.08.07c.03.02.07.03.12.03.04,0,.07,0,.1-.02.03-.01.05-.03.07-.06.01-.03.02-.05.02-.08s0-.06-.02-.08c-.01-.02-.04-.04-.07-.06-.02,0-.07-.03-.14-.05-.07-.02-.12-.04-.15-.06-.04-.02-.06-.05-.08-.09-.02-.04-.03-.08-.03-.12,0-.05.01-.09.03-.14.02-.04.05-.07.1-.1.04-.02.09-.03.14-.03.06,0,.11.01.15.03.04.02.08.06.1.1.02.04.04.09.04.15h-.1c0-.05-.02-.1-.05-.13-.03-.03-.07-.05-.13-.05s-.11.01-.13.04c-.03.03-.04.06-.04.1,0,.03,0,.06.03.09.02.02.07.05.15.07.08.02.14.04.17.06.04.03.08.06.1.1.02.04.03.09.03.14s-.01.1-.03.14c-.02.05-.06.08-.1.11-.04.03-.09.04-.15.04-.07,0-.13-.01-.17-.04-.05-.03-.08-.06-.11-.11-.03-.05-.04-.11-.04-.17h0ZM44.14,64.36l.1.02c-.02.07-.04.13-.08.17-.04.04-.09.06-.16.06-.08,0-.15-.03-.19-.09-.05-.06-.07-.15-.07-.26s.02-.21.07-.27c.05-.06.11-.1.19-.1s.13.03.18.09c.05.06.07.15.07.27,0,0,0,.02,0,.03h-.41c0,.08.02.13.05.18.03.04.07.06.12.06.03,0,.06-.01.09-.03.02-.02.04-.06.06-.11h0ZM43.83,64.17h.31c0-.06-.02-.1-.04-.13-.03-.05-.07-.07-.12-.07-.04,0-.08.02-.11.05-.03.04-.05.08-.05.15h0ZM44.36,64.58v-.7h.08v.11s.04-.08.06-.1c.02-.02.04-.02.06-.02.03,0,.06.01.1.04l-.03.11s-.05-.03-.07-.03c-.02,0-.04,0-.06.02-.02.02-.03.04-.04.06-.01.04-.02.09-.02.14v.36h-.09ZM44.87,64.58h.09l.21-.7h-.1l-.12.42c-.02.05-.03.1-.04.13-.01-.05-.02-.1-.04-.14l-.12-.42h-.1l.21.7h0ZM45.25,63.76v-.14h.09v.14h-.09ZM45.25,64.58v-.7h.09v.7h-.09ZM45.85,64.33l.09.02c0,.08-.04.14-.08.19-.04.05-.09.07-.15.07-.08,0-.14-.03-.18-.09-.05-.06-.07-.15-.07-.27,0-.08,0-.14.03-.2.02-.06.05-.1.09-.13.04-.03.08-.04.13-.04.06,0,.11.02.15.06.04.04.06.09.07.16l-.09.02s-.02-.08-.05-.11c-.02-.02-.05-.04-.08-.04-.05,0-.09.02-.12.06-.03.04-.04.11-.04.2s.01.16.04.2c.03.04.07.06.11.06.04,0,.07-.01.09-.04.02-.03.04-.07.05-.13h0ZM46.02,63.76v-.14h.09v.14h-.09ZM46.02,64.58v-.7h.09v.7h-.09ZM46.22,64.24c0-.13.03-.22.09-.29.05-.05.11-.08.17-.08.08,0,.14.03.19.09.05.06.07.15.07.26,0,.09-.01.16-.03.21-.02.05-.05.09-.09.12-.04.03-.09.04-.13.04-.08,0-.14-.03-.19-.09-.05-.06-.07-.15-.07-.27h0ZM46.32,64.24c0,.09.02.16.05.2.03.04.07.07.12.07s.09-.02.12-.07c.03-.04.05-.11.05-.2,0-.09-.02-.15-.05-.2-.03-.04-.07-.07-.12-.07s-.09.02-.12.07c-.03.04-.05.11-.05.2h0ZM46.81,64.38l.09-.02s.02.08.04.11c.02.02.06.04.1.04s.08-.01.1-.03c.02-.02.03-.05.03-.08,0-.03,0-.05-.03-.06-.01-.01-.04-.02-.1-.04-.07-.02-.12-.04-.14-.06-.03-.02-.05-.04-.06-.07-.01-.03-.02-.06-.02-.09,0-.03,0-.06.02-.09.01-.03.03-.05.05-.07.01-.01.03-.03.06-.03.03,0,.05-.01.08-.01.04,0,.08,0,.11.02s.06.04.07.06c.02.03.03.06.03.11l-.09.02s-.02-.06-.04-.08c-.02-.02-.05-.03-.08-.03-.04,0-.07,0-.09.03-.02.02-.03.04-.03.06,0,.02,0,.03.01.04,0,.01.02.02.04.03,0,0,.04.01.08.03.07.02.11.04.14.06.03.01.05.03.06.06.02.03.02.06.02.1s0,.08-.03.11c-.02.03-.04.06-.08.08s-.07.03-.12.03c-.07,0-.13-.02-.16-.06-.04-.04-.06-.09-.07-.17h0ZM48.04,64.58v-.09c-.03.07-.09.1-.15.1-.04,0-.08-.02-.12-.05-.04-.03-.07-.07-.09-.13-.02-.05-.03-.12-.03-.19s0-.13.03-.19c.02-.06.05-.1.08-.13.04-.03.08-.05.12-.05.03,0,.06,0,.09.03.03.02.05.04.06.07v-.34h.09v.96h-.09ZM47.74,64.24c0,.09.01.16.04.2.03.04.07.07.11.07s.08-.02.1-.06c.03-.04.04-.11.04-.19,0-.1-.01-.16-.04-.21-.03-.04-.07-.07-.11-.07s-.08.02-.1.06c-.03.04-.04.11-.04.2h0ZM48.65,64.36l.1.02c-.02.07-.04.13-.08.17-.04.04-.09.06-.16.06-.08,0-.15-.03-.19-.09-.05-.06-.07-.15-.07-.26s.02-.21.07-.27c.05-.06.11-.1.19-.1s.13.03.18.09c.05.06.07.15.07.27,0,0,0,.02,0,.03h-.41c0,.08.02.13.05.18.03.04.07.06.12.06.03,0,.06-.01.09-.03.02-.02.04-.06.06-.11h0ZM48.34,64.17h.31c0-.06-.02-.1-.04-.13-.03-.05-.07-.07-.12-.07-.04,0-.08.02-.11.05-.03.04-.05.08-.05.15h0ZM42.96,65.98v.1s-.04.01-.06.01c-.03,0-.06,0-.08-.02-.02-.01-.03-.03-.04-.05,0-.02-.01-.07-.01-.14v-.4h-.07v-.09h.07v-.17l.09-.07v.24h.09v.09h-.09v.41s0,.06,0,.06c0,0,0,.02.02.02,0,0,.02,0,.03,0,.01,0,.02,0,.04,0h0ZM43.41,66.08v-.1c-.04.08-.1.12-.18.12-.03,0-.06,0-.09-.02-.03-.02-.05-.04-.06-.06-.01-.02-.02-.05-.03-.09,0-.02,0-.06,0-.11v-.43h.09v.39c0,.06,0,.1,0,.12,0,.03.02.06.04.07.02.02.04.03.07.03s.05,0,.08-.03c.02-.02.04-.04.05-.07.01-.03.02-.08.02-.14v-.37h.09v.7h-.08ZM43.85,65.98v.1s-.04.01-.06.01c-.03,0-.06,0-.08-.02-.02-.01-.03-.03-.04-.05,0-.02-.01-.07-.01-.14v-.4h-.07v-.09h.07v-.17l.09-.07v.24h.09v.09h-.09v.41s0,.06,0,.06c0,0,0,.02.02.02,0,0,.02,0,.03,0,.01,0,.02,0,.04,0h0ZM43.91,65.73c0-.13.03-.22.09-.29.05-.05.11-.08.17-.08.08,0,.14.03.19.09.05.06.07.15.07.26,0,.09-.01.16-.03.21-.02.05-.05.09-.09.12-.04.03-.09.04-.13.04-.08,0-.14-.03-.19-.09-.05-.06-.07-.15-.07-.27h0ZM44,65.73c0,.09.02.16.05.2.03.04.07.07.12.07s.09-.02.12-.07.05-.11.05-.2c0-.09-.02-.15-.05-.2-.03-.04-.07-.07-.12-.07s-.09.02-.12.07c-.03.04-.05.11-.05.2h0ZM44.53,66.08v-.7h.08v.11s.04-.08.06-.1c.02-.02.04-.02.06-.02.03,0,.06.01.1.04l-.03.11s-.05-.03-.07-.03c-.02,0-.04,0-.06.02-.02.02-.03.04-.03.06-.01.04-.02.09-.02.14v.36h-.09ZM44.89,65.26v-.14h.09v.14h-.09ZM44.89,66.08v-.7h.09v.7h-.09ZM45.49,66s-.07.06-.1.08c-.03.02-.07.02-.1.02-.06,0-.11-.02-.14-.06-.03-.04-.05-.09-.05-.14,0-.03,0-.07.02-.09.01-.03.03-.05.05-.07s.04-.03.07-.04c.02,0,.05-.01.08-.02.08-.01.13-.02.17-.04,0-.02,0-.03,0-.03,0-.05,0-.08-.03-.1-.02-.03-.06-.04-.11-.04-.04,0-.08,0-.1.03-.02.02-.04.05-.05.1l-.09-.02s.02-.09.04-.12c.02-.03.05-.05.08-.07.04-.02.08-.02.13-.02s.09,0,.12.02c.03.01.05.03.07.05.01.02.02.05.03.08,0,.02,0,.06,0,.11v.16c0,.11,0,.18,0,.21,0,.03.01.06.02.08h-.1s-.02-.05-.02-.09h0ZM45.48,65.73s-.09.03-.15.04c-.04,0-.07.01-.08.02-.02,0-.03.02-.04.04,0,.02-.01.04-.01.06,0,.03,0,.06.03.08.02.02.05.03.08.03s.07,0,.1-.03c.03-.02.05-.05.06-.08,0-.03.02-.07.02-.12v-.04h0ZM46.17,66.08l-.21-.7h.1l.12.42s.02.09.04.14c0-.04.02-.08.03-.13l.12-.42h.1l-.21.7h-.09ZM46.55,65.26v-.14h.09v.14h-.09ZM46.55,66.08v-.7h.09v.7h-.09ZM46.79,66.08v-.7h.08v.11s.04-.08.06-.1c.02-.02.04-.02.06-.02.03,0,.06.01.1.04l-.03.11s-.05-.03-.07-.03c-.02,0-.04,0-.06.02-.02.02-.03.04-.03.06-.01.04-.02.09-.02.14v.36h-.09ZM47.35,65.98v.1s-.04.01-.06.01c-.03,0-.06,0-.08-.02-.02-.01-.03-.03-.04-.05,0-.02-.01-.07-.01-.14v-.4h-.07v-.09h.07v-.17l.09-.07v.24h.09v.09h-.09v.41s0,.06,0,.06c0,0,0,.02.02.02,0,0,.02,0,.03,0,.01,0,.02,0,.04,0h0ZM47.8,66.08v-.1c-.04.08-.1.12-.18.12-.03,0-.06,0-.09-.02-.03-.02-.05-.04-.06-.06s-.02-.05-.03-.09c0-.02,0-.06,0-.11v-.43h.09v.39c0,.06,0,.1,0,.12,0,.03.02.06.04.07.02.02.04.03.07.03s.05,0,.08-.03c.02-.02.04-.04.05-.07.01-.03.02-.08.02-.14v-.37h.09v.7h-.08ZM48.4,66s-.07.06-.1.08c-.03.02-.07.02-.1.02-.06,0-.11-.02-.14-.06-.03-.04-.05-.09-.05-.14,0-.03,0-.07.02-.09.01-.03.03-.05.05-.07.02-.02.04-.03.07-.04.02,0,.05-.01.08-.02.08-.01.13-.02.17-.04,0-.02,0-.03,0-.03,0-.05,0-.08-.03-.1-.02-.03-.06-.04-.11-.04-.04,0-.08,0-.1.03-.02.02-.04.05-.05.1l-.09-.02s.02-.09.04-.12c.02-.03.05-.05.08-.07.04-.02.08-.02.13-.02s.09,0,.12.02c.03.01.05.03.07.05.01.02.02.05.03.08,0,.02,0,.06,0,.11v.16c0,.11,0,.18,0,.21,0,.03.01.06.02.08h-.1s-.02-.05-.02-.09h0ZM48.39,65.73s-.09.03-.15.04c-.04,0-.07.01-.08.02-.02,0-.03.02-.04.04,0,.02-.01.04-.01.06,0,.03,0,.06.03.08.02.02.05.03.08.03s.07,0,.1-.03c.03-.02.05-.05.06-.08.01-.03.02-.07.02-.12v-.04h0ZM48.63,66.08v-.96h.09v.96h-.09Z"/>
      <path class="cls-72" d="M59.06,3.19c30.28,0,54.97,27.78,54.97,61.84s-24.69,61.84-54.97,61.84S4.09,99.09,4.09,65.03,28.79,3.19,59.06,3.19h0ZM59.06,11.83c-25.42,0-46.15,23.9-46.15,53.2s20.73,53.2,46.15,53.2,46.15-23.9,46.15-53.2S84.48,11.83,59.06,11.83Z"/>
      <path class="cls-81" d="M30.75,19.98c-.61-.03-2.06.18-2.61.31-1.84,3.09-4.71,4.1-4.71,4.03,0-.16,3.5-1.1,4.8-4.41.05-.15.08-.31.1-.47.2.46,1.05.46,2.08.18-.05.08.02.14.27.16l1.46.12c1.1.09,4.53-2.41,4.81-2.62,1.86-1.42-.42-1.04-1.09-.8-.6.21-3,1.54-3.5,1.82.87-.69,3.8-2.04,3.74-2.43-.6-.11-2.07-.1-2.63-.05-2.01,2.5-4.58,3.26-5.13,3.35v-.05c.61-.22,3.69-.86,5.27-3.66.26-.51.28-1.08.25-1.6-.42.08-1.11-.03-1.7.15-.16.05-4.29,1.77-4.63,4.43,0,0,0,0,0,0,.53-2.94,4.49-4.34,4.59-4.49.44-.68.8-1.34,1.04-1.83-.27-.29-1.5.57-2.67.97-3.38,1.57-2.74,2.44-3.14,5.38-.13.02,1.03.27.9.3-.1.03-.97-.31-1.71-.05-.03.01.07-.05.04-.04-.16.07-4.04,2.36-3.96,5.06.07-3.01,3.83-4.95,3.91-5.12.34-.73.6-1.44.77-1.95-.31-.25-1.4.77-2.5,1.33-3.28,2.11-2.5,2.52-2.38,4.63.03.56.03,1.13.03,1.69.4-.42,2.84-2.94,3.36-3.27,0,0-.1.15-.21.11-1.42,1.18-2.23,2.27-3.12,3.14.16.33.56.2.98.05.07.71,1.02.64,2.16.15-.03.08-.24.31.02.3,2.77-.16,5.13-2.15,7.02-4.08,1.64-1.66-1.46-.41-2.09-.08-.57.29-2.84,2.2-3.3,2.55.76-.8,3.56-2.8,3.45-3.18h0ZM28.19,18.31c3.78-2.53,5.26-3.3.87-.39-.05.03-.2.11-.36.18-.21.1-.44.19-.52.21,0,0,0,0,0,0Z"/>
      <path class="cls-83" d="M48.8,10.95c-.65-.28-2.29-.67-2.94-.77-3.4,2.35-6.94,2.18-6.91,2.11.08-.17,4.26.35,7.18-2.45.13-.13.23-.28.33-.43,0,.55.9.9,2.14,1.05-.09.06-.05.15.22.27l1.51.72c1.14.54,7.19-.58,7.6-.68,2.65-.66-1.2-1.18-2.03-1.22-.74-.04-3.92.31-4.59.38,1.25-.34,5.01-.47,5.13-.9-.6-.36-2.16-.96-2.79-1.14-3.3,1.68-6.41,1.38-7.04,1.24,0-.02.02-.04.02-.05.75.03,4.35.67,7.34-1.5.51-.41.8-.97,1.01-1.51-.49-.09-1.17-.49-1.89-.56-.2-.02-5.41,0-7.01,2.54,0,0,0,0,0,0,1.93-2.74,6.81-2.5,6.99-2.62.79-.5,1.48-1.02,1.96-1.41-.15-.41-1.87-.05-3.3-.13-4.34.18-4.06,1.32-5.86,4.11-.15-.03.98.7.82.68-.12-.01-.9-.71-1.81-.76-.04,0,.1-.02.06-.02-.2,0-5.42.7-6.58,3.45,1.47-3.01,6.39-3.39,6.55-3.53.71-.6,1.31-1.2,1.73-1.65-.21-.38-1.86.19-3.29.3-4.48.77-3.85,1.5-4.69,3.68-.22.57-.49,1.15-.75,1.72.63-.26,4.4-1.78,5.11-1.9,0,0-.18.11-.27.02-2.06.6-3.44,1.36-4.79,1.87.02.4.5.43,1.03.46-.25.75.28,1.14,1.73,1.13-.08.07.12.14.4.23.47.16.08.56.57.62,2.65.34,6.37-.84,8.84-1.81,2.52-.99-1.37-1.02-2.2-.95-.74.06-4.06,1.04-4.71,1.2,1.19-.49,5.11-1.34,5.17-1.77h0ZM46.84,8.2c5.22-.98,7.16-1.14,1.12-.03-.07.01-.26.03-.47.04-.27.01-.56.01-.65,0,0,0,0,0,0,0Z"/>
      <path class="cls-88" d="M35.55,19.03l.63-5.31,1.96,1.05-2.27-1.25-3.77-2.14,1.68-1.27,1.37.8,7.46,4.21-1.68,1.19-2.87-1.58-.4,3.28-2.1,1.03h0ZM36.45,11.65l1.85,1.04.25-2.03.12-2.8-2.01.83-.21,2.96Z"/>
      <path class="cls-82" d="M70.39,10.96c-.2-.47-1.02-1.46-1.41-1.82-4.96-.01-7.43-1.71-7.34-1.75.23-.07,2.83,2.14,7.9,1.64.23-.03.46-.07.68-.13-.56.35-.25.99.53,1.64-.13,0-.18.07-.12.27l.39,1.15c.34,1,5.73,3.02,6.39,2.97,3.28-.25.31-1.3-.27-1.7-.52-.36-3.26-1.56-3.83-1.81,1.28.35,4.24,1.94,4.76,1.73-.08-.5-.64-1.59-.92-1.99-4.2-.4-6.22-1.99-6.55-2.36.02,0,.05-.02.07-.02.53.36,2.57,2.38,7.03,2.33.8-.03,1.59-.26,2.3-.52-.27-.27-.37-.84-.84-1.21-.13-.1-4.06-2.43-7.85-1.51,0,0,0,0,0,0,4.26-.9,7.67,1.44,7.92,1.45,1.11.03,2.15,0,2.91-.03.31-.33-1.35-.87-2.34-1.57-3.81-2.05-5.01-1.34-8.6.02-.08-.09.02.89-.08.81-.07-.06.06-.86-.57-1.3-.03-.02.1.03.07.02-.16-.09-4.78-1.98-8.47-.73,4.19-1.27,8.27.68,8.53.67,1.14-.07,2.21-.18,2.98-.29.24-.34-1.59-.71-2.77-1.29-4.15-1.52-4.42-.76-7.28.26-.76.27-1.55.52-2.32.77.74.11,5.13.83,5.78,1.07,0,0-.25,0-.22-.11-2.16-.54-3.97-.67-5.5-.95-.39.26-.06.5.3.75-.96.37-.5,1.05.6,1.69-.13.01-.52-.04-.4.14,1.26,2.01,4.89,2.89,8.27,3.46,2.91.49.02-1.27-.67-1.6-.62-.3-4.11-1.15-4.75-1.34,1.4.22,5.2,1.43,5.69,1.18h0ZM71.73,8.3c4.92,1.71,6.54,2.48.87.48-.07-.02-.22-.1-.39-.19-.21-.11-.43-.24-.48-.29,0,0,0,0,0,0Z"/>
      <path class="cls-85" d="M55.18,11.78l2.86-4.38,1.33,1.69-1.52-1.98-2.77-3.48,2.34-.32.89,1.24,5.37,7.09-2.45-.12-1.92-2.51-1.77,2.7-2.35.07h0ZM59.17,5.69l1.23,1.64,1.09-1.67,1.16-2.08-2.21-.07-1.28,2.19Z"/>
      <path class="cls-81" d="M88.4,20.87c.61,0,2.05.29,2.59.44,1.67,3.19,4.48,4.34,4.49,4.27,0-.16-3.44-1.28-4.55-4.65-.04-.16-.07-.31-.08-.47-.22.45-1.07.41-2.08.08.04.08-.02.14-.28.14l-1.47.04c-1.1.03-5.33-3.12-5.6-3.35-1.78-1.52,1.41-.53,2.07-.26.59.24,2.91,1.69,3.4,2-.83-.74-3.68-2.23-3.61-2.62.61-.08,2.07,0,2.63.09,1.87,2.6,4.4,3.49,4.95,3.61,0-.02,0-.04,0-.05-.6-.25-3.64-1.05-5.07-3.93-.5-.34-2.32-1.62-2.26-2.14.41.11,3.2.56,3.78.77.16.06,4.19,1.99,4.39,4.66,0,0,0,0,0,0-.37-2.97-4.15-4.69-4.34-4.72-2.9-.44-2.5-2.67-2.71-3.17.28-.28,3.24,1.94,4.38,2.4,3.29,1.74,2.61,2.57,2.85,5.53.13.03-1.04.22-.91.26.1.03.99-.26,1.71.04.03.01-.07-.06-.04-.04.15.08,3.91,2.57,3.68,5.25.09-3.01-3.56-5.14-3.63-5.31-.3-.75-.53-1.47-.66-1.99.32-.24,1.36.84,2.43,1.45,3.16,2.28,2.36,2.65,2.13,4.74-.06.55-.09,1.13-.12,1.69-.38-.44-2.68-3.08-3.18-3.44,0,0,.09.16.2.12,1.35,1.25,2.1,2.38,2.94,3.29-.18.32-.57.17-.98,0-.11.71-1.06.58-2.17.04.03.09.22.32-.03.3-2.76-.3-5-2.41-6.79-4.43-1.54-1.74,1.48-.33,2.09.02.55.32,2.72,2.34,3.15,2.71-.72-.84-3.41-2.98-3.27-3.36h0ZM91.05,19.33c-3.64-2.72-5.08-3.57-.85-.44.05.04.19.12.35.2.2.11.42.22.51.24,0,0,0,0,0,0Z"/>
      <path class="cls-65" d="M75.72,15.05l4.57-2.56.4,2.09-.44-2.44-.91-4.59,2.27,1,.23,1.5,1.43,8.84-2.03-1.32-.56-3.09-2.73,1.5-2.23-.93h0ZM82.09,11.47l.34,2,1.75-1.01,2-1.35-2.17-.88-1.92,1.23Z"/>
      <path class="cls-14" d="M100.98,36c.56.25,1.76,1.07,2.19,1.42.22,3.57,2.33,5.73,2.36,5.67.08-.15-2.62-2.52-2.26-6.05.02-.16.07-.31.12-.46-.39.33-1.15-.05-1.94-.75,0,.09-.08.12-.31.02l-1.36-.54c-1.02-.4-3.6-4.95-3.76-5.27-1.01-2.09,1.51.07,2.01.57.44.45,1.97,2.69,2.29,3.16-.46-1-2.46-3.49-2.23-3.82.59.17,1.89.82,2.37,1.11.65,3.11,2.6,4.92,3.05,5.25,0-.02.02-.03.02-.05-.44-.46-2.9-2.39-3.03-5.58-.32-.51-1.46-2.39-1.19-2.85.33.26,2.7,1.77,3.15,2.19.12.12,3.02,3.47,2.11,5.99,0,0,0,0,0,0,.87-2.86-1.88-5.93-2.04-6.03-2.48-1.54-1.2-3.43-1.18-3.96.38-.15,2.17,3.04,3.03,3.91,2.3,2.88,1.33,3.38.34,6.18.11.08-1.04-.21-.94-.12.07.07,1.01.15,1.55.71.03.03-.04-.08-.02-.05.11.13,2.53,3.89,1.21,6.25,1.32-2.73-1.15-6.1-1.14-6.29.03-.81.12-1.55.21-2.08.39-.09.9,1.3,1.63,2.28,1.96,3.32,1.08,3.35,0,5.18-.28.48-.54,1-.8,1.5-.17-.56-1.19-3.88-1.5-4.4,0,0,.02.18.14.19.73,1.68.95,3.01,1.34,4.17-.29.22-.59-.07-.9-.39-.39.61-1.21.12-2-.81,0,.09.07.38-.15.26-2.41-1.36-3.59-4.17-4.41-6.72-.7-2.2,1.49.27,1.9.84.37.51,1.53,3.21,1.78,3.72-.31-1.05-1.9-4.07-1.62-4.36h0ZM104.03,35.63c-2.22-3.92-3.19-5.26-.6-.73.03.05.13.18.24.32.14.18.3.36.37.41,0,0,0,0,0,0Z"/>
      <path class="cls-48" d="M107.52,55.19c.48.38,1.41,1.48,1.73,1.93-.74,3.5.71,6.13.76,6.08.11-.12-1.86-3.1-.56-6.42.07-.15.15-.29.24-.42-.46.22-1.09-.34-1.67-1.22-.02.09-.11.09-.31-.06l-1.17-.87c-.88-.65-2.15-5.7-2.22-6.05-.41-2.27,1.44.45,1.78,1.07.3.55,1.18,3.1,1.36,3.64-.18-1.08-1.44-4-1.13-4.25.52.31,1.61,1.27,1.99,1.68-.21,3.17,1.19,5.42,1.54,5.84.01-.01.02-.03.04-.04-.3-.56-2.16-3.05-1.43-6.16-.17-.58-.76-2.68-.38-3.05.25.34,2.13,2.4,2.45,2.92.09.14,1.99,4.12.43,6.32,0,0,0,0,0,0,1.61-2.54-.23-6.2-.35-6.34-1.98-2.12-.24-3.61-.08-4.13.4-.04,1.28,3.49,1.88,4.55,1.45,3.37.38,3.6-1.33,6.06.08.1-.95-.47-.88-.36.05.08.93.41,1.31,1.08.02.03-.02-.09,0-.06.07.16,1.4,4.4-.51,6.35,2-2.29.53-6.18.58-6.36.25-.77.53-1.46.76-1.95.4.01.52,1.49.96,2.62,1,3.71.14,3.51-1.39,5-.4.39-.79.82-1.18,1.24-.01-.58-.11-4.04-.27-4.63,0,0-.03.18.08.21.25,1.8.11,3.14.18,4.37-.34.14-.55-.22-.76-.6-.54.48-1.2-.19-1.72-1.3-.03.08-.04.39-.22.21-1.96-1.93-2.35-4.94-2.45-7.62-.08-2.31,1.36.65,1.61,1.3.22.59.61,3.49.72,4.05-.02-1.1-.74-4.41-.4-4.62h0ZM110.57,55.62c-1.09-4.35-1.66-5.89-.38-.86.02.06.07.21.14.37.09.21.19.43.24.49,0,0,0,0,0,0Z"/>
      <path class="cls-37" d="M107.36,75.91c.3.52.78,1.87.91,2.41-1.97,3.01-1.58,5.97-1.52,5.94.15-.07-.6-3.55,1.82-6.19.12-.12.24-.22.38-.3-.51.04-.9-.7-1.12-1.72-.05.08-.13.05-.27-.16l-.77-1.22c-.58-.92.07-6.07.14-6.42.45-2.26,1.18.93,1.27,1.62.08.62-.03,3.31-.06,3.87.23-1.07.12-4.23.5-4.37.38.48,1.04,1.75,1.24,2.26-1.35,2.89-.87,5.47-.7,5.99.02,0,.03-.02.05-.02-.08-.63-.91-3.6.92-6.26.05-.6.27-2.77.76-2.98.11.4,1.11,2.98,1.22,3.58.03.17.35,4.54-1.91,6.05,0,0,0,0,0,0,2.43-1.81,2.06-5.87,1.99-6.04-1.08-2.67,1.1-3.46,1.43-3.88.39.1-.08,3.71.09,4.91.12,3.65-.96,3.5-3.45,5.19.04.12-.71-.77-.69-.64.02.1.72.7.83,1.47,0,.04.01-.09.01-.05,0,.17-.3,4.6-2.79,5.75,2.71-1.44,2.75-5.59,2.87-5.73.51-.63,1.03-1.18,1.42-1.56.37.15-.06,1.57-.06,2.78-.42,3.81-1.15,3.33-3.12,4.18-.52.23-1.04.49-1.55.74.2-.54,1.38-3.82,1.44-4.42,0,0-.09.16,0,.23-.43,1.77-1.05,2.98-1.43,4.14-.37.01-.43-.39-.49-.83-.68.26-1.05-.6-1.13-1.81-.06.07-.18.35-.28.12-1.12-2.48-.39-5.44.5-7.97.76-2.18,1.04,1.08,1.03,1.78,0,.63-.7,3.48-.81,4.03.38-1.03.92-4.38,1.32-4.46h0ZM110.05,77.37c.58-4.44.6-6.08-.04-.94,0,.06,0,.22,0,.39,0,.22.02.47.05.55,0,0,0,0,0,0Z"/>
      <path class="cls-53" d="M10.84,76.03c-.29.52-.71,1.86-.83,2.39,2.06,2.97,1.77,5.91,1.7,5.87-.15-.07.48-3.52-2.01-6.12-.12-.11-.25-.21-.39-.3.51.04.87-.7,1.06-1.71.05.08.13.05.26-.16l.73-1.21c.55-.91-.27-6.01-.35-6.36-.52-2.24-1.15.93-1.22,1.61-.06.62.14,3.28.18,3.84-.27-1.06-.25-4.19-.64-4.32-.36.47-.98,1.74-1.17,2.25,1.44,2.85,1.04,5.42.89,5.93-.02,0-.03-.02-.05-.02.06-.62.79-3.57-1.12-6.19-.07-.59-.36-2.74-.85-2.95-.1.4-1.01,2.96-1.1,3.55-.02.16-.2,4.5,2.1,5.98,0,0,0,0,0,0-2.48-1.78-2.24-5.8-2.18-5.97.98-2.65-1.21-3.42-1.55-3.84-.39.1.2,3.67.07,4.86,0,3.62,1.07,3.46,3.61,5.12-.04.12.69-.77.66-.64-.02.09-.7.7-.78,1.46,0,.03-.02-.09-.02-.05,0,.17.45,4.55,2.97,5.68-2.74-1.41-2.92-5.52-3.04-5.66-.53-.62-1.07-1.17-1.47-1.54-.37.15.11,1.56.15,2.75.54,3.77,1.25,3.29,3.25,4.12.53.22,1.05.48,1.57.73-.22-.54-1.49-3.77-1.57-4.37,0,0,.1.16,0,.23.48,1.75,1.14,2.94,1.56,4.1.37,0,.42-.39.46-.82.69.26,1.02-.6,1.07-1.8.06.07.19.34.28.12,1.04-2.47.21-5.39-.75-7.89-.83-2.16-1,1.08-.97,1.77.03.62.81,3.44.94,3.99-.41-1.02-1.06-4.33-1.46-4.41h0ZM8.21,77.49c-.72-4.4-.79-6.02.01-.93,0,.06.02.22.02.39,0,.22,0,.46-.03.54,0,0,0,0,0,0Z"/>
      <path class="cls-69" d="M10.89,54.92c-.46.37-1.37,1.45-1.68,1.9.76,3.49-.64,6.08-.69,6.03-.11-.12,1.8-3.06.49-6.37-.07-.15-.15-.29-.24-.42.46.22,1.07-.32,1.63-1.19.02.09.11.09.3-.06l1.14-.85c.86-.64,2.06-5.63,2.12-5.98.38-2.25-1.41.43-1.74,1.04-.29.54-1.13,3.07-1.31,3.6.16-1.07,1.38-3.95,1.07-4.21-.51.3-1.57,1.24-1.94,1.64.23,3.15-1.12,5.37-1.46,5.79-.01-.01-.02-.03-.04-.04.29-.55,2.09-3,1.35-6.11.16-.57.72-2.66.35-3.03-.25.33-2.07,2.35-2.38,2.87-.09.14-1.91,4.07-.37,6.27,0,0,0,0,0,0-1.6-2.55.17-6.16.29-6.29,1.92-2.08.2-3.59.04-4.1-.39-.05-1.22,3.45-1.8,4.5-1.39,3.33-.34,3.58,1.35,6.04-.08.1.93-.46.86-.35-.05.08-.91.39-1.28,1.05-.02.03.02-.09,0-.06-.06.15-1.33,4.35.55,6.31-1.98-2.3-.57-6.15-.63-6.33-.25-.77-.53-1.46-.76-1.95-.4,0-.5,1.47-.92,2.59-.95,3.67-.11,3.49,1.4,4.99.4.4.78.83,1.17,1.24,0-.57.07-4.02.23-4.6,0,0,.03.18-.08.21-.23,1.79-.08,3.12-.14,4.34.34.14.54-.21.74-.59.54.49,1.17-.18,1.67-1.27.03.09.04.38.21.21,1.9-1.89,2.26-4.88,2.34-7.54.06-2.29-1.33.62-1.57,1.27-.21.58-.57,3.46-.67,4.01,0-1.09.69-4.37.35-4.59h0ZM7.9,55.31c1.03-4.31,1.58-5.83.37-.85-.01.06-.07.21-.14.37-.08.2-.18.42-.23.49,0,0,0,0,0,0Z"/>
      <path class="cls-37" d="M16.78,36.48c-.57.18-1.83.84-2.29,1.14-.64,3.52-2.93,5.4-2.95,5.34-.06-.15,2.84-2.18,2.9-5.72,0-.16-.03-.32-.06-.47.34.37,1.12.1,1.97-.5-.02.09.06.12.3.06l1.38-.37c1.04-.28,4.07-4.47,4.26-4.77,1.22-1.95-1.47-.12-2.01.32-.48.4-2.23,2.43-2.59,2.86.56-.94,2.79-3.16,2.61-3.51-.59.09-1.93.58-2.42.81-.99,3.01-3.1,4.56-3.57,4.83,0-.02-.01-.03-.02-.05.48-.4,3.09-2.01,3.59-5.17.37-.47,1.69-2.2,1.48-2.68-.35.22-2.82,1.42-3.3,1.79-.13.1-3.33,3.07-2.74,5.68,0,0,0,0,0,0-.51-2.95,2.52-5.65,2.68-5.73,2.58-1.22,1.56-3.25,1.61-3.79-.35-.19-2.46,2.75-3.39,3.51-2.56,2.58-1.69,3.19-1.06,6.09-.11.06,1.03-.08.93,0-.08.06-.99.03-1.59.51-.03.02.05-.07.03-.05-.12.12-2.9,3.55-1.91,6.06-.96-2.86,1.83-5.91,1.84-6.1.06-.8.07-1.55.04-2.09-.37-.14-1.02,1.18-1.84,2.07-2.29,3.06-1.44,3.19-.61,5.14.22.51.41,1.06.6,1.58.23-.53,1.61-3.7,1.97-4.18,0,0-.04.18-.15.17-.9,1.57-1.27,2.87-1.79,3.97.26.26.58,0,.91-.27.31.65,1.15.27,2.03-.56,0,.09-.11.37.12.27,2.49-1.05,3.97-3.7,5.06-6.13.94-2.1-1.47.09-1.94.6-.42.46-1.86,3-2.16,3.47.43-1.01,2.32-3.8,2.08-4.13h0ZM13.87,35.74c2.61-3.62,3.7-4.83.67-.65-.04.05-.14.17-.27.29-.16.16-.33.32-.4.37,0,0,0,0,0,0Z"/>
      <path class="cls-84" d="M14.85,48.9l-3.6-4,2.17-.72-2.53.81-4.38,1.37.33-2.13,1.56-.45,9.17-2.95-1.04,2.37-3.2,1.02,2.21,2.48-.68,2.21h0ZM9.86,43.32l2.08-.64-1.37-1.53-1.78-1.72-.68,1.9,1.75,2Z"/>
      <path class="cls-70" d="M91.17,26.31l5.27-.68-.47,2.08.58-2.41,1.04-4.23,1.66,1.46-.39,1.47-2.03,8.67-1.55-2,.73-3.05-3.25.41-1.57-1.72h0ZM98.5,25.39l-.49,1.97,2.01-.25,2.38-.47-1.53-1.56-2.37.31Z"/>
      <path class="cls-37" d="M101.7,42.05l5.09,1.58-1.35,1.68,1.59-1.94,2.61-3.19,1.06,1.81-1,1.16-5.32,6.42-.89-1.88,2.01-2.46-3.14-.99-.67-2.21h0ZM108.77,44.27l-1.32,1.58,1.94.61,2.37.57-.7-2.12-2.3-.64Z"/>
      <path class="cls-21" d="M106.22,61.44l4.39,2.98-1.79,1.22,2.1-1.4,3.45-2.3.47,2.04-1.31.82-7.54,4.87.25-2.32,2.66-1.77-2.7-1.84.02-2.3h0ZM112.3,65.6l-1.73,1.13,1.67,1.14,2.1,1.23-.29-2.31-1.74-1.19Z"/>
      <path class="cls-4" d="M104.03,81.34l2.96,4.35-2.13.49,2.48-.55,4.08-.9-.33,2.06-1.53.29-8.22,1.73.48-1.97,3.14-.69-1.82-2.68.89-2.13h0ZM108.12,87.4l-2.04.43,1.12,1.66,1.49,2.12.96-2.11-1.54-2.09Z"/>
      <path class="cls-88" d="M17.31,89.03l-5.19-1.24,1.22-1.77-1.45,2.05-2.38,3.36-1.19-1.74.92-1.23,5.44-7.52.61,2.43-2.01,2.72,3.2.77.82,2.16h0ZM10.1,87.29l1.2-1.66-1.98-.48-2.5-.45.53,1.96,2.75.63Z"/>
      <path class="cls-85" d="M12.41,69.2l-4.44-2.91,1.77-1.25-2.08,1.43-3.42,2.35-.5-2.03,1.3-.84,7.6-5.2-.22,2.53-2.77,1.81,2.73,1.8v2.3h.01ZM6.26,65.13l1.72-1.16-1.69-1.11-2.34-1.59v2.21s2.32,1.65,2.32,1.65Z"/>
      <path class="cls-51" d="M58.65.36c32.1,0,58.29,29.2,58.29,64.99s-26.18,64.99-58.29,64.99S.36,101.15.36,65.35,26.55.36,58.65.36h0ZM59.01,3.56C28.61,3.56,3.82,31.27,3.82,65.24s24.79,61.68,55.19,61.68,55.19-27.71,55.19-61.68S89.41,3.56,59.01,3.56Z"/>
      <path class="cls-22" d="M59.45,11.43c25.78,0,46.81,24.19,46.81,53.85s-21.03,53.85-46.81,53.85S12.63,94.95,12.63,65.29,33.66,11.43,59.45,11.43h0ZM59.45,14.78c-24.18,0-43.9,22.69-43.9,50.5s19.72,50.5,43.9,50.5,43.9-22.69,43.9-50.5S83.62,14.78,59.45,14.78Z"/>
      <path class="cls-74" d="M22.7,31.81l-1.65-5.1,2.23.18-2.59-.23-4.49-.43,1.15-1.85,1.58.18,8.93.94-1.4,1.67-3.28-.29,1.01,3.15-1.48,1.79h0ZM20.43,24.71l2.12.21-.63-1.95-.91-2.28-1.37,1.28.79,2.75Z"/>
      <path class="cls-20" d="M72.12,57.17v29.73c-.51,1.94-2.31,3.38-4.44,3.38h-5.9l-1.86,1.15-.17-.11v-34.15h12.37Z"/>
      <path class="cls-59" d="M59.61,57.17v34.06l-1.45-.95h-6.9c-2.52,0-4.58-2.02-4.58-4.49,0-9.54.1-19.09.1-28.62h12.84Z"/>
      <path class="cls-45" d="M77.6,89.45c0,3.18-2.92,5.79-6.49,5.79h-8.35l-2.64,1.48-2.5-1.48h-9.77c-3.57,0-6.49-2.61-6.49-5.79,0-12.3.14-24.61.14-36.89h36.09v36.89h0ZM72.18,85.93v-28.12h-25.29c0,9.36-.1,18.75-.1,28.12,0,2.43,2.05,4.41,4.55,4.41h6.85l1.75,1.13,1.85-1.13h5.85c2.5,0,4.55-1.99,4.55-4.41Z"/>
      <path class="cls-64" d="M43.46,89.65l-.1-.65,2.02-.38c.08-.02.14-.04.17-.07.03-.03.05-.08.04-.13-.02-.11-.1-.15-.26-.12l-2.02.38-.1-.64,2.02-.38c.23-.04.43,0,.58.1.15.11.24.3.29.58.04.24.02.43-.06.58-.09.18-.28.3-.55.35l-2.02.38h0ZM42.85,85.5l2.75.02v.69s-1.53.33-1.53.33c.1,0,.22-.01.36-.02.12-.01.23-.02.33-.01h.84s0,.66,0,.66l-2.75-.02v-.69s1.37-.34,1.37-.34c-.1,0-.21.01-.32.02-.17.01-.29.02-.36.02h-.68s0-.65,0-.65h0ZM45.6,85.15l-2.75-.02v-.65s2.76.02,2.76.02v.65h0ZM42.87,82.67l2.75.43v.84s-2.76.38-2.76.38v-.63s.73-.09.73-.09c.09-.01.35-.04.79-.07l.2-.02-.21-.02c-.4-.04-.66-.06-.79-.08l-.72-.1v-.64h0ZM45.62,82.52l-2.75-.02v-1.34s.54,0,.54,0v.68s.42,0,.42,0v-.66s.53,0,.53,0v.66s.72,0,.72,0v-.71s.54,0,.54,0v1.36h0ZM45.63,80.89l-2.75-.02v-.93c0-.26.07-.45.2-.56.11-.09.28-.14.51-.14.27,0,.44.05.52.14.04.04.07.1.09.18.02-.08.05-.14.1-.18.04-.03.09-.05.14-.06.04,0,.11-.01.21-.01h1s0,.66,0,.66h-.99c-.11,0-.18,0-.22.03-.04.04-.07.09-.07.18,0,.01,0,.04,0,.06h1.27s0,.66,0,.66h0ZM43.87,80.23v-.13c0-.15-.07-.23-.23-.23-.06,0-.11,0-.16.03-.06.03-.1.09-.1.19v.14s.48,0,.48,0h0ZM44.66,79v-.64s.19,0,.19,0c.13,0,.21-.01.25-.04.05-.03.07-.07.07-.13,0-.12-.08-.19-.25-.19-.08,0-.15.01-.21.04-.05.02-.08.05-.12.08-.03.03-.1.12-.21.26-.17.21-.29.36-.38.43-.15.12-.31.18-.49.17-.28,0-.48-.12-.58-.34-.06-.12-.09-.28-.09-.47,0-.21.04-.39.11-.53.09-.17.25-.26.47-.27.15,0,.24,0,.26,0v.64s-.07,0-.1,0c-.15,0-.23.05-.23.17,0,.05.02.09.05.12.03.02.06.04.1.04.05,0,.11-.02.16-.07.04-.03.14-.15.29-.35l.07-.09c.14-.18.26-.31.35-.37.12-.08.29-.12.51-.12.53,0,.79.29.79.85,0,.29-.07.5-.21.64-.08.08-.19.13-.32.15-.04,0-.14,0-.3,0h-.2ZM45.66,77.07l-2.75-.02v-.65s2.75.02,2.75.02v.65h0ZM45.66,76.05l-2.75-.02v-.76c0-.25.03-.43.07-.52.06-.15.16-.25.3-.3.11-.04.32-.06.64-.06h.74c.34.01.56.03.64.08.12.06.21.15.27.27.06.12.09.29.09.49v.81h0ZM45.14,75.4v-.14c0-.06-.01-.1-.03-.14-.02-.03-.04-.05-.08-.06-.04-.01-.1-.02-.18-.02h-1.11c-.12,0-.2,0-.24.03-.05.03-.07.09-.07.18v.13s1.72.01,1.72.01h0ZM45.68,73.16l-.39.03v.35s.39.06.39.06v.63s-2.75-.45-2.75-.45v-.87s2.76-.41,2.76-.41v.65h0ZM44.77,73.49v-.24s-.27.02-.27.02c-.65.05-1.03.08-1.14.08.34.03.72.06,1.13.11l.28.03h0ZM45.69,72.33l-2.75-.02v-.76c0-.25.03-.43.07-.52.06-.15.16-.25.3-.3.11-.04.33-.06.64-.06h.74c.34,0,.56.04.64.08.12.06.21.15.27.27.06.12.09.29.08.49v.81h0ZM45.16,71.68v-.14c0-.06-.01-.1-.03-.14-.02-.03-.05-.05-.08-.06-.04-.01-.1-.02-.18-.02h-1.11c-.12,0-.2,0-.24.03-.05.03-.07.09-.07.18v.13s1.72.01,1.72.01h0ZM42.97,65.97l2.75.02v.69s-1.53.33-1.53.33c.1,0,.22-.01.36-.02.12-.01.23-.02.33-.01h.84s0,.66,0,.66l-2.75-.02v-.69s1.37-.34,1.37-.34c-.1,0-.21.01-.32.02-.17.01-.29.02-.36.02h-.68s0-.65,0-.65h0ZM45.73,64.67l-.39.03v.35s.39.06.39.06v.63s-2.75-.45-2.75-.45v-.87s2.76-.41,2.76-.41v.65h0ZM44.82,65.01v-.24s-.27.02-.27.02c-.65.05-1.03.08-1.14.08.34.03.72.06,1.13.11l.28.03h0ZM44.54,62.84v-.66s.5,0,.5,0c.26,0,.46.09.58.25.11.14.16.34.16.58,0,.33-.1.56-.28.7-.1.07-.21.11-.33.12-.07,0-.16,0-.27,0h-1.15c-.24-.01-.4-.05-.5-.11-.2-.14-.3-.39-.3-.76,0-.53.25-.79.74-.79h.35s0,.66,0,.66h-.28c-.11,0-.18,0-.22.02-.05.02-.08.07-.08.14,0,.08.03.13.09.16.03.01.1.02.21.02h1.15c.14,0,.23,0,.27-.02.05-.03.08-.07.08-.14,0-.07-.03-.12-.09-.15-.04-.02-.12-.03-.26-.03h-.37ZM45.75,61.92l-2.75-.02v-.65s2.76.02,2.76.02v.65h0ZM45.11,60.93h-1.38c-.31-.01-.52-.12-.64-.33-.08-.14-.12-.31-.12-.52,0-.55.26-.82.77-.82h1.41c.21.01.38.1.49.26.11.15.16.35.16.59,0,.29-.08.5-.24.65-.12.11-.27.17-.46.16h0ZM44.91,59.93h-1.14c-.13,0-.22,0-.26.03-.04.03-.06.07-.06.13,0,.05.02.09.05.13.04.04.13.05.26.06h1.14c.12,0,.2,0,.24-.01.07-.03.11-.08.11-.16,0-.07-.03-.11-.09-.14-.04-.02-.13-.03-.27-.03h0ZM43.03,57.29l2.75.02v.69s-1.53.33-1.53.33c.1,0,.22-.01.36-.02.12-.01.23-.02.33-.01h.84s0,.66,0,.66l-2.75-.02v-.69s1.36-.34,1.36-.34c-.1,0-.21.01-.32.02-.17.01-.29.02-.36.02h-.68s0-.65,0-.65h0ZM45.79,56l-.39.03v.35s.39.06.39.06v.63s-2.75-.45-2.75-.45v-.87s2.76-.4,2.76-.4v.65h0ZM44.88,56.33v-.24s-.27.02-.27.02c-.65.05-1.03.08-1.14.08.34.03.72.06,1.13.11l.28.03h0ZM45.79,55.17l-2.75-.02v-.65s2.21.02,2.21.02v-.67s.55,0,.55,0v1.32Z"/>
      <path class="cls-64" d="M46.8,56.62v-2.89h.86c.28,0,.48.02.58.07.16.06.28.17.34.32.05.12.07.34.07.67v.78c0,.36-.03.59-.08.67-.06.13-.17.23-.3.29-.14.06-.32.09-.55.09h-.91ZM47.53,56.06h.15c.06,0,.12-.01.15-.04.03-.02.05-.05.06-.08.01-.05.02-.11.02-.19v-1.17c0-.13-.02-.21-.04-.25-.03-.05-.1-.08-.2-.08h-.15v1.81Z"/>
      <path class="cls-64" d="M56.04,56.55v-2.89h.79v.98h.41v-.98h.78v2.89h-.78v-1.36h-.41v1.36h-.79ZM58.44,53.66h.78v2.15c0,.09.01.15.04.19.03.04.08.06.15.06.13,0,.2-.08.2-.25v-2.15h.78v2.15c0,.25-.08.44-.25.58-.16.14-.41.2-.75.2-.29,0-.51-.05-.67-.15-.19-.12-.29-.33-.29-.63v-2.15h0ZM61.9,56.55l-.04-.41h-.42l-.07.41h-.75l.51-2.89h1.04l.51,2.89h-.78ZM61.5,55.59h.29l-.03-.29c-.06-.68-.1-1.08-.11-1.2-.03.36-.07.76-.12,1.19l-.03.3h0ZM64.85,53.66v2.89h-.82l-.41-1.6c0,.11.02.23.03.38.01.12.02.24.02.35v.88h-.78v-2.89h.83l.42,1.43c0-.11-.02-.22-.03-.33-.02-.18-.03-.3-.03-.38v-.72h.77ZM65.27,53.66h.78v2.15c0,.09.01.15.04.19.03.04.08.06.15.06.13,0,.2-.08.2-.25v-2.15h.78v2.15c0,.25-.08.44-.25.58-.16.14-.41.2-.75.2-.29,0-.51-.05-.67-.15-.19-.12-.29-.33-.29-.63v-2.15h0ZM68.79,55.29h.79v.52c0,.28-.1.48-.29.61-.17.11-.4.17-.69.17-.4,0-.67-.1-.83-.29-.09-.1-.13-.22-.15-.35,0-.08-.01-.17-.01-.28v-1.21c0-.25.04-.42.12-.53.16-.21.47-.32.91-.32.63,0,.95.26.95.77v.37h-.79v-.29c0-.12,0-.19-.03-.23-.03-.06-.09-.08-.17-.08-.09,0-.15.03-.19.1-.02.04-.03.11-.03.22v1.21c0,.14.01.24.04.28.03.06.09.08.17.08.09,0,.15-.03.18-.09.02-.04.03-.13.03-.27v-.39h0ZM69.9,55.86v-1.45c0-.32.12-.55.37-.67.16-.08.37-.13.62-.13.66,0,.99.27.99.8v1.49c0,.22-.1.4-.29.52-.18.11-.42.17-.7.17-.34,0-.6-.08-.78-.25-.13-.12-.2-.28-.2-.48h0ZM71.09,55.66v-1.19c0-.14-.02-.23-.05-.27-.03-.04-.08-.06-.15-.06-.06,0-.11.02-.15.05-.04.04-.06.14-.06.28v1.2c0,.12,0,.21.03.25.03.07.1.11.19.11.08,0,.13-.03.16-.09.02-.04.03-.13.03-.28Z"/>
      <path class="cls-64" d="M73.47,55.16h2.85s0,.67,0,.67h-.97s0,.35,0,.35h.97s0,.67,0,.67h-2.85s0-.66,0-.66h1.34s0-.35,0-.35h-1.34s0-.67,0-.67h0ZM73.47,57.47h2.85s0,1.36,0,1.36h-.56s0-.69,0-.69h-.44s0,.67,0,.67h-.55s0-.67,0-.67h-.75s0,.72,0,.72h-.56s0-1.39,0-1.39h0ZM73.48,59.37h2.85s0,.95,0,.95c0,.27-.06.46-.19.57-.11.09-.29.14-.53.14-.28,0-.46-.04-.54-.13-.04-.04-.07-.1-.09-.18-.02.08-.05.14-.1.18-.04.03-.09.05-.14.06-.04.01-.12.02-.22.02h-1.03s0-.66,0-.66h1.02c.11,0,.19-.02.23-.05.05-.04.07-.1.07-.18,0-.01,0-.04,0-.06h-1.31s0-.66,0-.66h0ZM75.3,60.03v.13c0,.15.08.23.24.23.06,0,.12-.01.17-.03.07-.03.1-.09.1-.19v-.14s-.5,0-.5,0h0ZM76.34,64.2h-2.85s0-.66,0-.66h1.28c.18,0,.49.02.91.04l-2.19-.4v-.6s2.17-.4,2.17-.4c-.16,0-.31.02-.42.02-.24.01-.41.02-.49.02h-1.27s0-.66,0-.66h2.85s0,1.04,0,1.04l-.86.16c-.21.04-.47.07-.79.11.34.04.61.07.79.1l.85.15v1.05h.01ZM73.49,64.82h2.85s0,.66,0,.66h-2.85s0-.66,0-.66h0ZM73.49,66.1h2.85s0,.66,0,.66h-2.29s0,.68,0,.68h-.56s0-1.34,0-1.34h0ZM73.49,67.93h2.85s0,.66,0,.66h-2.85s0-.66,0-.66h0ZM74.17,69.18h1.43c.32,0,.54.1.67.31.08.14.13.31.13.52,0,.56-.26.84-.79.84h-1.47c-.22,0-.39-.08-.51-.25-.11-.15-.17-.35-.17-.6,0-.29.08-.51.24-.66.12-.11.28-.17.47-.17h0ZM74.38,70.2h1.18c.14,0,.22-.02.27-.04.04-.03.06-.07.06-.13,0-.05-.02-.1-.05-.13-.04-.04-.13-.05-.27-.05h-1.19c-.12,0-.21.01-.25.03-.07.03-.11.08-.11.16,0,.07.03.11.09.14.04.02.13.03.28.03h0ZM76.36,75.7l-2.85-.41v-.85s2.85-.41,2.85-.41v.64s-.75.1-.75.1c-.09.01-.36.04-.81.08l-.21.02.21.02c.41.03.69.06.81.07l.75.09v.65h0ZM73.51,77.01l.41-.04v-.36s-.41-.06-.41-.06v-.64s2.85.43,2.85.43v.89s-2.85.44-2.85.44v-.66h0ZM74.45,76.66v.25s.29-.03.29-.03c.67-.06,1.06-.09,1.18-.1-.36-.03-.75-.06-1.18-.1l-.29-.03h0ZM73.51,78.1h2.85s0,.66,0,.66h-2.29s0,.68,0,.68h-.56s0-1.34,0-1.34h0ZM73.51,79.93h2.85s0,.77,0,.77c0,.26-.02.43-.07.52-.06.15-.17.25-.31.31-.12.04-.34.06-.66.07h-.77c-.36,0-.58-.02-.66-.07-.13-.06-.22-.15-.28-.28-.06-.13-.09-.29-.09-.5v-.82h0ZM74.06,80.59v.14c0,.06.01.11.04.14.02.03.05.05.08.06.04.01.11.02.19.02h1.15c.13,0,.21-.02.25-.04.05-.03.07-.09.07-.18v-.13s-1.79,0-1.79,0h0ZM73.52,82.19h2.85s0,.66,0,.66h-2.85s0-.66,0-.66h0ZM73.52,84.84v-1.47s.54,0,.54,0l1.76.8v-.79s.55,0,.55,0v1.53s-.52,0-.52,0l-1.77-.82v.74s-.56,0-.56,0h0ZM73.52,86.32l.41-.04v-.36s-.41-.06-.41-.06v-.64s2.85.43,2.85.43v.89s-2.85.44-2.85.44v-.66h0ZM74.47,85.97v.25s.29-.03.29-.03c.67-.06,1.06-.09,1.18-.1-.36-.03-.75-.06-1.18-.1l-.29-.03h0ZM76.38,89.07h-2.85s0-.7,0-.7l1.58-.35c-.11,0-.23.02-.37.03-.12.01-.23.02-.34.02h-.87s0-.66,0-.66h2.85s0,.7,0,.7l-1.41.36c.11,0,.22-.02.33-.03.18-.02.3-.03.37-.03h.71s0,.66,0,.66Z"/>
      <path class="cls-80" d="M51.18,74.82c1.05-1.54,2.25-3.17,2.77-4.47.59-1.47,4.04.24,2.77,1.66-1.27,1.4-2.25,2.06-3.13,4.65,0,.02-.08,1.18-.26,1.51-.39.7-.75,1.5-1.41,1.82-.24.12-.27.3-.52.07-.32-.32-.27.29-1.11.44-.33.06-.34-.41-.43-.44-.35-.13-.58.94-1.02.02-.05-.11-.03-.4-.03-.06,0,.28-.95-.15-.82-.48.4-1,.24-.72.18-.84-.18-.37-.17-.3-.14-.58.04-.47.45-1.27.71-1.73.45-.83,2.64-1.72,2.42-1.56Z"/>
      <path class="cls-71" d="M48.29,78.74c.36-.48.84-1.2,1.26-1.57"/>
      <path class="cls-40" d="M48.83,79.72c.05-.41.74-1.14,1.29-1.97"/>
      <path class="cls-40" d="M49.76,80.05c.4-.47.73-.82,1.06-1.56"/>
      <path class="cls-73" d="M51.32,80.09c-.19-.52.51-.82.47-1.47"/>
      <path class="cls-38" d="M53.11,76.12c-.59-1.21-2.07-3.26-3.11-4.24-1.18-1.11,1.9-3.38,2.74-1.7.83,1.67,1.06,2.78,3.21,4.6.01.01,1.11.55,1.34.85.38.47,1.32,1.4,1.21,2.02-.05.25.14.3-.18.41-.44.15.17.35-.03,1.14-.08.31-.53.13-.6.19-.27.25.7.73-.4.9-.13.02-.4-.15-.07-.02.27.11-.78.62-.95.44-.77-.65-.52-.43-.65-.43-.43,0-.71.08-.86-.16-.25-.39-.67-1.07-1.01-1.48-.1-.44-.7-2.77-.63-2.52Z"/>
      <path class="cls-3" d="M55.72,80.2c-.12-.49-.72-1.1-.89-1.6"/>
      <path class="cls-3" d="M57.03,80.22c-.26-.29-1.17-1.33-1.31-1.89"/>
      <path class="cls-3" d="M57.65,79.41c-.4-.45-.76-1.02-1.3-1.48"/>
      <path class="cls-5" d="M58.32,78.12c-.45-.05-.81-.83-1.2-.95"/>
      <path class="cls-66" d="M51.55,72.3c0,2.12,2.77,2.61,2.77,4.72,0,.19.03.06-.1-.03"/>
      <path class="cls-19" d="M62.65,72.04c-.02-.16-.04-.32-.06-.47-.11-.94-.17-1.77.34-2.68.03-.05-.13,1.11.37,1.12-.32-.87.27-2.28,1.62-2.86.7-.39.01-2.36.02-2.22,0,.33,1.2.95,1.03,1.88-.05.26.41-.67.45-.62.27.41-.18,1.6-.09,1.6.55-.03,1.01.72,1.17,1.04.71,1.43-.29-2.2.25-.89.23.56.48,1.13.58,1.73.11.66.11,1.35-.05,2.05l-.1.44-2.27-.16-3.25.04h0ZM63.59,71.9s.09.08.27.08l3.22.04.09-.15c.12-.5.14-.98.06-1.44-.06-.38-.23-.74-.37-1.08-.34-.82.3,1.46-.16.56-.1-.2-.4-.67-.75-.65-.06,0,.23-.75.06-1-.03-.03-.32.55-.29.39.11-.58-.41-.92-.4-1.12,0-.09.26,1.11-.27,1.34-.87.36-1.24,1.25-1.04,1.79-.32,0-.22-.74-.24-.7-.39.66-.3,1.26-.18,1.97Z"/>
      <path class="cls-8" d="M63.54,71.85c-.13-.75-.22-1.38.19-2.07.02-.04-.09.73.25.74-.22-.57.19-1.5,1.11-1.88.57-.24.3-1.5.29-1.41-.01.21.54.57.43,1.18-.03.17.28-.44.31-.41.18.27-.12,1.06-.06,1.05.38-.02.69.48.8.69.48.94-.2-1.45.17-.59.16.37.33.74.4,1.14.09.49.05,1-.07,1.52l-.09.16-3.43-.04c-.19,0-.29-.07-.28-.08h0ZM64.38,71.78s.06.04.16.05l1.92.02.05-.09c.07-.29.09-.58.04-.85-.04-.22-.13-.43-.22-.64-.21-.48.18.86-.1.33-.06-.12-.24-.4-.45-.39-.03,0,.14-.44.04-.59-.02-.02-.19.33-.17.23.07-.34-.25-.54-.24-.66,0-.05.16.66-.16.79-.52.21-.74.74-.62,1.06-.19,0-.13-.44-.14-.42-.23.39-.18.74-.11,1.16Z"/>
      <path class="cls-23" d="M64.25,72.04c-.08-.45-.13-.83.12-1.24.01-.02-.06.44.16.44-.13-.34.11-.9.68-1.13.35-.14.18-.9.18-.84,0,.13.33.34.26.71-.02.1.17-.26.19-.25.11.16-.08.63-.04.63.23-.01.43.29.49.41.3.57-.12-.87.1-.35.1.22.2.45.24.68.05.29.03.6-.04.91l-.06.1-2.11-.03c-.11,0-.18-.04-.17-.05Z"/>
      <path class="cls-36" d="M63.71,74.3v.06s3.15,0,3.15,0l.02-.02-3.17.03c.43,2.47.86,4.93,1.3,7.4.04.34.66.71.77-.02l1.05-6.99.02-.13.03-.22v-.08c.31-.11.53-.4.56-.74h-4.23c.03.32.23.59.5.72h0ZM68.04,72.23c.1.17.14.41.06.6h-.03c-.06.39-.51.7-1.06.7h-3.33c-.55,0-1-.31-1.06-.7h0s0-.02,0-.02h0s5.4-.01,5.4-.01h-5.4c-.07-.21-.04-.39.08-.56.27-.37,5.3-.25,5.35,0Z"/>
      <path class="cls-68" d="M51.74,23.92c-.24-.13-.58-.19-.89-.02-.08.05-.39.6-.58.71-.19.11-.87.4-.99.6-.55.96-.37,2.7.37,3.04.26.12,1.33,1.49,1.33,1.83s-.05.17-.53-.35c-.35-.37-.91-.21-1.15.08-.27.34-.13.93.05,1.31.22.49,1.11.82,1.95.64.58-.12,1.47-.19,1.47-1.22,0-.11-.03-.6.11-.59.88.07,1.37-.38.66-1.72-.13-.25.03-.39.24-.54.03.03-.55-.09-.52-.05.09.09.37.87.56,1.23.14.25.93.2,1.19.28.15.05.3-.08.33-.06.27.13,1.15-.2,1.55-.09-.47,0-.38.56.08.61.42.05-.28,1.67-.1,2.28.06.2.68-.03.96-.06.32-.04,1.2-.02,1.77-.01.13.05.3.04.52.01,0,0,0,0,.01,0,.11,0,.19-.01.27-.04.82-.12,2.1.57,3.84,1.03,1.07.28,2.97,2.77,3.19,3.62.37,1.41,2.47,2.32,3.66.86,1.13-1.38.15-2.97-1.34-1.98.57.75.71,1.25.04,1.27-1.2.04-.53-2.29-.36-2.43,1.17-.99-1.17-2.39.73-2.17,1.66.19,1.23-4.05-.65-2.8-.12.12.74,1.35-.06,1.23-.72-.1.03-.96.42-2.42.07-.26-.1-.53-.02-.81.16-.61-.48-1.46-.53-2.32-.05-.85-.4-1.62-.71-2.18-1.27-2.26-3.11-1.31-5.31.53.18-.6.62-.65,1.11-.92,1.24-.71-1-2.81-2.56-2.83-.54,0-2.32.31-2.32.98,0,.23.28.47.11.17-1.22-2.15-3.06-1.73-3.95-.7-.47.54-.55,1.38-.34,1.73.15.26-.27-.41-.69-.47-1.32-.19-2.07,1.63-2.07,2.42,0,.11-.79-.39-.85.33h0ZM62,25.62c.01-.09.02-.18.02-.28,0-.14.48-.23.92-.31-.29.21-.62.41-.94.59Z"/>
      <path class="cls-49" d="M68.24,25.38c.15.61.12.98-.17,1.69-.23.55,1.05-.78.39-1.51l-.22-.18Z"/>
      <path class="cls-34" d="M63.7,24.1c.17-.4.55-.54.79-.87.14-.2.11-.47.26-.62,1.26-1.14,2.83-.87,3.61.05.57.68,1.57,3.73,1.13,5.34-.19.71-.7,1.31-.7,1.8,0,.49.5.81.86.87,1.21.21.15-1.21.27-1.33.94-1.17,2.04,2.9-.11,2.42-1.83-.41.65,1.27-.51,2.23-.17.14-.84,2.41.35,2.37.67-.02.53-.51-.04-1.24,1.48-.96,2.45.58,1.33,1.93-1.18,1.42-3.26.54-3.62-.83-.13-.48-1.26-.71-1.22-1.2.04-.64-.59-.6-.91-.86-.53-.43-.96-.94-1.51-1.46-.5-.47-1.36-.44-1.82-.59-1.64-.53-2.53.18-2.53-.88,0-.74.69-4.13,1.57-4.87.41-.34,1.39-.55,1.89-.93.49-.38.5-.93.91-1.33Z"/>
      <path class="cls-58" d="M62.93,29.84c1.13,1.09,1.03,1.62,3.9,1.99.07,0-2.67-.35-3.62-2.46-1.59-2.09-3.34-.26-3.52.59-.1.47.3.76.27-.09-.02-.56,1.67-1.97,2.97-.03Z"/>
      <path class="cls-86" d="M63.88,24.89h.04c.76-.93,2.9-1.93,4.57-.81.87.59,1.28,3.09,1.07,2.44-1.12-3.43-4.03-2.91-5.68-1.64Z"/>
      <path class="cls-10" d="M67.13,24.5c.3.61.36.98.23,1.69-.1.55.87-.78.03-1.51l-.26-.18Z"/>
      <path class="cls-77" d="M68.93,26.08c.15.47.12.75-.17,1.3-.23.42,1.05-.6.39-1.16l-.22-.14Z"/>
      <path class="cls-17" d="M68.52,33.99c0,.09-.25,2.69,1.37,2.28"/>
      <path class="cls-62" d="M62.15,30.2c-1.01.06-1.4,1.12-.23,1.71.46.23,1.33.71,1.72.71"/>
      <path class="cls-54" d="M62.69,30.48c-.78.04-.65.78.24.99.39.09,1.37-.05,1.37.56"/>
      <path class="cls-43" d="M67.59,34.04c.03.09.66,2.69,2.13,2.28"/>
      <path class="cls-43" d="M66.74,34.44c.03.09-.08,1.28.58,1.53"/>
      <path class="cls-60" d="M70.74,31.74s-1.12.27-1.93.36c-.82.09-2.42-.91-3.36-3.02-.62-1.4-1.54-1.91-2.8-2.25-.84-.23-1.77.65-2.21,1.4-.62,1.06-.46,2.36-.99,3.48-.15.31.05-8.59,5.36-4.87,1.07.75,1.24,3.68,3.22,4.71.63.33,1.6.29,2.72.2Z"/>
      <path class="cls-10" d="M67.92,25.06c.3.61.36.98.23,1.69-.1.55.87-.78.03-1.51l-.26-.18Z"/>
      <path class="cls-76" d="M51.52,23.68c-.21-.25-.45-.76-.97-.49-.1.05-.44.67-.65.79-.22.12-.99.45-1.12.67-.62,1.07-.42,3.01.42,3.39.29.13,1.49,1.66,1.51,2.04.03.63-.33.45-.84-.23-.32-.42-.82-.17-.99.13-.2.34-.16.88,0,1.26.22.56.95.83,1.89.62.65-.14,1.7-.13,1.7-1.28,0-.12-.2-.93.23-.8.49.15,1.55-.31.75-1.81-.21-.4.64-.49.63-.83,0-.13-.2-.25-.35-.42-.26-.29-.53-.62-.55-.64-.25-.23-.73-1.17-.85-1.83-.05-.25-.59-.75-.79-.58Z"/>
      <path class="cls-2" d="M52.06,24.04c-2.92-.25-2.11,2.37-2.01,2.08,0-.01.01,0,.03,0,.03.1.07.14.09.09.01-.04.08.07.07,0-.2-1.6.65-2.18,1.83-1.77.32.11.25-.31,0-.38h0ZM50.56,24.46c.08-.06.16-.11.26-.15-.1.05-.18.1-.26.15Z"/>
      <path class="cls-75" d="M51.95,28.98c.13.17.68.37.51,1.36,0,.06.64-1.02-.51-1.36Z"/>
      <path class="cls-57" d="M52.68,26.72c.15.16.74.34.71,1.27,0,.05.48-.96-.71-1.27Z"/>
      <path class="cls-15" d="M57.03,28.97c-.82-.21-1.16-.2-1.75.01-.38.13-.89-.48-.94-1.02-.02-.25.27-.33.11-.51-.34-.37-.35.04-.53-.23-.08-.12-.25-.69-.57-1.08-.25-.31-.69-.62-.78-.98-.07-.25-.59-.7-.65-.95-.07-.33.43-.49.43-.82,0-.19,1.03,0,.94-.28-.39-1.33,1.12-2.46,1.95-1.82.56.43.45.56.32.02-.57-2.31,3.33-3.05,3.84-.68.01.06.08.27.15.19,2.19-2.47,5.05-.22,5.08,1.13.02,1.02.52,1.95-.77,2.99-.19.16-1.62.24-1.62.47,0,.93-.68,1.32-1.25,1.79-.19.16-.58,1.01-.58,1.4,0,1.09,1.27,3.13-.08,3.13-.09,0-1.85-.06-2.35,0-1.11.12.02-2.16-.56-2.16-.1,0-.88-.6-.4-.6Z"/>
      <path class="cls-61" d="M58.63,29c.03.91-.01,1.15.1,2.59-.29-.18-.53-1.42-.35-2.25l.25-.34Z"/>
      <path class="cls-12" d="M61.65,21.12c1.97.43,2.41,1.36,2.27,2.18-.17,1.06-1.28,1.95-1.28,1.39,0-.07-.04,0-.04-.13,0-.07,2.19-1.93-.84-2.96-.1-.03-.64-.48-.12-.48Z"/>
      <path class="cls-33" d="M61.44,22.38c1.99,1.26-.46,3.67-.22,2.87.02-.05-.02,0,0-.11.02-.05,1.18-.94.18-2.38-.03-.05-.29-.39.04-.39Z"/>
      <path class="cls-39" d="M56.66,24.96c1.24-3.31,3.33.13,2.63-.07-.05-.01,0,.03-.1,0-.05-.01-1.09-2.09-2.18.07-.03.07-.42.41-.35,0Z"/>
      <path class="cls-32" d="M54.73,24.28c1.47-4.82,6.35-1.71,5.67-1.75-.08,0,.09.15-.06.09-3.25-1.29-4.62-.61-4.91,1.68-.03.26-.71.49-.7-.02Z"/>
      <path class="cls-63" d="M55.45,26.29c2.73,3.11,5.7-.38,5.17-.17-.02,0-.03,0-.03-.02.1-.14.12-.21.03-.18-.06.02.01-.14-.08-.06-2.07,1.89-3.88,1.61-4.54.02-.09-.21-.72-.19-.56.18-.03.05-.04.13.01.23h0ZM57.72,27.38c-.17,0-.34-.04-.49-.09.17.05.33.07.49.09Z"/>
      <path class="cls-13" d="M59.18,20.02c.85.4,0,1.33.05,1.03,0-.02,0,0,0-.04,0-.02.42-.37-.04-.86-.02-.02-.13-.13,0-.14Z"/>
      <path class="cls-55" d="M54.89,21.13c.76.02.79.82.65.62,0-.01,0,0-.02-.02,0-.01,0-.33-.47-.47-.03,0-.07-.02-.1-.03-.02,0-.13-.04-.05-.09Z"/>
      <path class="cls-18" d="M52.71,25.66c-.54-.78-.25-1.62-.03-2,.79-1.38,3.36-1.17,3.13-1.11-.04,0,.07.18-.02.16-1.03-.22-2.4.5-2.85,1.32-.37.67.05,1.36.35,2.06.08.18-.05.33-.58-.43Z"/>
      <path class="cls-25" d="M55.12,26.96c-.03.54.01.68-.08,1.53.26-.1.62-.82.46-1.31l-.38-.23Z"/>
      <path class="cls-35" d="M54.46,26.02c-.52.44-.56.61-.08,1.53-.56-.03-.7-1.22-.51-1.71l.58.18Z"/>
      <path class="cls-64" d="M64.35,45.73c0-.09.21-.83,0-.83-.41,0-1.34,0-1.34-.37,0-.13-.05-.66-.08-.97,1.98-1.2,3.27-3.15,3.27-5.35,0-3.64-3.54-6.6-7.87-6.6s-7.87,2.97-7.87,6.6c0,2.85,2.17,5.29,5.2,6.21-.04.11-.06.26-.06.48,0,.28.1,1.66-.21,1.66-.51,0-1.23-.09-1.23.37,0,.18-.31,1.2.1,1.2.22,0,.45.02.69.05-.69.11-1.94.46-2.71,1.2-.72.7-.98,1.77-1.4,2.69-.42,1.43-2.32,3.36-3.26,3.5,1.95.46,7.3.14,8.95-1.34.31-.28,2.67-1.62,2.78-1.62,2.52,1.48,4.68.37,5.86-.05.14.31,4.72.27,4.95-.07,1.01-.82,1-2.83.35-3.44-2.63-.45-5.13-2.93-6.3-2.65.13-.12.21-.7.17-.67Z"/>
      <path class="cls-30" d="M63.98,45.69c0-.09.19-.81,0-.81-.39,0-1.27,0-1.27-.36,0-.13-.05-.64-.08-.95,1.88-1.17,3.1-3.06,3.1-5.2,0-3.53-3.35-6.41-7.46-6.41s-7.46,2.88-7.46,6.41c0,2.77,2.06,5.14,4.93,6.03-.04.1-.06.26-.06.47,0,.27.1,1.61-.19,1.61-.49,0-1.17-.09-1.17.36,0,.18-.29,1.17.1,1.17.21,0,.43.02.65.05-.65.11-1.83.45-2.56,1.17-.69.68-.93,1.72-1.33,2.61-.4,1.39-2.2,3.27-3.09,3.4,1.85.45,6.92.14,8.48-1.3.29-.27,2.53-1.57,2.63-1.57,2.39,1.43,4.43.36,5.56-.04.41-.51.55-.92,1.15-1.37,3.51-2.66,4.74-.29,2.32,1.46.6,0,.87.11,1.62-.09.75-.2,1.56-2.91-.14-3.39-1.7-.48-4.78-2.87-5.89-2.59.12-.12.19-.68.16-.65Z"/>
      <path class="cls-28" d="M58.33,31.42c4.28,0,7.77,3.01,7.77,6.7s-3.49,6.7-7.77,6.7-7.77-3.01-7.77-6.7,3.49-6.7,7.77-6.7Z"/>
      <path class="cls-52" d="M56.25,40.99c.15.97.93,2.03,1.8,2.21.71.15,1.17,0,1.85.3l-.05,2.54c0,.28.1,1.17-.39,1.15l-5.17-.15c-.1,0,.02-.38.47-.4.25-.01.55.03.73.01.06,0,.09.01.12-.01.09-.39.11-1.43.11-2.16-.18.12-3.49-1.53-3.54-2.49,2.32.04,3.57-1.29,4.06-1Z"/>
      <g>
        <path class="cls-64" d="M51.8,37v.03-.03h0ZM51.85,37.05v2.44-2.44h0ZM50.89,36.91v2.63-2.63h0ZM57.37,37.97v1.29-1.29h0ZM56.51,37.83v1.48-1.48h0ZM55.65,37.7v1.75-1.75h0ZM54.84,37.51v1.98-1.98h0ZM54.08,37.47v2.03-2.03h0ZM53.32,37.24v2.31-2.31h0ZM52.61,37.14v2.31-2.31h0ZM50.13,36.77l1.67.26.17.03,6.16.96v1.2l-7.8.41-.2-2.86Z"/>
        <path class="cls-9" d="M51.8,37v.03M51.85,37.05v2.44M50.89,36.91v2.63M57.37,37.97v1.29M56.51,37.83v1.48M55.65,37.7v1.75M54.84,37.51v1.98M54.08,37.47v2.03M53.32,37.24v2.31M52.61,37.14v2.31M50.13,36.77l1.67.26.17.03,6.16.96v1.2l-7.8.41-.2-2.86Z"/>
      </g>
      <path class="cls-46" d="M51.94,36.91v.02M51.99,36.94v2M51.03,36.83v2.15M57.48,37.7v1.05M56.63,37.58v1.2M55.77,37.47v1.43M54.96,37.32v1.62M54.21,37.28v1.66M53.45,37.09v1.88M52.74,37.02v1.88M50.76,36.78l1.17.15.16.02,6.14.78v.98l-7.48.33v-2.26Z"/>
      <g>
        <path class="cls-64" d="M58.19,37.6c-.62-.18-7.83-2.3-7.91-2.25-.67.42-.06,1.59-.05,1.59l8.01,1.13-.06-.46h0ZM59.37,36.45c-.15.04-.53.13-.89.56-.33.38-5.6-3.61-6.34-3.78-.08-.02.21-1.13.47-1.18.26-.06,1.22-.06,1.73.13l5.03,4.27h0ZM58.93,39.29c-1.87,1.36-3.69,2.48-5.97,3.26-.38.2-1.05,0-1.35-.17-.78-.42-1.14-1.69-1.58-3.03-.08-.23,5.9-.53,8.17-.76l.48-.05-.15.02c-.12-.15-.21-.32-.26-.51-.02-.09-.03-.19-.03-.29,0-.49.3-.92.75-1.17.24-.13.53-.2.83-.2.87,0,1.58.62,1.58,1.37s-.71,1.37-1.58,1.37c-.19,0-.37-.03-.54-.08l.23-.17-.55.4Z"/>
        <path class="cls-1" d="M58.19,37.6c-.62-.18-7.83-2.3-7.91-2.25-.67.42-.06,1.59-.05,1.59l8.01,1.13M59.37,36.45l-5.03-4.27c-.51-.19-1.47-.19-1.73-.13-.26.06-.55,1.16-.47,1.18.73.17,6.01,4.16,6.34,3.78.36-.43.74-.53.89-.56h0ZM58.93,39.29c-1.87,1.36-3.69,2.48-5.97,3.26-.38.2-1.05,0-1.35-.17-.78-.42-1.14-1.69-1.58-3.03-.08-.23,5.9-.53,8.17-.76l.48-.05-.15.02c-.12-.15-.21-.32-.26-.51-.02-.09-.03-.19-.03-.29,0-.49.3-.92.75-1.17.24-.13.53-.2.83-.2.87,0,1.58.62,1.58,1.37s-.71,1.37-1.58,1.37c-.19,0-.37-.03-.54-.08l.23-.17-.55.4Z"/>
      </g>
      <g>
        <path class="cls-47" d="M58.21,37.73c-.6-.17-7.7-2.2-7.78-2.15-.66.4-.05,1.43-.05,1.43l7.92,1.08-.09-.35h0ZM59.38,36.57c-.15.04-.5.11-.85.52-.32.37-5.48-3.62-6.19-3.78-.08-.02.11-.91.36-.96.25-.05,1.19-.05,1.69.13l4.98,4.1h0ZM58.88,39.27c-1.83,1.3-3.58,2.42-5.81,3.16-.37.19-1.05-.05-1.35-.21-.76-.4-1.05-1.37-1.48-2.65-.08-.22,5.73-.57,7.94-.79l.53-.23h-.15c-.12-.13-.21-.29-.25-.47-.02-.09-.03-.18-.03-.27,0-.47.29-.88.73-1.12.24-.12.15-.16.72-.16s1.54.56,1.54,1.28-.69,1.31-1.54,1.31c-.19,0-.36-.03-.53-.08l.22-.16-.54.39Z"/>
        <path class="cls-87" d="M58.21,37.73c-.6-.17-7.7-2.2-7.78-2.15-.66.4-.05,1.43-.05,1.43l7.92,1.08M59.38,36.57l-4.98-4.1c-.5-.18-1.44-.18-1.69-.13-.25.05-.44.94-.36.96.71.16,5.87,4.15,6.19,3.78.35-.41.7-.48.85-.52h0ZM58.88,39.27c-1.83,1.3-3.58,2.42-5.81,3.16-.37.19-1.05-.05-1.35-.21-.76-.4-1.05-1.37-1.48-2.65-.08-.22,5.73-.57,7.94-.79l.53-.23h-.15c-.12-.13-.21-.29-.25-.47-.02-.09-.03-.18-.03-.27,0-.47.29-.88.73-1.12.24-.12.15-.16.72-.16s1.54.56,1.54,1.28-.69,1.31-1.54,1.31c-.19,0-.36-.03-.53-.08l.22-.16-.54.39Z"/>
      </g>
      <path class="cls-6" d="M54.66,46.76l-.3.18c-.05.27-.33.84.11,1.11.77.07.77-.08,1.31-.07,3,.07,6.88-.38,8.73-1.63.18-.12.24-.4.24-.98,0-.25-.01-.21-.19-.29-.95-.42-1.06,1.67-9.9,1.67Z"/>
      <path class="cls-67" d="M55.79,41.98c.09,0,.16.08.16.17s-.07.17-.16.17-.16-.08-.16-.17.07-.17.16-.17Z"/>
      <path class="cls-67" d="M56.28,42.55c.09,0,.16.08.16.17s-.07.17-.16.17-.16-.08-.16-.17.07-.17.16-.17Z"/>
      <path class="cls-44" d="M56.84,43.06c.09,0,.16.08.16.17s-.07.17-.16.17-.16-.08-.16-.17.07-.17.16-.17Z"/>
      <path class="cls-44" d="M57.56,43.47c.09,0,.16.08.16.17s-.07.17-.16.17-.16-.08-.16-.17.07-.17.16-.17Z"/>
      <path class="cls-67" d="M58.33,43.68c.09,0,.16.08.16.17s-.07.17-.16.17-.16-.08-.16-.17.07-.17.16-.17Z"/>
      <path class="cls-67" d="M59.15,43.75c.09,0,.16.08.16.17s-.07.17-.16.17-.16-.08-.16-.17.07-.17.16-.17Z"/>
      <path class="cls-67" d="M59.2,44.44c.09,0,.16.08.16.17s-.07.17-.16.17-.16-.08-.16-.17.07-.17.16-.17Z"/>
      <path class="cls-67" d="M59.22,45.15c.09,0,.16.08.16.17s-.07.17-.16.17-.16-.08-.16-.17.07-.17.16-.17Z"/>
      <path class="cls-67" d="M59.2,45.81c.09,0,.16.08.16.17s-.07.17-.16.17-.16-.08-.16-.17.07-.17.16-.17Z"/>
      <path class="cls-11" d="M63.77,39.91c-.72,1.81-3.02,2.01-3.02,2.12"/>
      <path class="cls-29" d="M64.18,40.65c-.72,1.81-3.02,2.01-3.02,2.12"/>
      <path class="cls-79" d="M54.57,46.48l-.31.18c-.05.27-.33.84.12,1.11.77.07.77-.08,1.33-.07,3.03.07,6.95-.38,8.81-1.63.18-.12.24-.4.24-.98,0-.25-.01-.21-.19-.29-.96-.42-1.07,1.67-10,1.67Z"/>
      <path class="cls-24" d="M70.49,49.28c-2-1.47-4.52-.15-5.33.77-.39.45-1.28,2.62-4.09,1.92"/>
      <path class="cls-64" d="M59.73,37.15c.42,0,.77.31.77.69s-.35.69-.77.69-.77-.31-.77-.69.35-.69.77-.69Z"/>
      <path class="cls-27" d="M59.74,37.6c.17,0,.31.12.31.28s-.14.28-.31.28-.31-.12-.31-.28.14-.28.31-.28Z"/>
      <path class="cls-78" d="M27.31,66.66c-.32.85.04,2.17-1.29,3.07-.76.51-1.23.84-1.91,1.84-.58.9-.75,1.98-.95,3.13-1.88-.23-.24-4.82-1.6-9.04-.2-.6-.52-1.32-.59-1.4-.96-.99-1.76-5.72.11-5.72.22,0,1.07-.07,1.04,1.62.03,1.09-.59.68-.58,1.98.45.88,0,1.37.15,1.32.76.35.87-1.78.89-1.68.07.4.08,1.22-.49,1.93-.09.5-.09.85.25,1.17.53.54.4,1.21.25,1.71.81.02,1.72-1.97.98-2.46-.33-.36-.42-.7-.37-.61.52.83,1.42.31,1.17.19-.52-.24-.85-.56-.68-1.5-.69-5.52-2.44-4.72-3.35-4.57-1.13.28-1.69,2.26-1.33,4.57.48,3.04,2.35,3,2.01,8.87-.1,1.62-.6,3.81.81,5.06.31.28.8.03,1.26.45.23.21.03.65.28,1.32.33.87,1.97,2,2.03,2.99.14,2.4-.81.94-1.92,1.66-.08.63-.02.71-.03,1.09.59.36-.06,1.64.02,1.95.69,3.05-1.13,2.74-.68,4.81-.35.07-.29.65-.14,1.04.33.44,1.32-.59.9.62-.02.26-.05.68.15.91.26.31,2.76,0,3.11-.29.07-.06.15-.13.2-.24-.03-.22.09-.47-.11-.99-.29-.14-1.07,0-1.19-.12-.07-.12.89.04,1.18-.13.1-.06.07-.59.07-.7,0-.09-.55-.24-1.33-.17-.19.02-.17-.18-.24-.41-.05-.15-.19-.3-.31-.46-.27-.35-.03-1.04.27-1.86,1.08-2.99,3.29-1.4,4.33-4.76.31-.07.67-.74,1.16-1.35,1.34-1.68-.13-3.67,1.06-4.9,1.2-1.24,5.74-5.94,3.65-8.11-1.02-1.05-7.27-6.46-8.23-1.8Z"/>
      <path class="cls-64" d="M24.08,76.48c-.23-.11-.31-.06-.27.02.01,1.09.54,1.65,1.37,2.32.17.14-.08.42.61,1.38.71.23.96.11.89-.29-.49-.24-.89-.64-1.03-1.14-.3-1.1-1.27-1.36-1.57-2.29Z"/>
      <path class="cls-64" d="M26.24,82.21c.03-.23-.02-.28-.08-.23-.8.36-.66,1.06-1.96,1.17-.17.01.36.37-.25,1.22,0,.68.15.86.46.7.07-.49-.21-1.33.38-1.4.7-.08.77-.97,1.45-1.46Z"/>
      <path class="cls-64" d="M31.41,73.08c.09.39.15.63.23.98.05.2.19.24.33.64.11-.04.21-.07.31-.1l-.09-.36c-.4-.25-.47-.98-.78-1.15Z"/>
      <path class="cls-64" d="M32.13,72.77c.09.39.15.63.23.98.05.2.19.24.33.64.11-.04.21-.07.31-.1l-.09-.36c-.4-.25-.47-.98-.78-1.15Z"/>
      <path class="cls-78" d="M25.8,61.68c-.03.08-.05.14-.08.19.32.02.59-.04.82-.18-.02.42-.13,1.7-.32,1.81-.2.11.35.07.92-.32.23-.16-.26.54-.41,1.28-.16.79.29,2.03-.29,2.91-.62.93,1.68.08,2.27-2.38.41,1.37-.27,1.65-.97,2.69.81-.11,1.25-.75,1.41-1.07.15-.3.3,1.3-.5,1.95-.14.06.91.19,1.23-.49.6-1.29.27-1.53.14-3.15.06-.27.94,2.27.26,3.63.18.45.86-.15,1.22-2.19.03-.14,1.17.98.58,1.47-1.58,1.31-.84,2.87-.61,2.68.03-1.02,1.02-1.81,1.31-1.53-.07.11-.58.84-.58,1.64,0,.84.29,1.35.45,1.31-.06-.25.16-1.19.87-1.46.18-.91.36-2.34.33-1.95-.13,2.04.37,3.18.57,3.17-.1-1.2.51-2.77.51-2.07,0,.84.46,2.33-.14,2.94-.11.11,1.39-.18,1.52-2.61.44.72-.51,2.3.41,2.92,0,0,.27-1.72.6-2.05.06-.07-.03,1.58.8,1.45-.08-.56.1-1.91.21-1.97.32-.17.97,1.74,1.02,1.02l.08-1.15c.06-.79.5.42.45,1.15,0-.03.31-2.3,1.56-2.66.55-.16.71-.7.82-1.38.06-.41-.06-1.03-.06-1.53,0-.88-.82-.83-1.4-.65-.15.16-.23.58-.23.84,0,.21-.37,1.06-.45,1.79-.05.45-.57.7-.69.76-.51.27-.91-.04-1.2-.61-.32-.27-.44-.63-.36-1.08-.2-.07-.44-.73-.44-.9,0-1.12-.16-.28.49-.28.22,0-.71-1.87-.33-1.79.41.08.87-.07,1.07.82.12-.31.37-.48.35-.93l.64.72c.21-.17-.51-3.11.19-2.1.34.71.19,1.21.39,1.15.26-.09.45-1.02.45-1.65,0-.06,0-.11,0-.16h-14.9Z"/>
      <path class="cls-78" d="M25.74,48.92c-.03.24.48.76,1.34.55.64-.15,1.04.1.62.04-1.56-.22-1.45.91-3.26.25-.23,1.36,2.73,1.35,1.38,1.35-.33,0-1.06.96-1.05,1.55.01.79-1.06,1.61.24.68.74-.53.68-.36.3.25-.09.15-.28,1.14-.52,1.79-.28.76-1.55.25-.99.92.42.5,1.04-.32,1.18-.07.47.87-1.31,2.39-.58,2.39.32,0,1.06-.56,1.06-.96,0,0-.14,1.11-.34,1.61-.11.28.33-.04.72-.38-.08.19.08-.23-.4,1.35,1.69-1.19-.46.49-.23,1.19.04.11.49-.59.97-.18.02.24-.37.76-.43.86.26.02.59-.1.78-.18.15,1.28-.46,1.71-.3,1.79,1.54-.29.85-1.77,1.5-1.77.37,1.21-.22,2.43-.06,2.27.18-.16.96-1.08.91-2.21.83-.42.48,2,.64,1.57.71-.3.78-.81.97-1.66.37.15,1.01.88.25,2.63.95-.25.73-2.56,1.85-2.56-.05.78-.99.97-.27,1.04.65.06.49-1.2,1.16-1.2-.06.43-.17,1.38-.18,1.89-.04,1.6,1.06,1.65,1.95,2.82.12,1.43.41.41.6-.88,0-1.72-1.93-1.18-1.77-3.49.08,0-.29.39.84,1.57,1.13,1.18,1.47.27,1.96,1.75.15-.63.45-1.63-.26-2.15-.68-.21-1.78-1.39-.94-1.02.96.43,1.29.29,1.46.88.41.95-.1,2.49,1.11,2.55-.03-.19-.34-.93-.41-1.33-.02-.15-.19-.56.03-.45.16.08.54.02.76.23.29.26.41.78.36.72-.09-.11.01-.24.12-.43s.14-.45.19-.61c.6.52.56.84.67.68.05-.07.05-.61-.05-1.08-.12-.57-.12-1.17-.15-1.17-.07,0,.47-.12.67,1.35.24,0,.44-.48.54-1.47,0-.04,0-.07,0-.11,0-.37.08-.78.38-.82.39-.05.54,1.04.76.65.19-.34.18-2.27-.08-2.4-.62-.31-.88-1.18-.67-1.84.12-.38.84.03,1.01-.31.25-.5-.03-1.27-.13-1.83-.24-.39-.75-.2-1.49-.2-.39,0-.45.25-.6.61-.12.3.08,1.11-.02,1.49-.08.32-.4.09-.58.28-.18.18-.21.78-.38.95-.18.19-.07.79-.17.94-.4.65-.55,1.1-.87.64-.15-.21-.33-.75-.75-1.19-.12-.12-.27-.12-.66-.3-.28-.13-.46.06-.82-.09-.2-.08-.33-.04-.48-.03-.11-.03-.22-.05-.33-.06,0,0,0,0,0,0-.2-.09-.26-.82-.43-1.07,0-.02,0-.04,0-.06-.56-.47-1.03-1.1-1.32-1.4-.84-.87-1.61-1.55-2.57-2.54-1.2-1.24-.6-4.46-3.23-4.46-.51,0-1.06.02-1.52-.13Z"/>
      <path class="cls-31" d="M34.85,52.99c.52-.03,1.59-.71,1.81-.31.41.75,1.35.7,1.35.83,0,0-.93.15-.29.7.05.04-.12.1-.21.1-.31,0-.95-.95-1.39-.92-.25.02-.9.19-.94.5-.04.28-.21.56-.38.37-.15-.17.05-1.1.05-1.27Z"/>
      <path class="cls-78" d="M27.03,50.41c-.31.19.79.18,1.12.18.12,0,.23,0,.32,0,.16.13.3.28.42.43-.16.38-.29.56-1.03.94.57.56,1.2-.14,1.43-.34.02.03.04.06.06.09-.19.4-1.34,1.03-1.28,2.29.09-.7.69-.94.9-1.16.48-.62-.93,1.41-.55,1.45.14-.22.31.02.55-.39.39-.68.62-1.05.71-.44-.18.08-.11.35-.28.77-.1.25-.32.5-.57.82-.1.13.12.19.46-.19.21-.23.4-.66.72-1.19,0,0,.18-.1.2.08.02.17-.07.53-.16.74-.19.43-.02.75-.04.87-.15.46-.27.42-.48.63,0,0,.51.06.69-.12.25-.26.3-.46.31-.44.2.71-.44,1.39-.43,1.39.62.43.94-.79,1-.91,0-.03.16.06.01,1.44-.39.85.57.26.46-.42.51-1.64.61-.11.43,1.19,0,.49.61-.84.69-1.64,0-.1.31.63.09,2.13.58.08.64-2.34.64-1.75,0,.31.3,1,.18,1.98.51-.34.16-1.53.58-1.1.27.28.6.83.21,0-.13-.29-.11-.5-.04-.7.02.02.04.03.05.05,0-.02,0-.03,0-.06,0,0,0,0-.01-.02.02-.02.05-.05.06-.1.06-.14.73.82.76.73.05-.14.05-1.38.22-1.01.03.06.62.9.62.39,0-.06.22-.54.22-.62,0-.14.35-.65.35-.25,0,.08,0,.2.08.2.25,0,.65-1.61-.19-1.61-.27,0-.38.03-.38.34,0,.23-.22.34-.35.37-.54.17-.84-.42-.84-.95.03-.11.07-.21.03-.34-.13-.42-.2-.85-.11-1.16.04-.15-.09-.49.17-.36.38-.49,1.08-.21,1.56-.21s.93.04,1.02-.19c.16-.39-.06-1-.02-1.53,1.09.09.81-.34.76-.51-.28-.98-.4-.64-.75-.61-.51.04-1.17.3-1.66.03-.28-.15-.11-.64-.45-1.19-.11-.32-.65.15-1.11-.15-.06-1.31-.61-.75-.73-.81-.76-.39-2.28.93-2.82-.23-.25-.16-.25-1.13-.14-.88-.41.46-.62,1.09-.84,1.27-.55.47-.64-.23-.53-1.13-.67.43-1.43,1.22-.66,1.78.65.48-1.59.62-2.98.31-.23-.05.19,1.26,1.37.96,1.33-.34.9.22.42.44-.18.12-.26.26-.44.38Z"/>
      <path class="cls-64" d="M31.54,50.01v-.62c0-.12-.16-.17-.22-.43-1.11.06-1.82-.1-1.84-.07-.03.05.39.64.13,1.5-.07.22.02.61.26.69.1.03-.03.23.07.26.09.03.99,0,1.05-.16.04-.12-.05-.37-.27-.25-.21.12-.64.08-.75-.14-.16-.33.15-.83-.03-1.59-.03-.11.87-.05,1.04,0,.34.09.25.66.55.79Z"/>
      <path class="cls-64" d="M31.22,51.09c-.07-.29-.11-.47-.17-.73-.03-.15-.16-.2-.27-.51-.09,0-.18.01-.27.02l.06.27s.04.01.05.02c.25.11.35.78.59.93Z"/>
      <path class="cls-64" d="M32.31,49.85c-.05-.22-.08-.36-.13-.55-.03-.11-.12-.15-.2-.38-.07,0-.14.01-.2.01l.05.21s.03,0,.04.01c.19.08.26.59.44.7Z"/>
      <path class="cls-64" d="M32.86,49.55c-.09-.22-.15-.36-.23-.55-.05-.11-.15-.15-.27-.38-.07,0-.14.01-.2.01l.08.2s.03,0,.04.01c.2.08.37.58.57.7Z"/>
      <path class="cls-64" d="M33.29,49.21c-.08-.22-.14-.36-.21-.55-.04-.11-.14-.15-.26-.38-.07,0-.14.01-.2.01l.08.21s.03,0,.04.01c.2.08.35.59.55.7Z"/>
      <path class="cls-64" d="M34.56,52.41c-.27.29-.44.47-.67.72-.14.15-.1.29-.34.63.09.07.17.14.24.21l.25-.27c0-.48.55-.93.52-1.29Z"/>
      <path class="cls-64" d="M34.47,53.29c-.04.27-.06.44-.09.67-.02.14.07.2.07.49.09,0,.17.01.25.03l.03-.25s-.03-.02-.04-.02c-.19-.13-.06-.74-.22-.91Z"/>
      <path class="cls-64" d="M35.16,49.85c-.35-.05-.83-.17-1.13-.17-.48,0-.43,1.49-.14,1.49.04,0,.08-.54.21-.5.75.19.63-.69.66-.69.06,0,.15-.03.21,0,.21.1.22-.08.19-.13Z"/>
      <path class="cls-42" d="M34.23,50.03c.08,0,.15.04.15.1s-.07.1-.15.1-.15-.04-.15-.1.07-.1.15-.1Z"/>
      <path class="cls-64" d="M32.45,85.09c-.1.08-.15.06-.14.02-.12-.52.28-.63-.15-1.35-.05-.09.32.09.51-.46.33-.19.48-.15.52.05-.21.17-.73.25-.55.58.22.39-.19.67-.19,1.16Z"/>
      <path class="cls-78" d="M92.45,66.38c.32.85-.04,2.18,1.29,3.07.76.51,1.23.84,1.91,1.84.58.9.75,1.98.95,3.13,1.88-.23.24-4.82,1.6-9.04.2-.6.52-1.32.59-1.4.96-.99,1.76-5.72-.11-5.72-.22,0-1.07-.07-1.04,1.62-.03,1.09.59.68.58,1.98-.45.88,0,1.37-.15,1.32-.76.35-.87-1.78-.89-1.68-.07.4-.08,1.22.49,1.93.09.5.09.85-.25,1.17-.53.54-.4,1.21-.25,1.7-.81.02-1.72-1.97-.98-2.46.33-.36.42-.7.37-.61-.52.83-1.42.31-1.17.19.52-.24.85-.56.68-1.5.69-5.52,2.44-4.72,3.35-4.57,1.13.28,1.69,2.26,1.33,4.57-.48,3.04-2.35,3-2.01,8.87.1,1.62.6,3.81-.81,5.06-.31.28-.8.03-1.26.45-.23.21-.03.65-.28,1.32-.33.87-1.97,2-2.03,2.99-.14,2.4.81.94,1.92,1.66.08.63.02.71.03,1.09-.59.36.06,1.64-.02,1.95-.69,3.05,1.13,2.74.68,4.81.35.07.29.65.14,1.04-.33.44-1.32-.59-.9.62.02.26.05.68-.15.91-.26.31-2.76,0-3.11-.29-.07-.06-.15-.13-.2-.24.03-.22-.09-.47.11-.99.29-.14,1.07,0,1.19-.12.07-.12-.89.04-1.18-.13-.1-.06-.07-.58-.07-.7,0-.09.55-.24,1.33-.17.19.02.17-.18.24-.41.05-.15.19-.3.31-.46.27-.35.03-1.04-.27-1.86-1.08-2.99-3.29-1.4-4.33-4.76-.31-.07-.67-.74-1.16-1.35-1.34-1.68.13-3.67-1.06-4.9-1.2-1.24-5.74-5.94-3.65-8.11,1.02-1.05,7.27-6.46,8.23-1.8Z"/>
      <path class="cls-64" d="M95.68,76.2c.23-.11.31-.07.27.02,0,1.09-.54,1.65-1.37,2.32-.17.14.08.42-.61,1.38-.71.23-.96.11-.89-.29.49-.24.89-.64,1.03-1.14.3-1.1,1.27-1.36,1.57-2.29Z"/>
      <path class="cls-64" d="M93.52,81.92c-.03-.23.02-.28.08-.23.8.36.66,1.06,1.96,1.17.17.01-.36.37.25,1.22,0,.68-.15.86-.46.7-.07-.49.21-1.33-.38-1.4-.7-.08-.77-.97-1.45-1.46Z"/>
      <path class="cls-64" d="M88.35,72.79c-.09.39-.15.63-.23.98-.05.2-.19.24-.33.64-.11-.04-.21-.07-.31-.1l.09-.36c.4-.25.47-.98.78-1.15Z"/>
      <path class="cls-64" d="M87.63,72.48c-.09.39-.15.63-.23.98-.05.2-.19.24-.33.63-.11-.04-.21-.07-.31-.1l.09-.36c.4-.25.47-.98.78-1.15Z"/>
      <path class="cls-78" d="M93.96,61.39c.03.08.05.14.08.19-.32.02-.59-.04-.82-.18.02.42.13,1.7.32,1.81.2.11-.35.07-.92-.32-.23-.16.26.54.41,1.28.16.79-.29,2.03.29,2.91.62.93-1.68.08-2.27-2.38-.41,1.37.27,1.65.97,2.69-.81-.11-1.25-.75-1.41-1.07-.15-.3-.3,1.3.5,1.95.14.06-.91.19-1.23-.49-.6-1.29-.27-1.53-.14-3.15-.06-.27-.94,2.27-.26,3.63-.18.45-.86-.15-1.22-2.19-.03-.14-1.18.98-.58,1.47,1.58,1.31.84,2.87.61,2.68-.03-1.02-1.02-1.81-1.31-1.53.07.11.58.84.58,1.64,0,.84-.29,1.35-.45,1.31.05-.25-.16-1.19-.87-1.46-.18-.91-.36-2.34-.33-1.95.13,2.05-.37,3.18-.57,3.17.1-1.2-.51-2.77-.51-2.07,0,.84-.46,2.33.14,2.94.11.11-1.39-.18-1.52-2.61-.44.72.51,2.3-.41,2.92,0,0-.27-1.72-.6-2.05-.06-.07.03,1.58-.8,1.45.08-.56-.1-1.91-.21-1.97-.32-.17-.97,1.74-1.02,1.02l-.08-1.15c-.06-.79-.5.42-.45,1.15,0-.03-.31-2.3-1.56-2.66-.55-.16-.71-.7-.82-1.38-.06-.41.06-1.03.06-1.53,0-.88.82-.83,1.4-.65.15.16.23.58.23.84,0,.21.37,1.06.45,1.79.05.45.57.7.69.77.51.27.91-.04,1.2-.61.32-.27.44-.63.36-1.08.2-.07.44-.73.44-.9,0-1.12.16-.28-.49-.28-.22,0,.71-1.87.33-1.8-.41.08-.87-.07-1.07.82-.12-.31-.37-.48-.35-.93l-.64.72c-.21-.17.51-3.11-.19-2.1-.34.71-.19,1.21-.39,1.15-.26-.09-.45-1.02-.45-1.65,0-.06,0-.11,0-.16h14.9Z"/>
      <path class="cls-78" d="M94.01,48.63c.03.24-.48.76-1.34.55-.64-.15-1.04.1-.62.04,1.56-.22,1.45.91,3.26.25.23,1.36-2.73,1.35-1.38,1.35.33,0,1.06.96,1.05,1.55-.01.79,1.06,1.61-.24.67-.74-.53-.68-.36-.3.25.09.15.28,1.14.52,1.79.28.76,1.55.25.99.92-.42.5-1.04-.32-1.18-.07-.47.87,1.31,2.39.58,2.39-.32,0-1.06-.56-1.06-.96,0,0,.14,1.11.34,1.61.11.28-.33-.04-.72-.38.08.19-.08-.23.4,1.35-1.69-1.19.46.48.23,1.19-.04.11-.49-.59-.97-.18-.02.24.37.76.43.86-.26.02-.59-.1-.78-.18-.15,1.28.46,1.71.3,1.79-1.54-.29-.85-1.77-1.5-1.77-.37,1.21.22,2.43.05,2.28-.18-.16-.96-1.08-.91-2.21-.83-.42-.48,2-.64,1.57-.71-.3-.78-.81-.97-1.66-.37.15-1.01.88-.25,2.63-.95-.25-.73-2.56-1.85-2.56.05.78.99.97.27,1.04-.65.06-.49-1.2-1.16-1.2.06.43.17,1.38.18,1.89.04,1.6-1.06,1.65-1.95,2.82-.12,1.43-.41.41-.6-.88,0-1.71,1.93-1.18,1.77-3.49-.08,0,.29.39-.84,1.57-1.13,1.18-1.47.27-1.96,1.75-.15-.63-.45-1.63.26-2.15.68-.21,1.78-1.39.94-1.02-.96.43-1.29.29-1.46.88-.41.95.1,2.49-1.11,2.55.03-.19.34-.93.41-1.33.02-.15.19-.56-.03-.45-.16.08-.54.02-.76.23-.29.26-.41.78-.36.72.09-.11-.01-.24-.12-.43-.11-.19-.14-.45-.19-.61-.6.52-.56.84-.67.68-.05-.07-.05-.61.05-1.08.12-.57.12-1.17.15-1.17.07,0-.46-.12-.67,1.35-.24,0-.44-.48-.54-1.47,0-.04,0-.07,0-.11,0-.37-.08-.78-.38-.82-.39-.05-.54,1.04-.76.65-.19-.34-.18-2.27.08-2.4.62-.31.88-1.18.67-1.84-.12-.38-.84.03-1.01-.31-.25-.5.03-1.27.13-1.83.24-.39.75-.2,1.49-.2.39,0,.45.25.6.61.12.3-.08,1.11.02,1.49.08.32.4.09.58.28.18.18.21.78.38.95.18.19.07.79.17.94.4.65.55,1.1.87.64.15-.21.33-.75.75-1.19.12-.12.27-.12.66-.3.28-.13.46.06.82-.09.2-.08.33-.04.48-.03.11-.03.22-.05.33-.06,0,0,0,0,0,0,.2-.09.26-.82.43-1.07,0-.02,0-.04,0-.06.56-.47,1.03-1.1,1.32-1.4.84-.87,1.61-1.55,2.57-2.54,1.2-1.24.6-4.46,3.23-4.46.51,0,1.06.02,1.52-.13Z"/>
      <path class="cls-31" d="M84.91,52.7c-.52-.03-1.59-.71-1.81-.31-.41.75-1.35.7-1.35.83,0,0,.93.15.29.7-.05.04.12.1.21.1.31,0,.95-.95,1.39-.92.25.02.9.19.94.5.04.28.21.56.38.37.15-.17-.05-1.1-.05-1.27Z"/>
      <path class="cls-78" d="M92.73,50.12c.31.19-.79.18-1.12.18-.12,0-.23,0-.32,0-.16.13-.3.28-.42.43.16.38.29.56,1.03.94-.57.56-1.2-.14-1.44-.34-.02.03-.04.06-.05.09.19.4,1.34,1.03,1.28,2.29-.09-.7-.69-.94-.9-1.16-.48-.62.93,1.41.55,1.45-.14-.22-.31.02-.55-.39-.39-.68-.62-1.05-.71-.44.18.08.11.35.28.77.1.25.32.5.57.82.1.13-.12.19-.46-.19-.21-.23-.4-.66-.72-1.19,0,0-.18-.11-.2.08-.02.17.07.53.16.74.19.43.02.75.04.87.15.46.27.42.48.63,0,0-.51.06-.69-.12-.25-.26-.3-.46-.31-.44-.2.71.44,1.39.43,1.39-.62.43-.94-.79-1-.91,0-.03-.16.06-.01,1.44.39.85-.57.26-.46-.42-.51-1.64-.61-.11-.43,1.19,0,.49-.61-.84-.69-1.64,0-.1-.31.63-.09,2.13-.58.08-.64-2.34-.64-1.75,0,.31-.3,1-.18,1.98-.51-.34-.16-1.53-.58-1.1-.27.28-.6.83-.21,0,.13-.29.11-.5.04-.7-.02.02-.04.03-.05.05,0-.02,0-.03,0-.06,0,0,0,0,.01-.02-.02-.02-.05-.05-.06-.1-.06-.14-.73.82-.76.73-.05-.14-.05-1.38-.22-1.01-.03.06-.62.9-.62.39,0-.06-.22-.54-.22-.62,0-.14-.35-.65-.35-.25,0,.08,0,.2-.08.2-.25,0-.65-1.61.19-1.61.27,0,.38.03.38.34,0,.23.22.34.35.37.54.17.84-.42.84-.95-.03-.11-.07-.21-.03-.34.13-.42.2-.85.11-1.16-.04-.15.09-.49-.17-.36-.38-.49-1.08-.21-1.56-.21s-.93.04-1.02-.19c-.15-.39.06-1,.02-1.53-1.09.09-.81-.34-.76-.51.28-.98.4-.64.75-.61.51.04,1.17.3,1.66.03.28-.15.11-.64.45-1.19.11-.32.65.15,1.11-.15.06-1.31.61-.75.73-.81.76-.39,2.28.93,2.82-.23.25-.16.25-1.13.14-.88.41.46.62,1.09.84,1.27.55.47.64-.23.53-1.13.67.43,1.43,1.22.66,1.78-.65.48,1.59.62,2.98.31.23-.05-.19,1.26-1.37.96-1.33-.34-.9.22-.42.44.18.12.26.26.44.38Z"/>
      <path class="cls-64" d="M88.22,49.72v-.62c0-.12.16-.17.22-.43,1.11.06,1.82-.1,1.84-.07.03.05-.39.64-.13,1.5.07.22-.02.61-.26.69-.1.03.03.23-.07.26-.09.03-.99,0-1.05-.16-.04-.12.05-.37.27-.24.21.12.64.08.75-.14.16-.33-.15-.83.03-1.59.03-.11-.87-.05-1.04,0-.34.09-.25.66-.55.79Z"/>
      <path class="cls-64" d="M88.53,50.8c.07-.29.11-.47.17-.73.03-.15.16-.2.27-.51.09,0,.18.01.27.02l-.06.27s-.04.01-.05.02c-.25.11-.35.78-.59.93Z"/>
      <path class="cls-64" d="M87.45,49.57c.05-.22.08-.36.13-.55.03-.11.12-.15.2-.38.07,0,.14.01.2.01l-.05.2s-.03,0-.04.01c-.19.08-.26.58-.44.7Z"/>
      <path class="cls-64" d="M86.89,49.26c.09-.22.15-.36.23-.55.05-.11.15-.15.27-.38.07,0,.14.01.2.01l-.08.21s-.03,0-.04.01c-.21.08-.37.59-.57.7Z"/>
      <path class="cls-64" d="M86.47,48.92c.08-.22.14-.36.21-.55.04-.11.14-.15.26-.38.07,0,.14.01.2.01l-.08.2s-.03,0-.04.01c-.2.08-.35.58-.55.7Z"/>
      <path class="cls-64" d="M85.2,52.13c.27.29.44.47.67.72.14.15.1.29.34.63-.09.07-.17.14-.24.21l-.25-.27c0-.48-.55-.93-.52-1.29Z"/>
      <path class="cls-64" d="M85.29,53.01c.04.27.06.43.09.67.02.13-.07.2-.07.49-.09,0-.17.01-.25.03l-.03-.25s.03-.02.04-.02c.19-.13.06-.74.22-.91Z"/>
      <path class="cls-64" d="M84.6,49.56c.35-.05.83-.17,1.13-.17.48,0,.43,1.49.14,1.49-.04,0-.08-.54-.21-.5-.75.19-.63-.69-.66-.69-.06,0-.15-.03-.21,0-.21.1-.22-.08-.19-.13Z"/>
      <path class="cls-42" d="M85.53,49.75c-.08,0-.15.04-.15.1s.07.1.15.1.15-.04.15-.1-.07-.1-.15-.1Z"/>
      <path class="cls-64" d="M87.31,84.8c.1.08.15.06.14.02.12-.52-.28-.63.15-1.35.05-.09-.32.09-.51-.46-.33-.19-.48-.15-.52.05.21.17.73.25.55.58-.22.39.19.67.19,1.16Z"/>
      <path class="cls-41" d="M100.29,95.74c.11.59.11,2.02.06,2.57-2.87,2.22-3.47,5.15-3.4,5.14.17-.02.61-3.55,3.78-5.28.15-.07.3-.13.46-.17-.5-.13-.62-.95-.49-1.98-.07.06-.14,0-.2-.24l-.33-1.4c-.25-1.05,2.08-5.72,2.26-6.03,1.17-2,.81,1.25.67,1.94-.13.61-1.13,3.12-1.34,3.65.58-.94,1.51-3.97,1.92-3.97.2.57.4,1.98.43,2.53-2.24,2.3-2.64,4.9-2.65,5.45.02,0,.04,0,.05,0,.13-.62.34-3.69,2.94-5.63.25-.55,1.17-2.54,1.71-2.58-.03.42.07,3.17-.03,3.77-.03.17-1.17,4.41-3.81,5.12h0c2.9-.94,3.89-4.9,3.88-5.09-.13-2.87,2.19-2.92,2.65-3.22.34.22-1.31,3.48-1.54,4.67-1.1,3.49-2.07,3-4.99,3.82,0,.13-.42-.96-.44-.83-.01.1.45.9.3,1.65,0,.03.04-.08.03-.05-.05.16-1.81,4.25-4.55,4.56,3.04-.51,4.46-4.42,4.62-4.52.69-.44,1.37-.79,1.86-1.02.3.26-.58,1.47-.98,2.61-1.66,3.47-2.19,2.79-4.34,2.97-.57.05-1.15.14-1.71.21.37-.45,2.57-3.17,2.82-3.72,0,0-.14.12-.08.22-.99,1.54-1.98,2.48-2.73,3.47-.35-.11-.28-.51-.19-.94-.73.03-.79-.9-.47-2.07-.08.05-.28.27-.3.02-.24-2.71,1.44-5.27,3.11-7.38,1.45-1.82.62,1.35.39,2.01-.21.59-1.82,3.06-2.1,3.56.7-.85,2.32-3.85,2.73-3.8h0ZM102.35,97.97c2.02-4.02,2.58-5.56.27-.9-.03.05-.08.21-.13.37-.07.21-.13.45-.14.53,0,0,0,0,0,0Z"/>
      <path class="cls-70" d="M86.91,110.72c-.11.59-.64,1.92-.89,2.42-3.5,1.06-5.15,3.57-5.08,3.58.16.04,1.88-3.09,5.48-3.58.17-.01.33-.01.49,0-.42-.29-.23-1.1.28-2.02-.09.03-.13-.05-.1-.29l.21-1.42c.16-1.07,4.06-4.59,4.34-4.82,1.84-1.45.29,1.45-.09,2.04-.35.53-2.21,2.51-2.6,2.93.89-.67,2.88-3.16,3.26-3.02-.03.6-.36,1.99-.54,2.51-2.94,1.35-4.27,3.64-4.49,4.14.02,0,.04,0,.05.01.35-.53,1.68-3.32,4.83-4.2.43-.42,2.03-1.95,2.55-1.8-.18.38-1.12,2.98-1.43,3.51-.09.14-2.73,3.69-5.45,3.42,0,0,0,0,0,0,3.05.15,5.45-3.19,5.51-3.36.94-2.72,3.12-1.95,3.66-2.06.23.32-2.51,2.78-3.17,3.81-2.32,2.87-3.04,2.07-6.06,1.79-.05.12-.04-1.04-.1-.92-.05.09.09.99-.33,1.64-.02.03.07-.06.05-.03-.11.13-3.26,3.32-5.93,2.63,3.02.61,5.79-2.54,5.98-2.57.81-.16,1.57-.25,2.12-.29.19.35-1.08,1.16-1.88,2.09-2.84,2.65-3.08,1.82-5.15,1.23-.55-.16-1.12-.28-1.68-.41.51-.29,3.57-2.05,4.01-2.47,0,0-.17.06-.15.17-1.49,1.09-2.76,1.62-3.83,2.27-.29-.23-.07-.57.17-.94-.69-.23-.41-1.12.33-2.09-.09.01-.36.15-.29-.08.78-2.61,3.29-4.4,5.64-5.78,2.02-1.19.08,1.48-.38,2.01-.42.47-2.83,2.21-3.28,2.57.97-.55,3.59-2.77,3.95-2.57h0ZM88,113.53c3.37-3.03,4.47-4.27.59-.74-.05.04-.15.16-.26.3-.14.17-.29.37-.32.45,0,0,0,0,0,0Z"/>
      <path class="cls-50" d="M69.06,119.58c-.35.5-1.38,1.51-1.81,1.86-3.64-.41-6.18,1.24-6.12,1.29.13.1,2.99-2.09,6.49-1.13.16.05.31.12.44.2-.26-.43.24-1.1,1.09-1.74-.09,0-.1-.1.03-.31l.78-1.22c.58-.91,5.61-2.61,5.96-2.7,2.28-.61-.33,1.45-.93,1.83-.53.35-3.06,1.43-3.58,1.66,1.09-.27,3.94-1.76,4.23-1.48-.27.54-1.15,1.68-1.53,2.09-3.25.08-5.41,1.65-5.81,2.03.01.01.03.02.04.03.54-.35,2.91-2.38,6.15-1.95.57-.22,2.66-.99,3.08-.65-.32.28-2.25,2.29-2.75,2.65-.14.1-4.02,2.31-6.4.99,0,0,0,0,0,0,2.73,1.34,6.3-.78,6.42-.92,1.98-2.12,3.66-.56,4.2-.45.08.39-3.44,1.56-4.47,2.24-3.3,1.71-3.64.69-6.29-.74-.09.09.39-.97.29-.89-.08.06-.33.94-.98,1.37-.03.02.09-.03.06-.01-.15.08-4.35,1.76-6.51.08,2.52,1.74,6.35-.05,6.53,0,.81.17,1.54.38,2.06.56.03.39-1.47.64-2.58,1.17-3.69,1.31-3.57.46-5.22-.9-.44-.36-.91-.7-1.37-1.03.59-.06,4.11-.47,4.69-.69,0,0-.19-.01-.21.1-1.81.41-3.19.39-4.44.57-.17-.32.17-.55.55-.8-.54-.48.09-1.18,1.17-1.79-.09-.02-.4,0-.23-.19,1.79-2.08,4.82-2.74,7.54-3.07,2.34-.29-.53,1.39-1.18,1.69-.58.27-3.5.91-4.06,1.06,1.12-.12,4.42-1.12,4.67-.81h0ZM68.9,122.58c4.34-1.45,5.85-2.15.84-.45-.06.02-.21.09-.36.17-.2.1-.42.23-.48.28,0,0,0,0,0,0Z"/>
      <path class="cls-81" d="M48.58,119.57c-.55.3-1.97.75-2.53.88-3.15-1.95-6.26-1.57-6.23-1.51.08.15,3.73-.57,6.49,1.81.12.12.22.24.32.37-.04-.5.74-.88,1.81-1.08-.08-.05-.05-.13.17-.26l1.28-.75c.96-.56,6.37.1,6.74.17,2.38.45-.98,1.15-1.71,1.24-.65.08-3.48-.05-4.07-.07,1.13.23,4.45.13,4.58.51-.5.36-1.84,1-2.38,1.21-3.02-1.34-5.74-.88-6.29-.71,0,.02.02.03.03.05.66-.08,3.79-.87,6.56.93.63.06,2.91.28,3.13.76-.42.11-3.14,1.08-3.76,1.18-.17.03-4.77.32-6.34-1.9,0,0,0,0,0,0,1.89,2.39,6.15,2.04,6.33,1.97,2.81-1.04,3.62,1.09,4.07,1.42-.11.38-3.89-.1-5.15.06-3.84.1-3.67-.96-5.43-3.4-.13.04.81-.69.68-.67-.1.02-.74.7-1.54.8-.04,0,.09.01.06.01-.18,0-4.82-.32-6.02-2.76,1.5,2.65,5.86,2.72,6.01,2.83.66.5,1.24,1.01,1.63,1.4-.16.36-1.65-.07-2.92-.07-4-.43-3.49-1.14-4.38-3.07-.23-.51-.51-1.02-.77-1.52.57.2,4,1.36,4.63,1.42,0,0-.16-.09-.24,0-1.86-.42-3.12-1.04-4.34-1.42,0-.36.41-.42.87-.48-.27-.67.63-1.02,1.91-1.09-.07-.06-.36-.17-.12-.27,2.61-1.09,5.71-.35,8.36.52,2.29.76-1.14,1.01-1.87,1-.66,0-3.65-.7-4.23-.81,1.08.38,4.59.92,4.67,1.31h0ZM47.03,122.19c4.66.58,6.38.61.99-.04-.06,0-.23,0-.41,0-.23,0-.49.02-.57.04,0,0,0,0,0,0Z"/>
      <path class="cls-26" d="M30.58,110.53c.11.59.63,1.92.88,2.42,3.57,1.1,5.22,3.62,5.15,3.63-.17.04-1.88-3.1-5.56-3.64-.17-.02-.34-.01-.5,0,.43-.29.25-1.09-.26-2.02.09.03.14-.05.1-.29l-.2-1.42c-.15-1.07-4.1-4.63-4.38-4.86-1.86-1.47-.32,1.45.07,2.04.35.53,2.23,2.53,2.62,2.95-.9-.68-2.91-3.19-3.3-3.05.02.6.34,1.99.52,2.51,2.99,1.38,4.33,3.68,4.54,4.18-.02,0-.04,0-.06.01-.36-.53-1.68-3.33-4.89-4.25-.44-.43-2.06-1.97-2.59-1.83.18.38,1.1,2.99,1.41,3.51.09.15,2.74,3.72,5.53,3.48,0,0,0,0,0,0-3.13.11-5.53-3.25-5.59-3.42-.93-2.72-3.17-1.98-3.72-2.1-.24.32,2.53,2.8,3.19,3.83,2.34,2.89,3.09,2.1,6.18,1.86.05.12.05-1.04.11-.92.05.09-.1.99.32,1.64.02.03-.07-.06-.05-.03.11.13,3.3,3.35,6.03,2.7-3.1.57-5.89-2.6-6.08-2.64-.83-.17-1.6-.27-2.16-.32-.19.35,1.09,1.17,1.9,2.1,2.87,2.67,3.12,1.85,5.25,1.29.56-.15,1.15-.27,1.72-.39-.52-.29-3.63-2.08-4.07-2.51,0,0,.18.06.15.18,1.52,1.1,2.8,1.64,3.89,2.31.3-.22.08-.57-.16-.94.71-.22.43-1.11-.31-2.09.09.02.37.16.3-.08-.76-2.61-3.31-4.43-5.69-5.83-2.06-1.21-.1,1.47.37,2.01.42.48,2.87,2.24,3.32,2.6-.99-.56-3.64-2.8-4.01-2.61h0ZM29.43,113.32c-3.41-3.07-4.52-4.31-.59-.75.05.04.15.17.26.3.14.18.29.37.33.45,0,0,0,0,0,0Z"/>
      <path class="cls-56" d="M17.55,94.84c-.1.58-.05,1.97.02,2.51,2.93,2.14,3.62,4.99,3.55,4.98-.17-.02-.71-3.46-3.92-5.11-.15-.07-.31-.12-.46-.16.49-.13.59-.93.42-1.94.07.05.14,0,.19-.24l.29-1.37c.21-1.03-2.25-5.56-2.44-5.86-1.23-1.94-.77,1.23-.61,1.9.15.6,1.22,3.04,1.44,3.55-.6-.91-1.63-3.86-2.04-3.86-.18.56-.34,1.94-.35,2.48,2.3,2.22,2.78,4.76,2.81,5.29-.02,0-.04,0-.05,0-.15-.61-.45-3.6-3.1-5.46-.26-.53-1.25-2.46-1.78-2.5.04.41.03,3.1.14,3.69.03.16,1.3,4.29,3.95,4.95,0,0,0,0,0,0-2.92-.88-4.03-4.74-4.03-4.92.04-2.81-2.27-2.83-2.73-3.11-.33.22,1.41,3.39,1.68,4.54,1.2,3.4,2.15,2.91,5.09,3.67,0,.13.39-.94.41-.81.01.09-.42.88-.25,1.61,0,.03-.04-.08-.03-.05.05.16,1.93,4.13,4.67,4.39-3.05-.45-4.58-4.26-4.74-4.35-.71-.42-1.39-.76-1.89-.98-.29.26.62,1.43,1.06,2.54,1.76,3.37,2.27,2.69,4.42,2.85.57.04,1.15.12,1.72.18-.38-.44-2.66-3.07-2.93-3.6,0,0,.14.12.08.21,1.03,1.49,2.04,2.4,2.82,3.35.35-.11.26-.5.16-.92.73.02.76-.89.4-2.03.08.04.29.26.3.02.16-2.65-1.59-5.13-3.33-7.17-1.5-1.76-.58,1.33-.32,1.97.23.57,1.91,2.97,2.2,3.45-.73-.83-2.43-3.73-2.83-3.68h0ZM15.57,97.05c-2.13-3.9-2.74-5.4-.3-.88.03.05.09.2.14.36.07.21.15.44.15.52,0,0,0,0,0,0Z"/>
      <path class="cls-81" d="M95.31,99.3l1.39,5.04-2.18-.19,2.53.26,4.16.42-.99,1.85-1.54-.2-8.86-1.01,1.6-1.63,3.2.32-.85-3.11,1.54-1.75h0ZM97.22,106.31l-2.07-.23.53,1.92.79,2.26,1.57-1.45-.82-2.5Z"/>
      <path class="cls-4" d="M81.53,112.19l-.57,5.19-1.96-.95,2.27,1.13,3.72,1.86-1.6,1.38-1.37-.73-8.22-4.26,2.43-.77,2.87,1.43.36-3.2,2.08-1.08h0ZM80.72,119.41l-1.85-.94-.22,1.98-.1,2.39,2.02-.86.14-2.56Z"/>
      <path class="cls-50" d="M63.84,118.27l-3.61,4.67-1.19-1.8,1.36,2.11,2.23,3.46-2.1.39-.79-1.31-4.64-7.4,2.29.18,1.71,2.66,1.98-2.66,2.76-.29h0ZM58.96,124.55l-1.09-1.73-1.23,1.59-1.56,2.31,2.28.16,1.6-2.33Z"/>
      <path class="cls-41" d="M44.8,115.84l-5.6,2.55-.19-2.13.19,2.48.32,4.07-2.04-.62-.08-1.52-.56-8.87,1.93,1.33.25,3.23,3.3-1.55,2.48,1.03h0ZM37.3,119.23l-.14-2.03-1.84.85-2.59,1.25,1.91,1.22,2.65-1.28Z"/>
      <path class="cls-41" d="M27.85,104.76l-5.31.52.55-2.07-.67,2.4-1.24,4.25-1.57-1.56.45-1.45,2.66-9.06,1.37,2.23-1.03,3.3,3.28-.31,1.51,1.77h0ZM20.46,105.45l.57-1.96-2.03.19-2.68.31,1.29,1.71,2.85-.24Z"/>
      <path class="cls-64" d="M71.79,92.2v-.72c0-.16.05-.27.16-.34.07-.04.16-.06.26-.06.28,0,.42.13.42.4v.74c0,.11-.04.2-.12.26-.08.06-.18.09-.3.09-.14,0-.25-.04-.33-.12-.06-.06-.08-.14-.08-.24h0ZM72.3,92.09v-.6c0-.07,0-.11-.02-.13-.01-.02-.04-.03-.07-.03-.03,0-.05,0-.06.03-.02.02-.03.07-.03.14v.6c0,.06,0,.1.01.12.01.04.04.06.08.06.03,0,.06-.01.07-.05,0-.02.01-.07.01-.14Z"/>
      <path class="cls-64" d="M48.03,91.82v2.02h.47v.51h-1.24v-2.53h.77ZM48.68,91.82h1.29v.51h-.52v.48h.48v.48h-.48v.56h.57v.51h-1.34v-2.53h0ZM51.9,91.82l-.56,1.61v.91h-.72v-.91l-.54-1.61h.71c.11.49.17.82.19.99.04-.27.11-.6.22-.99h.71ZM53.81,91.82v2.53h-.74v-1.36c0-.2,0-.31-.02-.35-.01-.04-.04-.07-.09-.09-.05-.02-.16-.03-.33-.03h-.07v-.29c.36-.07.63-.2.82-.4h.44ZM55.62,91.82v1.65h.21v.43h-.21v.44h-.74v-.44h-.88v-.43l.64-1.65h.98ZM54.87,93.47v-1.08l-.33,1.08h.33ZM55.98,93.67h.74c0,.12,0,.19,0,.22,0,.03.02.06.05.08.03.02.06.03.11.03.04,0,.07,0,.09-.03.02-.02.04-.05.04-.08,0-.03,0-.09,0-.19v-.4c-.04.07-.09.12-.17.15-.07.03-.16.05-.27.05-.14,0-.26-.03-.36-.09-.1-.06-.17-.14-.2-.22-.03-.09-.04-.21-.04-.35v-.2c0-.18,0-.31.02-.39.02-.09.06-.17.13-.24.07-.07.16-.13.28-.17.12-.04.26-.06.42-.06.2,0,.36.02.49.07.13.05.23.11.3.2.07.09.11.18.12.28.01.1.02.28.02.56v.35c0,.3,0,.5-.01.6,0,.1-.05.2-.13.29-.08.09-.18.16-.31.2-.13.05-.28.07-.45.07-.21,0-.38-.03-.51-.09-.13-.06-.23-.14-.29-.24-.06-.1-.09-.24-.09-.39h0ZM56.72,92.88c0,.11.02.17.05.2.03.02.07.04.1.04.05,0,.09-.02.11-.05.02-.03.04-.09.04-.19v-.46c0-.11-.01-.18-.03-.22-.02-.03-.06-.05-.11-.05-.03,0-.07.01-.1.04-.03.03-.05.1-.05.21v.47h0ZM59.16,91.82v2.53h-.74v-1.36c0-.2,0-.31-.02-.35-.01-.04-.04-.07-.09-.09-.05-.02-.16-.03-.33-.03h-.07v-.29c.36-.07.63-.2.82-.4h.44ZM61.07,91.82v.4h-.92v.43c.12-.12.26-.17.44-.17.2,0,.36.05.46.15.1.1.16.28.16.56v.36c0,.18,0,.31-.03.39-.02.08-.06.16-.13.23-.07.07-.16.13-.28.16-.12.04-.26.06-.43.06-.19,0-.36-.03-.51-.09-.15-.06-.25-.14-.31-.25-.06-.11-.09-.29-.09-.52v-.14h.74v.16c0,.16,0,.28.02.35.01.07.06.1.14.1.04,0,.07,0,.09-.03.02-.02.04-.04.04-.06,0-.02,0-.12,0-.3v-.5c0-.09-.01-.16-.04-.19-.02-.03-.06-.05-.12-.05-.03,0-.06,0-.09.03-.02.02-.04.04-.05.06,0,.02,0,.07,0,.14h-.74l.03-1.27h1.59ZM61.49,91.82h.58c.37,0,.63.01.76.04.13.03.23.08.3.14.07.07.11.14.13.22.02.08.03.24.03.48v.89c0,.23-.01.38-.04.46-.03.08-.07.14-.13.18-.06.04-.14.07-.23.09-.09.02-.23.03-.41.03h-.98v-2.53h0ZM62.27,92.25v1.66c.11,0,.18-.02.21-.06.03-.04.04-.14.04-.31v-.98c0-.11,0-.19-.01-.22,0-.03-.03-.06-.06-.07-.03-.02-.09-.02-.17-.02h0ZM64.69,91.82v2.53h-.74v-1.36c0-.2,0-.31-.02-.35-.01-.04-.04-.07-.09-.09-.05-.02-.16-.03-.33-.03h-.07v-.29c.36-.07.63-.2.82-.4h.44ZM64.98,93.67h.74c0,.12,0,.19,0,.22,0,.03.02.06.05.08.03.02.06.03.11.03.04,0,.07,0,.09-.03.02-.02.04-.05.04-.08,0-.03,0-.09,0-.19v-.4c-.04.07-.09.12-.17.15-.07.03-.16.05-.27.05-.14,0-.26-.03-.36-.09-.1-.06-.17-.14-.2-.22-.03-.09-.04-.21-.04-.35v-.2c0-.18,0-.31.02-.39.02-.09.06-.17.13-.24.07-.07.16-.13.28-.17.12-.04.26-.06.42-.06.2,0,.36.02.49.07.13.05.23.11.3.2.07.09.11.18.12.28.01.1.02.28.02.56v.35c0,.3,0,.5-.02.6,0,.1-.05.2-.13.29-.08.09-.18.16-.31.2-.13.05-.28.07-.45.07-.21,0-.38-.03-.51-.09-.13-.06-.23-.14-.29-.24-.06-.1-.09-.24-.09-.39h0ZM65.73,92.88c0,.11.02.17.05.2.03.02.07.04.1.04.05,0,.09-.02.11-.05.02-.03.04-.09.04-.19v-.46c0-.11-.01-.18-.03-.22-.02-.03-.06-.05-.11-.05-.03,0-.07.01-.1.04-.03.03-.05.1-.05.21v.47h0ZM68.8,92.49h-.74c0-.12,0-.19,0-.22,0-.03-.02-.06-.04-.08-.03-.02-.06-.03-.11-.03-.04,0-.07.01-.09.03-.02.02-.04.05-.04.08,0,.03,0,.09,0,.19v.4c.04-.07.09-.12.17-.15.07-.03.16-.05.27-.05.14,0,.26.03.36.09s.17.14.2.22c.03.09.04.21.04.35v.2c0,.18,0,.31-.02.39-.02.09-.06.17-.13.24-.07.07-.16.13-.28.17-.12.04-.26.06-.42.06-.2,0-.36-.02-.49-.07-.13-.05-.23-.11-.29-.2-.07-.09-.11-.18-.12-.28-.01-.1-.02-.28-.02-.56v-.35c0-.3,0-.5.02-.6.01-.1.05-.2.13-.29.08-.09.18-.16.31-.2.13-.05.28-.07.45-.07.21,0,.38.03.51.09.13.06.23.14.29.24.06.1.09.24.09.39h0ZM68.06,93.28c0-.09-.01-.15-.04-.18-.02-.03-.06-.05-.11-.05s-.09.02-.11.05c-.02.03-.04.09-.04.19v.46c0,.11.01.18.03.22.02.03.06.05.11.05.03,0,.06-.01.1-.04.03-.03.05-.1.05-.21v-.47h0ZM70.57,91.82v1.65h.21v.43h-.21v.44h-.74v-.44h-.88v-.43l.64-1.65h.98ZM69.83,93.47v-1.08l-.33,1.08h.33Z"/>
      <path class="cls-64" d="M44.65,92.2v-.72c0-.16.05-.27.16-.34.07-.04.16-.06.26-.06.28,0,.42.13.42.4v.74c0,.11-.04.2-.12.26-.08.06-.18.09-.3.09-.14,0-.25-.04-.33-.12-.06-.06-.08-.14-.08-.24h0ZM45.15,92.09v-.6c0-.07,0-.11-.02-.13-.01-.02-.04-.03-.07-.03-.03,0-.05,0-.06.03-.02.02-.03.07-.03.14v.6c0,.06,0,.1.01.12.01.04.04.06.08.06.03,0,.06-.01.07-.05,0-.02.01-.07.01-.14Z"/>
    </g>
  </g>
</svg>